%TF.GenerationSoftware,KiCad,Pcbnew,(5.1.6)-1*%
%TF.CreationDate,2020-08-11T11:23:43+09:00*%
%TF.ProjectId,BLDC_MD_DRV10970,424c4443-5f4d-4445-9f44-525631303937,rev?*%
%TF.SameCoordinates,Original*%
%TF.FileFunction,Copper,L2,Bot*%
%TF.FilePolarity,Positive*%
%FSLAX46Y46*%
G04 Gerber Fmt 4.6, Leading zero omitted, Abs format (unit mm)*
G04 Created by KiCad (PCBNEW (5.1.6)-1) date 2020-08-11 11:23:43*
%MOMM*%
%LPD*%
G01*
G04 APERTURE LIST*
%TA.AperFunction,ComponentPad*%
%ADD10O,1.700000X1.700000*%
%TD*%
%TA.AperFunction,ComponentPad*%
%ADD11R,1.700000X1.700000*%
%TD*%
%TA.AperFunction,ViaPad*%
%ADD12C,0.800000*%
%TD*%
%TA.AperFunction,ViaPad*%
%ADD13C,0.600000*%
%TD*%
%TA.AperFunction,Conductor*%
%ADD14C,0.914400*%
%TD*%
%TA.AperFunction,Conductor*%
%ADD15C,0.406400*%
%TD*%
%TA.AperFunction,Conductor*%
%ADD16C,1.016000*%
%TD*%
%TA.AperFunction,Conductor*%
%ADD17C,0.254000*%
%TD*%
G04 APERTURE END LIST*
D10*
%TO.P,J2,8*%
%TO.N,GND*%
X136499600Y-113182400D03*
%TO.P,J2,7*%
%TO.N,VCC*%
X136499600Y-115722400D03*
%TO.P,J2,6*%
%TO.N,+5V*%
X136499600Y-118262400D03*
%TO.P,J2,5*%
%TO.N,+3V3*%
X136499600Y-120802400D03*
%TO.P,J2,4*%
%TO.N,/RD3V3*%
X136499600Y-123342400D03*
%TO.P,J2,3*%
%TO.N,/PWM3V3*%
X136499600Y-125882400D03*
%TO.P,J2,2*%
%TO.N,/FR3V3*%
X136499600Y-128422400D03*
D11*
%TO.P,J2,1*%
%TO.N,/FG3V3*%
X136499600Y-130962400D03*
%TD*%
D10*
%TO.P,J1,14*%
%TO.N,Net-(J1-Pad14)*%
X136499600Y-92252800D03*
%TO.P,J1,13*%
%TO.N,Net-(J1-Pad13)*%
X139039600Y-92252800D03*
%TO.P,J1,12*%
%TO.N,/HALL_A_P*%
X136499600Y-94792800D03*
%TO.P,J1,11*%
%TO.N,/HALL_A_N*%
X139039600Y-94792800D03*
%TO.P,J1,10*%
%TO.N,/COIL_A*%
X136499600Y-97332800D03*
%TO.P,J1,9*%
%TO.N,/HALL_B_N*%
X139039600Y-97332800D03*
%TO.P,J1,8*%
%TO.N,/COIL_C*%
X136499600Y-99872800D03*
%TO.P,J1,7*%
%TO.N,GND*%
X139039600Y-99872800D03*
%TO.P,J1,6*%
%TO.N,/COIL_B*%
X136499600Y-102412800D03*
%TO.P,J1,5*%
%TO.N,+5V*%
X139039600Y-102412800D03*
%TO.P,J1,4*%
%TO.N,Net-(J1-Pad4)*%
X136499600Y-104952800D03*
%TO.P,J1,3*%
%TO.N,/HALL_B_P*%
X139039600Y-104952800D03*
%TO.P,J1,2*%
%TO.N,/HALL_C_N*%
X136499600Y-107492800D03*
D11*
%TO.P,J1,1*%
%TO.N,/HALL_C_P*%
X139039600Y-107492800D03*
%TD*%
D12*
%TO.N,VCC*%
X155702000Y-105410000D03*
X153924000Y-107276810D03*
D13*
%TO.N,GND*%
X150000000Y-100700000D03*
X151100000Y-100700000D03*
X151100000Y-99400000D03*
X150000000Y-99400000D03*
X148900000Y-102000000D03*
X148900000Y-100700000D03*
X148900000Y-99400000D03*
D12*
X159708323Y-96909418D03*
X154432000Y-124460000D03*
X154432000Y-128270000D03*
X154432000Y-131826000D03*
X159170581Y-106750000D03*
D13*
X148900000Y-96800000D03*
X151100000Y-96800000D03*
X150000000Y-96800000D03*
X148900000Y-98100000D03*
X150000000Y-98100000D03*
X151100000Y-98100000D03*
X148900000Y-103300000D03*
X151100000Y-102000000D03*
X151100000Y-103300000D03*
X150000000Y-102000000D03*
X150000000Y-103300000D03*
D12*
%TO.N,/VCP*%
X143035590Y-105918000D03*
X147066000Y-106680000D03*
%TO.N,/PWM*%
X155600400Y-99532440D03*
X159969903Y-99581537D03*
%TO.N,/RD*%
X155549331Y-100531137D03*
X159973781Y-101005240D03*
%TO.N,/COIL_B*%
X140853160Y-108107480D03*
X143747758Y-107537518D03*
%TO.N,/HALL_C_P*%
X140579851Y-105273851D03*
%TO.N,/HALL_B_N*%
X144001094Y-98871790D03*
%TO.N,+5V*%
X150600000Y-119725000D03*
X150600000Y-116150000D03*
X150600000Y-112525000D03*
X150600000Y-108950000D03*
X149606000Y-122428000D03*
%TO.N,+3V3*%
X149418810Y-119826152D03*
%TO.N,Net-(JP1-Pad2)*%
X160580192Y-98709376D03*
X162793001Y-99314000D03*
%TO.N,Net-(JP3-Pad2)*%
X160145720Y-97808689D03*
X162793001Y-98044000D03*
%TD*%
D14*
%TO.N,VCC*%
X155702000Y-105410000D02*
X155702000Y-105498810D01*
X155702000Y-105498810D02*
X153924000Y-107276810D01*
D15*
%TO.N,/VCP*%
X143797590Y-106680000D02*
X147066000Y-106680000D01*
X143035590Y-105918000D02*
X143797590Y-106680000D01*
%TO.N,/PWM*%
X155600400Y-99532440D02*
X159920806Y-99532440D01*
X159920806Y-99532440D02*
X159969903Y-99581537D01*
%TO.N,/RD*%
X155549331Y-100531137D02*
X159499678Y-100531137D01*
X159499678Y-100531137D02*
X159973781Y-101005240D01*
%TO.N,/COIL_B*%
X140853160Y-108107480D02*
X141259560Y-107701080D01*
X141259560Y-107701080D02*
X143584196Y-107701080D01*
X143584196Y-107701080D02*
X143747758Y-107537518D01*
%TO.N,/HALL_C_P*%
X140579851Y-105273851D02*
X139852400Y-106001302D01*
X139039600Y-106814102D02*
X139852400Y-106001302D01*
X139039600Y-107492800D02*
X139039600Y-106814102D01*
%TO.N,/HALL_B_N*%
X142462104Y-97332800D02*
X144001094Y-98871790D01*
X139039600Y-97332800D02*
X142462104Y-97332800D01*
D14*
%TO.N,+5V*%
X150600000Y-119725000D02*
X150600000Y-117450000D01*
X150600000Y-116150000D02*
X150600000Y-117450000D01*
X150600000Y-116150000D02*
X150600000Y-113575000D01*
X150600000Y-112525000D02*
X150600000Y-113575000D01*
X150600000Y-112525000D02*
X150600000Y-109725000D01*
X150600000Y-108950000D02*
X150600000Y-109725000D01*
X142198799Y-104860799D02*
X139750800Y-102412800D01*
X147076484Y-104860799D02*
X142198799Y-104860799D01*
X139750800Y-102412800D02*
X139039600Y-102412800D01*
X150600000Y-108950000D02*
X150600000Y-108384315D01*
X150600000Y-108384315D02*
X147076484Y-104860799D01*
X138612000Y-116150000D02*
X136499600Y-118262400D01*
X150600000Y-116150000D02*
X138612000Y-116150000D01*
D16*
X149606000Y-122428000D02*
X149606000Y-121412000D01*
X150600000Y-120418000D02*
X150600000Y-119725000D01*
X149606000Y-121412000D02*
X150600000Y-120418000D01*
D14*
%TO.N,+3V3*%
X137475848Y-119826152D02*
X136499600Y-120802400D01*
X149418810Y-119826152D02*
X137475848Y-119826152D01*
D15*
%TO.N,Net-(JP1-Pad2)*%
X160580192Y-98709376D02*
X162188377Y-98709376D01*
X162188377Y-98709376D02*
X162793001Y-99314000D01*
%TO.N,Net-(JP3-Pad2)*%
X160145720Y-97808689D02*
X162557690Y-97808689D01*
X162557690Y-97808689D02*
X162793001Y-98044000D01*
%TD*%
D17*
%TO.N,GND*%
G36*
X171340001Y-105282419D02*
G01*
X171342818Y-105311018D01*
X171342753Y-105320288D01*
X171343652Y-105329460D01*
X171374252Y-105620605D01*
X171386283Y-105679217D01*
X171397489Y-105737963D01*
X171400153Y-105746784D01*
X171486721Y-106026440D01*
X171509899Y-106081578D01*
X171532311Y-106137050D01*
X171536638Y-106145186D01*
X171675877Y-106402702D01*
X171709304Y-106452259D01*
X171742080Y-106502347D01*
X171747905Y-106509488D01*
X171873000Y-106660703D01*
X171873000Y-116838663D01*
X171739155Y-117002773D01*
X171706055Y-117052592D01*
X171672256Y-117101955D01*
X171667873Y-117110061D01*
X171530436Y-117368542D01*
X171507645Y-117423836D01*
X171484075Y-117478829D01*
X171481350Y-117487632D01*
X171396736Y-117767886D01*
X171385116Y-117826571D01*
X171372680Y-117885079D01*
X171371717Y-117894244D01*
X171343150Y-118185596D01*
X171340000Y-118217582D01*
X171340001Y-134840000D01*
X131660000Y-134840000D01*
X131660000Y-130112400D01*
X135011528Y-130112400D01*
X135011528Y-131812400D01*
X135023788Y-131936882D01*
X135060098Y-132056580D01*
X135119063Y-132166894D01*
X135198415Y-132263585D01*
X135295106Y-132342937D01*
X135405420Y-132401902D01*
X135525118Y-132438212D01*
X135649600Y-132450472D01*
X137349600Y-132450472D01*
X137474082Y-132438212D01*
X137593780Y-132401902D01*
X137704094Y-132342937D01*
X137800785Y-132263585D01*
X137880137Y-132166894D01*
X137939102Y-132056580D01*
X137975412Y-131936882D01*
X137987672Y-131812400D01*
X137987672Y-130112400D01*
X137975412Y-129987918D01*
X137939102Y-129868220D01*
X137880137Y-129757906D01*
X137800785Y-129661215D01*
X137704094Y-129581863D01*
X137593780Y-129522898D01*
X137521220Y-129500887D01*
X137653075Y-129369032D01*
X137815590Y-129125811D01*
X137927532Y-128855558D01*
X137984600Y-128568660D01*
X137984600Y-128276140D01*
X137927532Y-127989242D01*
X137815590Y-127718989D01*
X137653075Y-127475768D01*
X137446232Y-127268925D01*
X137271840Y-127152400D01*
X137446232Y-127035875D01*
X137653075Y-126829032D01*
X137815590Y-126585811D01*
X137927532Y-126315558D01*
X137984600Y-126028660D01*
X137984600Y-125736140D01*
X137927532Y-125449242D01*
X137815590Y-125178989D01*
X137653075Y-124935768D01*
X137446232Y-124728925D01*
X137271840Y-124612400D01*
X137446232Y-124495875D01*
X137653075Y-124289032D01*
X137815590Y-124045811D01*
X137927532Y-123775558D01*
X137984600Y-123488660D01*
X137984600Y-123196140D01*
X137927532Y-122909242D01*
X137815590Y-122638989D01*
X137653075Y-122395768D01*
X137446232Y-122188925D01*
X137271840Y-122072400D01*
X137446232Y-121955875D01*
X137653075Y-121749032D01*
X137815590Y-121505811D01*
X137927532Y-121235558D01*
X137984600Y-120948660D01*
X137984600Y-120918352D01*
X148573827Y-120918352D01*
X148544897Y-120972477D01*
X148479539Y-121187933D01*
X148463000Y-121355854D01*
X148463000Y-121355861D01*
X148457471Y-121412000D01*
X148463000Y-121468139D01*
X148463000Y-122484145D01*
X148479539Y-122652066D01*
X148544897Y-122867522D01*
X148651032Y-123066088D01*
X148793867Y-123240133D01*
X148967911Y-123382968D01*
X149166477Y-123489103D01*
X149381933Y-123554461D01*
X149606000Y-123576530D01*
X149830066Y-123554461D01*
X150045522Y-123489103D01*
X150244088Y-123382968D01*
X150418133Y-123240133D01*
X150560968Y-123066089D01*
X150667103Y-122867523D01*
X150732461Y-122652067D01*
X150749000Y-122484146D01*
X150749000Y-121885446D01*
X151368529Y-121265918D01*
X151412133Y-121230133D01*
X151447918Y-121186529D01*
X151447924Y-121186523D01*
X151554967Y-121056090D01*
X151554968Y-121056089D01*
X151661103Y-120857523D01*
X151726461Y-120642067D01*
X151743000Y-120474146D01*
X151743000Y-120474140D01*
X151748529Y-120418001D01*
X151743000Y-120361862D01*
X151743000Y-119668855D01*
X151726461Y-119500934D01*
X151692200Y-119387990D01*
X151692200Y-116203648D01*
X151697484Y-116150000D01*
X151692200Y-116096351D01*
X151692200Y-108437956D01*
X151697483Y-108384314D01*
X151692200Y-108330673D01*
X151692200Y-108330667D01*
X151676396Y-108170207D01*
X151676396Y-108170205D01*
X151647324Y-108074371D01*
X151613943Y-107964327D01*
X151512525Y-107774586D01*
X151430982Y-107675226D01*
X151410237Y-107649948D01*
X151410235Y-107649946D01*
X151376038Y-107608277D01*
X151334369Y-107574080D01*
X151037099Y-107276810D01*
X152826517Y-107276810D01*
X152847604Y-107490919D01*
X152910057Y-107696798D01*
X153011476Y-107886538D01*
X153147962Y-108052848D01*
X153314272Y-108189334D01*
X153504012Y-108290753D01*
X153709891Y-108353206D01*
X153924000Y-108374293D01*
X154138109Y-108353206D01*
X154343988Y-108290753D01*
X154533728Y-108189334D01*
X154658366Y-108087047D01*
X156436369Y-106309045D01*
X156478038Y-106274848D01*
X156529561Y-106212068D01*
X156614525Y-106108539D01*
X156715943Y-105918799D01*
X156778396Y-105712919D01*
X156782811Y-105668089D01*
X156794200Y-105552458D01*
X156794200Y-105552451D01*
X156799483Y-105498810D01*
X156794200Y-105445169D01*
X156794200Y-105356351D01*
X156778396Y-105195891D01*
X156715943Y-104990011D01*
X156614525Y-104800271D01*
X156478038Y-104633962D01*
X156311729Y-104497475D01*
X156121988Y-104396057D01*
X155916108Y-104333604D01*
X155702000Y-104312516D01*
X155487891Y-104333604D01*
X155282011Y-104396057D01*
X155092271Y-104497475D01*
X154925962Y-104633962D01*
X154789475Y-104800271D01*
X154713161Y-104943045D01*
X153113763Y-106542444D01*
X153011476Y-106667082D01*
X152910057Y-106856822D01*
X152847604Y-107062701D01*
X152826517Y-107276810D01*
X151037099Y-107276810D01*
X147886724Y-104126436D01*
X147852522Y-104084761D01*
X147686213Y-103948274D01*
X147496473Y-103846856D01*
X147290593Y-103784403D01*
X147130133Y-103768599D01*
X147130125Y-103768599D01*
X147076484Y-103763316D01*
X147022843Y-103768599D01*
X142651203Y-103768599D01*
X140561040Y-101678437D01*
X140526838Y-101636762D01*
X140360529Y-101500275D01*
X140170789Y-101398857D01*
X140106159Y-101379252D01*
X139986232Y-101259325D01*
X139804066Y-101137605D01*
X139920955Y-101067978D01*
X140137188Y-100873069D01*
X140311241Y-100639720D01*
X140411514Y-100429198D01*
X154514331Y-100429198D01*
X154514331Y-100633076D01*
X154554105Y-100833035D01*
X154632126Y-101021393D01*
X154745394Y-101190911D01*
X154889557Y-101335074D01*
X155059075Y-101448342D01*
X155247433Y-101526363D01*
X155447392Y-101566137D01*
X155651270Y-101566137D01*
X155851229Y-101526363D01*
X156039587Y-101448342D01*
X156157827Y-101369337D01*
X159004319Y-101369337D01*
X159056576Y-101495496D01*
X159169844Y-101665014D01*
X159314007Y-101809177D01*
X159483525Y-101922445D01*
X159671883Y-102000466D01*
X159871842Y-102040240D01*
X160075720Y-102040240D01*
X160275679Y-102000466D01*
X160464037Y-101922445D01*
X160633555Y-101809177D01*
X160777718Y-101665014D01*
X160890986Y-101495496D01*
X160969007Y-101307138D01*
X161008781Y-101107179D01*
X161008781Y-100903301D01*
X160969007Y-100703342D01*
X160890986Y-100514984D01*
X160777718Y-100345466D01*
X160723702Y-100291450D01*
X160773840Y-100241311D01*
X160887108Y-100071793D01*
X160965129Y-99883435D01*
X161004903Y-99683476D01*
X161004903Y-99653731D01*
X161070448Y-99626581D01*
X161188688Y-99547576D01*
X161784185Y-99547576D01*
X161797775Y-99615898D01*
X161875796Y-99804256D01*
X161989064Y-99973774D01*
X162133227Y-100117937D01*
X162302745Y-100231205D01*
X162491103Y-100309226D01*
X162691062Y-100349000D01*
X162894940Y-100349000D01*
X163094899Y-100309226D01*
X163283257Y-100231205D01*
X163452775Y-100117937D01*
X163596938Y-99973774D01*
X163710206Y-99804256D01*
X163788227Y-99615898D01*
X163828001Y-99415939D01*
X163828001Y-99212061D01*
X163788227Y-99012102D01*
X163710206Y-98823744D01*
X163613491Y-98679000D01*
X163710206Y-98534256D01*
X163788227Y-98345898D01*
X163828001Y-98145939D01*
X163828001Y-97942061D01*
X163788227Y-97742102D01*
X163710206Y-97553744D01*
X163596938Y-97384226D01*
X163452775Y-97240063D01*
X163283257Y-97126795D01*
X163094899Y-97048774D01*
X162894940Y-97009000D01*
X162808976Y-97009000D01*
X162722006Y-96982618D01*
X162598860Y-96970489D01*
X162598853Y-96970489D01*
X162557690Y-96966435D01*
X162516527Y-96970489D01*
X160754216Y-96970489D01*
X160635976Y-96891484D01*
X160447618Y-96813463D01*
X160247659Y-96773689D01*
X160043781Y-96773689D01*
X159843822Y-96813463D01*
X159655464Y-96891484D01*
X159485946Y-97004752D01*
X159341783Y-97148915D01*
X159228515Y-97318433D01*
X159150494Y-97506791D01*
X159110720Y-97706750D01*
X159110720Y-97910628D01*
X159150494Y-98110587D01*
X159228515Y-98298945D01*
X159341783Y-98468463D01*
X159485946Y-98612626D01*
X159531306Y-98642934D01*
X159479647Y-98664332D01*
X159434886Y-98694240D01*
X156208896Y-98694240D01*
X156090656Y-98615235D01*
X155902298Y-98537214D01*
X155702339Y-98497440D01*
X155498461Y-98497440D01*
X155298502Y-98537214D01*
X155110144Y-98615235D01*
X154940626Y-98728503D01*
X154796463Y-98872666D01*
X154683195Y-99042184D01*
X154605174Y-99230542D01*
X154565400Y-99430501D01*
X154565400Y-99634379D01*
X154605174Y-99834338D01*
X154668302Y-99986740D01*
X154632126Y-100040881D01*
X154554105Y-100229239D01*
X154514331Y-100429198D01*
X140411514Y-100429198D01*
X140436425Y-100376899D01*
X140481076Y-100229690D01*
X140359755Y-99999800D01*
X139166600Y-99999800D01*
X139166600Y-100019800D01*
X138912600Y-100019800D01*
X138912600Y-99999800D01*
X138892600Y-99999800D01*
X138892600Y-99745800D01*
X138912600Y-99745800D01*
X138912600Y-99725800D01*
X139166600Y-99725800D01*
X139166600Y-99745800D01*
X140359755Y-99745800D01*
X140481076Y-99515910D01*
X140436425Y-99368701D01*
X140311241Y-99105880D01*
X140137188Y-98872531D01*
X139920955Y-98677622D01*
X139804066Y-98607995D01*
X139986232Y-98486275D01*
X140193075Y-98279432D01*
X140265527Y-98171000D01*
X142114911Y-98171000D01*
X142978125Y-99034214D01*
X143005868Y-99173688D01*
X143083889Y-99362046D01*
X143197157Y-99531564D01*
X143341320Y-99675727D01*
X143510838Y-99788995D01*
X143699196Y-99867016D01*
X143899155Y-99906790D01*
X144103033Y-99906790D01*
X144302992Y-99867016D01*
X144491350Y-99788995D01*
X144660868Y-99675727D01*
X144805031Y-99531564D01*
X144918299Y-99362046D01*
X144996320Y-99173688D01*
X145036094Y-98973729D01*
X145036094Y-98769851D01*
X144996320Y-98569892D01*
X144918299Y-98381534D01*
X144805031Y-98212016D01*
X144660868Y-98067853D01*
X144491350Y-97954585D01*
X144302992Y-97876564D01*
X144163518Y-97848821D01*
X143083915Y-96769218D01*
X143057668Y-96737236D01*
X142930036Y-96632491D01*
X142784421Y-96554658D01*
X142626420Y-96506729D01*
X142503274Y-96494600D01*
X142503267Y-96494600D01*
X142462104Y-96490546D01*
X142420941Y-96494600D01*
X140265527Y-96494600D01*
X140193075Y-96386168D01*
X139986232Y-96179325D01*
X139811840Y-96062800D01*
X139986232Y-95946275D01*
X140193075Y-95739432D01*
X140355590Y-95496211D01*
X140467532Y-95225958D01*
X140524600Y-94939060D01*
X140524600Y-94646540D01*
X140467532Y-94359642D01*
X140355590Y-94089389D01*
X140193075Y-93846168D01*
X139986232Y-93639325D01*
X139811840Y-93522800D01*
X139986232Y-93406275D01*
X140193075Y-93199432D01*
X140355590Y-92956211D01*
X140467532Y-92685958D01*
X140524600Y-92399060D01*
X140524600Y-92106540D01*
X140467532Y-91819642D01*
X140355590Y-91549389D01*
X140193075Y-91306168D01*
X139986232Y-91099325D01*
X139743011Y-90936810D01*
X139472758Y-90824868D01*
X139185860Y-90767800D01*
X138893340Y-90767800D01*
X138606442Y-90824868D01*
X138336189Y-90936810D01*
X138092968Y-91099325D01*
X137886125Y-91306168D01*
X137769600Y-91480560D01*
X137653075Y-91306168D01*
X137446232Y-91099325D01*
X137203011Y-90936810D01*
X136932758Y-90824868D01*
X136645860Y-90767800D01*
X136353340Y-90767800D01*
X136066442Y-90824868D01*
X135796189Y-90936810D01*
X135552968Y-91099325D01*
X135346125Y-91306168D01*
X135183610Y-91549389D01*
X135071668Y-91819642D01*
X135014600Y-92106540D01*
X135014600Y-92399060D01*
X135071668Y-92685958D01*
X135183610Y-92956211D01*
X135346125Y-93199432D01*
X135552968Y-93406275D01*
X135727360Y-93522800D01*
X135552968Y-93639325D01*
X135346125Y-93846168D01*
X135183610Y-94089389D01*
X135071668Y-94359642D01*
X135014600Y-94646540D01*
X135014600Y-94939060D01*
X135071668Y-95225958D01*
X135183610Y-95496211D01*
X135346125Y-95739432D01*
X135552968Y-95946275D01*
X135727360Y-96062800D01*
X135552968Y-96179325D01*
X135346125Y-96386168D01*
X135183610Y-96629389D01*
X135071668Y-96899642D01*
X135014600Y-97186540D01*
X135014600Y-97479060D01*
X135071668Y-97765958D01*
X135183610Y-98036211D01*
X135346125Y-98279432D01*
X135552968Y-98486275D01*
X135727360Y-98602800D01*
X135552968Y-98719325D01*
X135346125Y-98926168D01*
X135183610Y-99169389D01*
X135071668Y-99439642D01*
X135014600Y-99726540D01*
X135014600Y-100019060D01*
X135071668Y-100305958D01*
X135183610Y-100576211D01*
X135346125Y-100819432D01*
X135552968Y-101026275D01*
X135727360Y-101142800D01*
X135552968Y-101259325D01*
X135346125Y-101466168D01*
X135183610Y-101709389D01*
X135071668Y-101979642D01*
X135014600Y-102266540D01*
X135014600Y-102559060D01*
X135071668Y-102845958D01*
X135183610Y-103116211D01*
X135346125Y-103359432D01*
X135552968Y-103566275D01*
X135727360Y-103682800D01*
X135552968Y-103799325D01*
X135346125Y-104006168D01*
X135183610Y-104249389D01*
X135071668Y-104519642D01*
X135014600Y-104806540D01*
X135014600Y-105099060D01*
X135071668Y-105385958D01*
X135183610Y-105656211D01*
X135346125Y-105899432D01*
X135552968Y-106106275D01*
X135727360Y-106222800D01*
X135552968Y-106339325D01*
X135346125Y-106546168D01*
X135183610Y-106789389D01*
X135071668Y-107059642D01*
X135014600Y-107346540D01*
X135014600Y-107639060D01*
X135071668Y-107925958D01*
X135183610Y-108196211D01*
X135346125Y-108439432D01*
X135552968Y-108646275D01*
X135796189Y-108808790D01*
X136066442Y-108920732D01*
X136353340Y-108977800D01*
X136645860Y-108977800D01*
X136932758Y-108920732D01*
X137203011Y-108808790D01*
X137446232Y-108646275D01*
X137578087Y-108514420D01*
X137600098Y-108586980D01*
X137659063Y-108697294D01*
X137738415Y-108793985D01*
X137835106Y-108873337D01*
X137945420Y-108932302D01*
X138065118Y-108968612D01*
X138189600Y-108980872D01*
X139889600Y-108980872D01*
X140014082Y-108968612D01*
X140133780Y-108932302D01*
X140186234Y-108904265D01*
X140193386Y-108911417D01*
X140362904Y-109024685D01*
X140551262Y-109102706D01*
X140751221Y-109142480D01*
X140955099Y-109142480D01*
X141155058Y-109102706D01*
X141343416Y-109024685D01*
X141512934Y-108911417D01*
X141657097Y-108767254D01*
X141770365Y-108597736D01*
X141794578Y-108539280D01*
X143478719Y-108539280D01*
X143645819Y-108572518D01*
X143849697Y-108572518D01*
X144049656Y-108532744D01*
X144238014Y-108454723D01*
X144407532Y-108341455D01*
X144551695Y-108197292D01*
X144664963Y-108027774D01*
X144742984Y-107839416D01*
X144782758Y-107639457D01*
X144782758Y-107518200D01*
X146457504Y-107518200D01*
X146575744Y-107597205D01*
X146764102Y-107675226D01*
X146964061Y-107715000D01*
X147167939Y-107715000D01*
X147367898Y-107675226D01*
X147556256Y-107597205D01*
X147725774Y-107483937D01*
X147869937Y-107339774D01*
X147926381Y-107255299D01*
X149507800Y-108836719D01*
X149507800Y-109778649D01*
X149507801Y-109778659D01*
X149507800Y-112471351D01*
X149507800Y-113628649D01*
X149507801Y-113628659D01*
X149507800Y-115057800D01*
X138665641Y-115057800D01*
X138612000Y-115052517D01*
X138558359Y-115057800D01*
X138558351Y-115057800D01*
X138397891Y-115073604D01*
X138192011Y-115136057D01*
X138002271Y-115237475D01*
X137929168Y-115297469D01*
X137927532Y-115289242D01*
X137815590Y-115018989D01*
X137653075Y-114775768D01*
X137446232Y-114568925D01*
X137264066Y-114447205D01*
X137380955Y-114377578D01*
X137597188Y-114182669D01*
X137771241Y-113949320D01*
X137896425Y-113686499D01*
X137941076Y-113539290D01*
X137819755Y-113309400D01*
X136626600Y-113309400D01*
X136626600Y-113329400D01*
X136372600Y-113329400D01*
X136372600Y-113309400D01*
X135179445Y-113309400D01*
X135058124Y-113539290D01*
X135102775Y-113686499D01*
X135227959Y-113949320D01*
X135402012Y-114182669D01*
X135618245Y-114377578D01*
X135735134Y-114447205D01*
X135552968Y-114568925D01*
X135346125Y-114775768D01*
X135183610Y-115018989D01*
X135071668Y-115289242D01*
X135014600Y-115576140D01*
X135014600Y-115868660D01*
X135071668Y-116155558D01*
X135183610Y-116425811D01*
X135346125Y-116669032D01*
X135552968Y-116875875D01*
X135727360Y-116992400D01*
X135552968Y-117108925D01*
X135346125Y-117315768D01*
X135183610Y-117558989D01*
X135071668Y-117829242D01*
X135014600Y-118116140D01*
X135014600Y-118408660D01*
X135071668Y-118695558D01*
X135183610Y-118965811D01*
X135346125Y-119209032D01*
X135552968Y-119415875D01*
X135727360Y-119532400D01*
X135552968Y-119648925D01*
X135346125Y-119855768D01*
X135183610Y-120098989D01*
X135071668Y-120369242D01*
X135014600Y-120656140D01*
X135014600Y-120948660D01*
X135071668Y-121235558D01*
X135183610Y-121505811D01*
X135346125Y-121749032D01*
X135552968Y-121955875D01*
X135727360Y-122072400D01*
X135552968Y-122188925D01*
X135346125Y-122395768D01*
X135183610Y-122638989D01*
X135071668Y-122909242D01*
X135014600Y-123196140D01*
X135014600Y-123488660D01*
X135071668Y-123775558D01*
X135183610Y-124045811D01*
X135346125Y-124289032D01*
X135552968Y-124495875D01*
X135727360Y-124612400D01*
X135552968Y-124728925D01*
X135346125Y-124935768D01*
X135183610Y-125178989D01*
X135071668Y-125449242D01*
X135014600Y-125736140D01*
X135014600Y-126028660D01*
X135071668Y-126315558D01*
X135183610Y-126585811D01*
X135346125Y-126829032D01*
X135552968Y-127035875D01*
X135727360Y-127152400D01*
X135552968Y-127268925D01*
X135346125Y-127475768D01*
X135183610Y-127718989D01*
X135071668Y-127989242D01*
X135014600Y-128276140D01*
X135014600Y-128568660D01*
X135071668Y-128855558D01*
X135183610Y-129125811D01*
X135346125Y-129369032D01*
X135477980Y-129500887D01*
X135405420Y-129522898D01*
X135295106Y-129581863D01*
X135198415Y-129661215D01*
X135119063Y-129757906D01*
X135060098Y-129868220D01*
X135023788Y-129987918D01*
X135011528Y-130112400D01*
X131660000Y-130112400D01*
X131660000Y-112825510D01*
X135058124Y-112825510D01*
X135179445Y-113055400D01*
X136372600Y-113055400D01*
X136372600Y-111861586D01*
X136626600Y-111861586D01*
X136626600Y-113055400D01*
X137819755Y-113055400D01*
X137941076Y-112825510D01*
X137896425Y-112678301D01*
X137771241Y-112415480D01*
X137597188Y-112182131D01*
X137380955Y-111987222D01*
X137130852Y-111838243D01*
X136856491Y-111740919D01*
X136626600Y-111861586D01*
X136372600Y-111861586D01*
X136142709Y-111740919D01*
X135868348Y-111838243D01*
X135618245Y-111987222D01*
X135402012Y-112182131D01*
X135227959Y-112415480D01*
X135102775Y-112678301D01*
X135058124Y-112825510D01*
X131660000Y-112825510D01*
X131660000Y-88660000D01*
X171340000Y-88660000D01*
X171340001Y-105282419D01*
G37*
X171340001Y-105282419D02*
X171342818Y-105311018D01*
X171342753Y-105320288D01*
X171343652Y-105329460D01*
X171374252Y-105620605D01*
X171386283Y-105679217D01*
X171397489Y-105737963D01*
X171400153Y-105746784D01*
X171486721Y-106026440D01*
X171509899Y-106081578D01*
X171532311Y-106137050D01*
X171536638Y-106145186D01*
X171675877Y-106402702D01*
X171709304Y-106452259D01*
X171742080Y-106502347D01*
X171747905Y-106509488D01*
X171873000Y-106660703D01*
X171873000Y-116838663D01*
X171739155Y-117002773D01*
X171706055Y-117052592D01*
X171672256Y-117101955D01*
X171667873Y-117110061D01*
X171530436Y-117368542D01*
X171507645Y-117423836D01*
X171484075Y-117478829D01*
X171481350Y-117487632D01*
X171396736Y-117767886D01*
X171385116Y-117826571D01*
X171372680Y-117885079D01*
X171371717Y-117894244D01*
X171343150Y-118185596D01*
X171340000Y-118217582D01*
X171340001Y-134840000D01*
X131660000Y-134840000D01*
X131660000Y-130112400D01*
X135011528Y-130112400D01*
X135011528Y-131812400D01*
X135023788Y-131936882D01*
X135060098Y-132056580D01*
X135119063Y-132166894D01*
X135198415Y-132263585D01*
X135295106Y-132342937D01*
X135405420Y-132401902D01*
X135525118Y-132438212D01*
X135649600Y-132450472D01*
X137349600Y-132450472D01*
X137474082Y-132438212D01*
X137593780Y-132401902D01*
X137704094Y-132342937D01*
X137800785Y-132263585D01*
X137880137Y-132166894D01*
X137939102Y-132056580D01*
X137975412Y-131936882D01*
X137987672Y-131812400D01*
X137987672Y-130112400D01*
X137975412Y-129987918D01*
X137939102Y-129868220D01*
X137880137Y-129757906D01*
X137800785Y-129661215D01*
X137704094Y-129581863D01*
X137593780Y-129522898D01*
X137521220Y-129500887D01*
X137653075Y-129369032D01*
X137815590Y-129125811D01*
X137927532Y-128855558D01*
X137984600Y-128568660D01*
X137984600Y-128276140D01*
X137927532Y-127989242D01*
X137815590Y-127718989D01*
X137653075Y-127475768D01*
X137446232Y-127268925D01*
X137271840Y-127152400D01*
X137446232Y-127035875D01*
X137653075Y-126829032D01*
X137815590Y-126585811D01*
X137927532Y-126315558D01*
X137984600Y-126028660D01*
X137984600Y-125736140D01*
X137927532Y-125449242D01*
X137815590Y-125178989D01*
X137653075Y-124935768D01*
X137446232Y-124728925D01*
X137271840Y-124612400D01*
X137446232Y-124495875D01*
X137653075Y-124289032D01*
X137815590Y-124045811D01*
X137927532Y-123775558D01*
X137984600Y-123488660D01*
X137984600Y-123196140D01*
X137927532Y-122909242D01*
X137815590Y-122638989D01*
X137653075Y-122395768D01*
X137446232Y-122188925D01*
X137271840Y-122072400D01*
X137446232Y-121955875D01*
X137653075Y-121749032D01*
X137815590Y-121505811D01*
X137927532Y-121235558D01*
X137984600Y-120948660D01*
X137984600Y-120918352D01*
X148573827Y-120918352D01*
X148544897Y-120972477D01*
X148479539Y-121187933D01*
X148463000Y-121355854D01*
X148463000Y-121355861D01*
X148457471Y-121412000D01*
X148463000Y-121468139D01*
X148463000Y-122484145D01*
X148479539Y-122652066D01*
X148544897Y-122867522D01*
X148651032Y-123066088D01*
X148793867Y-123240133D01*
X148967911Y-123382968D01*
X149166477Y-123489103D01*
X149381933Y-123554461D01*
X149606000Y-123576530D01*
X149830066Y-123554461D01*
X150045522Y-123489103D01*
X150244088Y-123382968D01*
X150418133Y-123240133D01*
X150560968Y-123066089D01*
X150667103Y-122867523D01*
X150732461Y-122652067D01*
X150749000Y-122484146D01*
X150749000Y-121885446D01*
X151368529Y-121265918D01*
X151412133Y-121230133D01*
X151447918Y-121186529D01*
X151447924Y-121186523D01*
X151554967Y-121056090D01*
X151554968Y-121056089D01*
X151661103Y-120857523D01*
X151726461Y-120642067D01*
X151743000Y-120474146D01*
X151743000Y-120474140D01*
X151748529Y-120418001D01*
X151743000Y-120361862D01*
X151743000Y-119668855D01*
X151726461Y-119500934D01*
X151692200Y-119387990D01*
X151692200Y-116203648D01*
X151697484Y-116150000D01*
X151692200Y-116096351D01*
X151692200Y-108437956D01*
X151697483Y-108384314D01*
X151692200Y-108330673D01*
X151692200Y-108330667D01*
X151676396Y-108170207D01*
X151676396Y-108170205D01*
X151647324Y-108074371D01*
X151613943Y-107964327D01*
X151512525Y-107774586D01*
X151430982Y-107675226D01*
X151410237Y-107649948D01*
X151410235Y-107649946D01*
X151376038Y-107608277D01*
X151334369Y-107574080D01*
X151037099Y-107276810D01*
X152826517Y-107276810D01*
X152847604Y-107490919D01*
X152910057Y-107696798D01*
X153011476Y-107886538D01*
X153147962Y-108052848D01*
X153314272Y-108189334D01*
X153504012Y-108290753D01*
X153709891Y-108353206D01*
X153924000Y-108374293D01*
X154138109Y-108353206D01*
X154343988Y-108290753D01*
X154533728Y-108189334D01*
X154658366Y-108087047D01*
X156436369Y-106309045D01*
X156478038Y-106274848D01*
X156529561Y-106212068D01*
X156614525Y-106108539D01*
X156715943Y-105918799D01*
X156778396Y-105712919D01*
X156782811Y-105668089D01*
X156794200Y-105552458D01*
X156794200Y-105552451D01*
X156799483Y-105498810D01*
X156794200Y-105445169D01*
X156794200Y-105356351D01*
X156778396Y-105195891D01*
X156715943Y-104990011D01*
X156614525Y-104800271D01*
X156478038Y-104633962D01*
X156311729Y-104497475D01*
X156121988Y-104396057D01*
X155916108Y-104333604D01*
X155702000Y-104312516D01*
X155487891Y-104333604D01*
X155282011Y-104396057D01*
X155092271Y-104497475D01*
X154925962Y-104633962D01*
X154789475Y-104800271D01*
X154713161Y-104943045D01*
X153113763Y-106542444D01*
X153011476Y-106667082D01*
X152910057Y-106856822D01*
X152847604Y-107062701D01*
X152826517Y-107276810D01*
X151037099Y-107276810D01*
X147886724Y-104126436D01*
X147852522Y-104084761D01*
X147686213Y-103948274D01*
X147496473Y-103846856D01*
X147290593Y-103784403D01*
X147130133Y-103768599D01*
X147130125Y-103768599D01*
X147076484Y-103763316D01*
X147022843Y-103768599D01*
X142651203Y-103768599D01*
X140561040Y-101678437D01*
X140526838Y-101636762D01*
X140360529Y-101500275D01*
X140170789Y-101398857D01*
X140106159Y-101379252D01*
X139986232Y-101259325D01*
X139804066Y-101137605D01*
X139920955Y-101067978D01*
X140137188Y-100873069D01*
X140311241Y-100639720D01*
X140411514Y-100429198D01*
X154514331Y-100429198D01*
X154514331Y-100633076D01*
X154554105Y-100833035D01*
X154632126Y-101021393D01*
X154745394Y-101190911D01*
X154889557Y-101335074D01*
X155059075Y-101448342D01*
X155247433Y-101526363D01*
X155447392Y-101566137D01*
X155651270Y-101566137D01*
X155851229Y-101526363D01*
X156039587Y-101448342D01*
X156157827Y-101369337D01*
X159004319Y-101369337D01*
X159056576Y-101495496D01*
X159169844Y-101665014D01*
X159314007Y-101809177D01*
X159483525Y-101922445D01*
X159671883Y-102000466D01*
X159871842Y-102040240D01*
X160075720Y-102040240D01*
X160275679Y-102000466D01*
X160464037Y-101922445D01*
X160633555Y-101809177D01*
X160777718Y-101665014D01*
X160890986Y-101495496D01*
X160969007Y-101307138D01*
X161008781Y-101107179D01*
X161008781Y-100903301D01*
X160969007Y-100703342D01*
X160890986Y-100514984D01*
X160777718Y-100345466D01*
X160723702Y-100291450D01*
X160773840Y-100241311D01*
X160887108Y-100071793D01*
X160965129Y-99883435D01*
X161004903Y-99683476D01*
X161004903Y-99653731D01*
X161070448Y-99626581D01*
X161188688Y-99547576D01*
X161784185Y-99547576D01*
X161797775Y-99615898D01*
X161875796Y-99804256D01*
X161989064Y-99973774D01*
X162133227Y-100117937D01*
X162302745Y-100231205D01*
X162491103Y-100309226D01*
X162691062Y-100349000D01*
X162894940Y-100349000D01*
X163094899Y-100309226D01*
X163283257Y-100231205D01*
X163452775Y-100117937D01*
X163596938Y-99973774D01*
X163710206Y-99804256D01*
X163788227Y-99615898D01*
X163828001Y-99415939D01*
X163828001Y-99212061D01*
X163788227Y-99012102D01*
X163710206Y-98823744D01*
X163613491Y-98679000D01*
X163710206Y-98534256D01*
X163788227Y-98345898D01*
X163828001Y-98145939D01*
X163828001Y-97942061D01*
X163788227Y-97742102D01*
X163710206Y-97553744D01*
X163596938Y-97384226D01*
X163452775Y-97240063D01*
X163283257Y-97126795D01*
X163094899Y-97048774D01*
X162894940Y-97009000D01*
X162808976Y-97009000D01*
X162722006Y-96982618D01*
X162598860Y-96970489D01*
X162598853Y-96970489D01*
X162557690Y-96966435D01*
X162516527Y-96970489D01*
X160754216Y-96970489D01*
X160635976Y-96891484D01*
X160447618Y-96813463D01*
X160247659Y-96773689D01*
X160043781Y-96773689D01*
X159843822Y-96813463D01*
X159655464Y-96891484D01*
X159485946Y-97004752D01*
X159341783Y-97148915D01*
X159228515Y-97318433D01*
X159150494Y-97506791D01*
X159110720Y-97706750D01*
X159110720Y-97910628D01*
X159150494Y-98110587D01*
X159228515Y-98298945D01*
X159341783Y-98468463D01*
X159485946Y-98612626D01*
X159531306Y-98642934D01*
X159479647Y-98664332D01*
X159434886Y-98694240D01*
X156208896Y-98694240D01*
X156090656Y-98615235D01*
X155902298Y-98537214D01*
X155702339Y-98497440D01*
X155498461Y-98497440D01*
X155298502Y-98537214D01*
X155110144Y-98615235D01*
X154940626Y-98728503D01*
X154796463Y-98872666D01*
X154683195Y-99042184D01*
X154605174Y-99230542D01*
X154565400Y-99430501D01*
X154565400Y-99634379D01*
X154605174Y-99834338D01*
X154668302Y-99986740D01*
X154632126Y-100040881D01*
X154554105Y-100229239D01*
X154514331Y-100429198D01*
X140411514Y-100429198D01*
X140436425Y-100376899D01*
X140481076Y-100229690D01*
X140359755Y-99999800D01*
X139166600Y-99999800D01*
X139166600Y-100019800D01*
X138912600Y-100019800D01*
X138912600Y-99999800D01*
X138892600Y-99999800D01*
X138892600Y-99745800D01*
X138912600Y-99745800D01*
X138912600Y-99725800D01*
X139166600Y-99725800D01*
X139166600Y-99745800D01*
X140359755Y-99745800D01*
X140481076Y-99515910D01*
X140436425Y-99368701D01*
X140311241Y-99105880D01*
X140137188Y-98872531D01*
X139920955Y-98677622D01*
X139804066Y-98607995D01*
X139986232Y-98486275D01*
X140193075Y-98279432D01*
X140265527Y-98171000D01*
X142114911Y-98171000D01*
X142978125Y-99034214D01*
X143005868Y-99173688D01*
X143083889Y-99362046D01*
X143197157Y-99531564D01*
X143341320Y-99675727D01*
X143510838Y-99788995D01*
X143699196Y-99867016D01*
X143899155Y-99906790D01*
X144103033Y-99906790D01*
X144302992Y-99867016D01*
X144491350Y-99788995D01*
X144660868Y-99675727D01*
X144805031Y-99531564D01*
X144918299Y-99362046D01*
X144996320Y-99173688D01*
X145036094Y-98973729D01*
X145036094Y-98769851D01*
X144996320Y-98569892D01*
X144918299Y-98381534D01*
X144805031Y-98212016D01*
X144660868Y-98067853D01*
X144491350Y-97954585D01*
X144302992Y-97876564D01*
X144163518Y-97848821D01*
X143083915Y-96769218D01*
X143057668Y-96737236D01*
X142930036Y-96632491D01*
X142784421Y-96554658D01*
X142626420Y-96506729D01*
X142503274Y-96494600D01*
X142503267Y-96494600D01*
X142462104Y-96490546D01*
X142420941Y-96494600D01*
X140265527Y-96494600D01*
X140193075Y-96386168D01*
X139986232Y-96179325D01*
X139811840Y-96062800D01*
X139986232Y-95946275D01*
X140193075Y-95739432D01*
X140355590Y-95496211D01*
X140467532Y-95225958D01*
X140524600Y-94939060D01*
X140524600Y-94646540D01*
X140467532Y-94359642D01*
X140355590Y-94089389D01*
X140193075Y-93846168D01*
X139986232Y-93639325D01*
X139811840Y-93522800D01*
X139986232Y-93406275D01*
X140193075Y-93199432D01*
X140355590Y-92956211D01*
X140467532Y-92685958D01*
X140524600Y-92399060D01*
X140524600Y-92106540D01*
X140467532Y-91819642D01*
X140355590Y-91549389D01*
X140193075Y-91306168D01*
X139986232Y-91099325D01*
X139743011Y-90936810D01*
X139472758Y-90824868D01*
X139185860Y-90767800D01*
X138893340Y-90767800D01*
X138606442Y-90824868D01*
X138336189Y-90936810D01*
X138092968Y-91099325D01*
X137886125Y-91306168D01*
X137769600Y-91480560D01*
X137653075Y-91306168D01*
X137446232Y-91099325D01*
X137203011Y-90936810D01*
X136932758Y-90824868D01*
X136645860Y-90767800D01*
X136353340Y-90767800D01*
X136066442Y-90824868D01*
X135796189Y-90936810D01*
X135552968Y-91099325D01*
X135346125Y-91306168D01*
X135183610Y-91549389D01*
X135071668Y-91819642D01*
X135014600Y-92106540D01*
X135014600Y-92399060D01*
X135071668Y-92685958D01*
X135183610Y-92956211D01*
X135346125Y-93199432D01*
X135552968Y-93406275D01*
X135727360Y-93522800D01*
X135552968Y-93639325D01*
X135346125Y-93846168D01*
X135183610Y-94089389D01*
X135071668Y-94359642D01*
X135014600Y-94646540D01*
X135014600Y-94939060D01*
X135071668Y-95225958D01*
X135183610Y-95496211D01*
X135346125Y-95739432D01*
X135552968Y-95946275D01*
X135727360Y-96062800D01*
X135552968Y-96179325D01*
X135346125Y-96386168D01*
X135183610Y-96629389D01*
X135071668Y-96899642D01*
X135014600Y-97186540D01*
X135014600Y-97479060D01*
X135071668Y-97765958D01*
X135183610Y-98036211D01*
X135346125Y-98279432D01*
X135552968Y-98486275D01*
X135727360Y-98602800D01*
X135552968Y-98719325D01*
X135346125Y-98926168D01*
X135183610Y-99169389D01*
X135071668Y-99439642D01*
X135014600Y-99726540D01*
X135014600Y-100019060D01*
X135071668Y-100305958D01*
X135183610Y-100576211D01*
X135346125Y-100819432D01*
X135552968Y-101026275D01*
X135727360Y-101142800D01*
X135552968Y-101259325D01*
X135346125Y-101466168D01*
X135183610Y-101709389D01*
X135071668Y-101979642D01*
X135014600Y-102266540D01*
X135014600Y-102559060D01*
X135071668Y-102845958D01*
X135183610Y-103116211D01*
X135346125Y-103359432D01*
X135552968Y-103566275D01*
X135727360Y-103682800D01*
X135552968Y-103799325D01*
X135346125Y-104006168D01*
X135183610Y-104249389D01*
X135071668Y-104519642D01*
X135014600Y-104806540D01*
X135014600Y-105099060D01*
X135071668Y-105385958D01*
X135183610Y-105656211D01*
X135346125Y-105899432D01*
X135552968Y-106106275D01*
X135727360Y-106222800D01*
X135552968Y-106339325D01*
X135346125Y-106546168D01*
X135183610Y-106789389D01*
X135071668Y-107059642D01*
X135014600Y-107346540D01*
X135014600Y-107639060D01*
X135071668Y-107925958D01*
X135183610Y-108196211D01*
X135346125Y-108439432D01*
X135552968Y-108646275D01*
X135796189Y-108808790D01*
X136066442Y-108920732D01*
X136353340Y-108977800D01*
X136645860Y-108977800D01*
X136932758Y-108920732D01*
X137203011Y-108808790D01*
X137446232Y-108646275D01*
X137578087Y-108514420D01*
X137600098Y-108586980D01*
X137659063Y-108697294D01*
X137738415Y-108793985D01*
X137835106Y-108873337D01*
X137945420Y-108932302D01*
X138065118Y-108968612D01*
X138189600Y-108980872D01*
X139889600Y-108980872D01*
X140014082Y-108968612D01*
X140133780Y-108932302D01*
X140186234Y-108904265D01*
X140193386Y-108911417D01*
X140362904Y-109024685D01*
X140551262Y-109102706D01*
X140751221Y-109142480D01*
X140955099Y-109142480D01*
X141155058Y-109102706D01*
X141343416Y-109024685D01*
X141512934Y-108911417D01*
X141657097Y-108767254D01*
X141770365Y-108597736D01*
X141794578Y-108539280D01*
X143478719Y-108539280D01*
X143645819Y-108572518D01*
X143849697Y-108572518D01*
X144049656Y-108532744D01*
X144238014Y-108454723D01*
X144407532Y-108341455D01*
X144551695Y-108197292D01*
X144664963Y-108027774D01*
X144742984Y-107839416D01*
X144782758Y-107639457D01*
X144782758Y-107518200D01*
X146457504Y-107518200D01*
X146575744Y-107597205D01*
X146764102Y-107675226D01*
X146964061Y-107715000D01*
X147167939Y-107715000D01*
X147367898Y-107675226D01*
X147556256Y-107597205D01*
X147725774Y-107483937D01*
X147869937Y-107339774D01*
X147926381Y-107255299D01*
X149507800Y-108836719D01*
X149507800Y-109778649D01*
X149507801Y-109778659D01*
X149507800Y-112471351D01*
X149507800Y-113628649D01*
X149507801Y-113628659D01*
X149507800Y-115057800D01*
X138665641Y-115057800D01*
X138612000Y-115052517D01*
X138558359Y-115057800D01*
X138558351Y-115057800D01*
X138397891Y-115073604D01*
X138192011Y-115136057D01*
X138002271Y-115237475D01*
X137929168Y-115297469D01*
X137927532Y-115289242D01*
X137815590Y-115018989D01*
X137653075Y-114775768D01*
X137446232Y-114568925D01*
X137264066Y-114447205D01*
X137380955Y-114377578D01*
X137597188Y-114182669D01*
X137771241Y-113949320D01*
X137896425Y-113686499D01*
X137941076Y-113539290D01*
X137819755Y-113309400D01*
X136626600Y-113309400D01*
X136626600Y-113329400D01*
X136372600Y-113329400D01*
X136372600Y-113309400D01*
X135179445Y-113309400D01*
X135058124Y-113539290D01*
X135102775Y-113686499D01*
X135227959Y-113949320D01*
X135402012Y-114182669D01*
X135618245Y-114377578D01*
X135735134Y-114447205D01*
X135552968Y-114568925D01*
X135346125Y-114775768D01*
X135183610Y-115018989D01*
X135071668Y-115289242D01*
X135014600Y-115576140D01*
X135014600Y-115868660D01*
X135071668Y-116155558D01*
X135183610Y-116425811D01*
X135346125Y-116669032D01*
X135552968Y-116875875D01*
X135727360Y-116992400D01*
X135552968Y-117108925D01*
X135346125Y-117315768D01*
X135183610Y-117558989D01*
X135071668Y-117829242D01*
X135014600Y-118116140D01*
X135014600Y-118408660D01*
X135071668Y-118695558D01*
X135183610Y-118965811D01*
X135346125Y-119209032D01*
X135552968Y-119415875D01*
X135727360Y-119532400D01*
X135552968Y-119648925D01*
X135346125Y-119855768D01*
X135183610Y-120098989D01*
X135071668Y-120369242D01*
X135014600Y-120656140D01*
X135014600Y-120948660D01*
X135071668Y-121235558D01*
X135183610Y-121505811D01*
X135346125Y-121749032D01*
X135552968Y-121955875D01*
X135727360Y-122072400D01*
X135552968Y-122188925D01*
X135346125Y-122395768D01*
X135183610Y-122638989D01*
X135071668Y-122909242D01*
X135014600Y-123196140D01*
X135014600Y-123488660D01*
X135071668Y-123775558D01*
X135183610Y-124045811D01*
X135346125Y-124289032D01*
X135552968Y-124495875D01*
X135727360Y-124612400D01*
X135552968Y-124728925D01*
X135346125Y-124935768D01*
X135183610Y-125178989D01*
X135071668Y-125449242D01*
X135014600Y-125736140D01*
X135014600Y-126028660D01*
X135071668Y-126315558D01*
X135183610Y-126585811D01*
X135346125Y-126829032D01*
X135552968Y-127035875D01*
X135727360Y-127152400D01*
X135552968Y-127268925D01*
X135346125Y-127475768D01*
X135183610Y-127718989D01*
X135071668Y-127989242D01*
X135014600Y-128276140D01*
X135014600Y-128568660D01*
X135071668Y-128855558D01*
X135183610Y-129125811D01*
X135346125Y-129369032D01*
X135477980Y-129500887D01*
X135405420Y-129522898D01*
X135295106Y-129581863D01*
X135198415Y-129661215D01*
X135119063Y-129757906D01*
X135060098Y-129868220D01*
X135023788Y-129987918D01*
X135011528Y-130112400D01*
X131660000Y-130112400D01*
X131660000Y-112825510D01*
X135058124Y-112825510D01*
X135179445Y-113055400D01*
X136372600Y-113055400D01*
X136372600Y-111861586D01*
X136626600Y-111861586D01*
X136626600Y-113055400D01*
X137819755Y-113055400D01*
X137941076Y-112825510D01*
X137896425Y-112678301D01*
X137771241Y-112415480D01*
X137597188Y-112182131D01*
X137380955Y-111987222D01*
X137130852Y-111838243D01*
X136856491Y-111740919D01*
X136626600Y-111861586D01*
X136372600Y-111861586D01*
X136142709Y-111740919D01*
X135868348Y-111838243D01*
X135618245Y-111987222D01*
X135402012Y-112182131D01*
X135227959Y-112415480D01*
X135102775Y-112678301D01*
X135058124Y-112825510D01*
X131660000Y-112825510D01*
X131660000Y-88660000D01*
X171340000Y-88660000D01*
X171340001Y-105282419D01*
%TD*%
M02*
