%TF.GenerationSoftware,KiCad,Pcbnew,(5.1.6)-1*%
%TF.CreationDate,2020-08-11T11:23:43+09:00*%
%TF.ProjectId,BLDC_MD_DRV10970,424c4443-5f4d-4445-9f44-525631303937,rev?*%
%TF.SameCoordinates,Original*%
%TF.FileFunction,Soldermask,Top*%
%TF.FilePolarity,Negative*%
%FSLAX46Y46*%
G04 Gerber Fmt 4.6, Leading zero omitted, Abs format (unit mm)*
G04 Created by KiCad (PCBNEW (5.1.6)-1) date 2020-08-11 11:23:43*
%MOMM*%
%LPD*%
G01*
G04 APERTURE LIST*
%ADD10C,0.300000*%
%ADD11R,1.100000X0.800000*%
%ADD12C,0.100000*%
%ADD13R,1.500000X1.500000*%
%ADD14O,1.800000X1.800000*%
%ADD15R,1.800000X1.800000*%
%ADD16R,2.500000X3.380000*%
%ADD17R,1.600000X0.550000*%
G04 APERTURE END LIST*
D10*
X170877771Y-119078800D02*
X169377771Y-119078800D01*
X169377771Y-118721657D01*
X169449200Y-118507371D01*
X169592057Y-118364514D01*
X169734914Y-118293085D01*
X170020628Y-118221657D01*
X170234914Y-118221657D01*
X170520628Y-118293085D01*
X170663485Y-118364514D01*
X170806342Y-118507371D01*
X170877771Y-118721657D01*
X170877771Y-119078800D01*
X170806342Y-117007371D02*
X170877771Y-117150228D01*
X170877771Y-117435942D01*
X170806342Y-117578800D01*
X170663485Y-117650228D01*
X170092057Y-117650228D01*
X169949200Y-117578800D01*
X169877771Y-117435942D01*
X169877771Y-117150228D01*
X169949200Y-117007371D01*
X170092057Y-116935942D01*
X170234914Y-116935942D01*
X170377771Y-117650228D01*
X170806342Y-116364514D02*
X170877771Y-116221657D01*
X170877771Y-115935942D01*
X170806342Y-115793085D01*
X170663485Y-115721657D01*
X170592057Y-115721657D01*
X170449200Y-115793085D01*
X170377771Y-115935942D01*
X170377771Y-116150228D01*
X170306342Y-116293085D01*
X170163485Y-116364514D01*
X170092057Y-116364514D01*
X169949200Y-116293085D01*
X169877771Y-116150228D01*
X169877771Y-115935942D01*
X169949200Y-115793085D01*
X170877771Y-115078800D02*
X169877771Y-115078800D01*
X169377771Y-115078800D02*
X169449200Y-115150228D01*
X169520628Y-115078800D01*
X169449200Y-115007371D01*
X169377771Y-115078800D01*
X169520628Y-115078800D01*
X169877771Y-113721657D02*
X171092057Y-113721657D01*
X171234914Y-113793085D01*
X171306342Y-113864514D01*
X171377771Y-114007371D01*
X171377771Y-114221657D01*
X171306342Y-114364514D01*
X170806342Y-113721657D02*
X170877771Y-113864514D01*
X170877771Y-114150228D01*
X170806342Y-114293085D01*
X170734914Y-114364514D01*
X170592057Y-114435942D01*
X170163485Y-114435942D01*
X170020628Y-114364514D01*
X169949200Y-114293085D01*
X169877771Y-114150228D01*
X169877771Y-113864514D01*
X169949200Y-113721657D01*
X169877771Y-113007371D02*
X170877771Y-113007371D01*
X170020628Y-113007371D02*
X169949200Y-112935942D01*
X169877771Y-112793085D01*
X169877771Y-112578800D01*
X169949200Y-112435942D01*
X170092057Y-112364514D01*
X170877771Y-112364514D01*
X170806342Y-111078800D02*
X170877771Y-111221657D01*
X170877771Y-111507371D01*
X170806342Y-111650228D01*
X170663485Y-111721657D01*
X170092057Y-111721657D01*
X169949200Y-111650228D01*
X169877771Y-111507371D01*
X169877771Y-111221657D01*
X169949200Y-111078800D01*
X170092057Y-111007371D01*
X170234914Y-111007371D01*
X170377771Y-111721657D01*
X170877771Y-109721657D02*
X169377771Y-109721657D01*
X170806342Y-109721657D02*
X170877771Y-109864514D01*
X170877771Y-110150228D01*
X170806342Y-110293085D01*
X170734914Y-110364514D01*
X170592057Y-110435942D01*
X170163485Y-110435942D01*
X170020628Y-110364514D01*
X169949200Y-110293085D01*
X169877771Y-110150228D01*
X169877771Y-109864514D01*
X169949200Y-109721657D01*
X170092057Y-107364514D02*
X170163485Y-107150228D01*
X170234914Y-107078800D01*
X170377771Y-107007371D01*
X170592057Y-107007371D01*
X170734914Y-107078800D01*
X170806342Y-107150228D01*
X170877771Y-107293085D01*
X170877771Y-107864514D01*
X169377771Y-107864514D01*
X169377771Y-107364514D01*
X169449200Y-107221657D01*
X169520628Y-107150228D01*
X169663485Y-107078800D01*
X169806342Y-107078800D01*
X169949200Y-107150228D01*
X170020628Y-107221657D01*
X170092057Y-107364514D01*
X170092057Y-107864514D01*
X169877771Y-106507371D02*
X170877771Y-106150228D01*
X169877771Y-105793085D02*
X170877771Y-106150228D01*
X171234914Y-106293085D01*
X171306342Y-106364514D01*
X171377771Y-106507371D01*
X170806342Y-104150228D02*
X170877771Y-103935942D01*
X170877771Y-103578800D01*
X170806342Y-103435942D01*
X170734914Y-103364514D01*
X170592057Y-103293085D01*
X170449200Y-103293085D01*
X170306342Y-103364514D01*
X170234914Y-103435942D01*
X170163485Y-103578800D01*
X170092057Y-103864514D01*
X170020628Y-104007371D01*
X169949200Y-104078800D01*
X169806342Y-104150228D01*
X169663485Y-104150228D01*
X169520628Y-104078800D01*
X169449200Y-104007371D01*
X169377771Y-103864514D01*
X169377771Y-103507371D01*
X169449200Y-103293085D01*
X170877771Y-102435942D02*
X170806342Y-102578800D01*
X170734914Y-102650228D01*
X170592057Y-102721657D01*
X170163485Y-102721657D01*
X170020628Y-102650228D01*
X169949200Y-102578800D01*
X169877771Y-102435942D01*
X169877771Y-102221657D01*
X169949200Y-102078800D01*
X170020628Y-102007371D01*
X170163485Y-101935942D01*
X170592057Y-101935942D01*
X170734914Y-102007371D01*
X170806342Y-102078800D01*
X170877771Y-102221657D01*
X170877771Y-102435942D01*
X169877771Y-100650228D02*
X170877771Y-100650228D01*
X169877771Y-101293085D02*
X170663485Y-101293085D01*
X170806342Y-101221657D01*
X170877771Y-101078800D01*
X170877771Y-100864514D01*
X170806342Y-100721657D01*
X170734914Y-100650228D01*
X170877771Y-99721657D02*
X170806342Y-99864514D01*
X170663485Y-99935942D01*
X169377771Y-99935942D01*
X170877771Y-98507371D02*
X170092057Y-98507371D01*
X169949200Y-98578800D01*
X169877771Y-98721657D01*
X169877771Y-99007371D01*
X169949200Y-99150228D01*
X170806342Y-98507371D02*
X170877771Y-98650228D01*
X170877771Y-99007371D01*
X170806342Y-99150228D01*
X170663485Y-99221657D01*
X170520628Y-99221657D01*
X170377771Y-99150228D01*
X170306342Y-99007371D01*
X170306342Y-98650228D01*
X170234914Y-98507371D01*
X170806342Y-97864514D02*
X170877771Y-97650228D01*
X170877771Y-97293085D01*
X170806342Y-97150228D01*
X170734914Y-97078800D01*
X170592057Y-97007371D01*
X170449200Y-97007371D01*
X170306342Y-97078800D01*
X170234914Y-97150228D01*
X170163485Y-97293085D01*
X170092057Y-97578800D01*
X170020628Y-97721657D01*
X169949200Y-97793085D01*
X169806342Y-97864514D01*
X169663485Y-97864514D01*
X169520628Y-97793085D01*
X169449200Y-97721657D01*
X169377771Y-97578800D01*
X169377771Y-97221657D01*
X169449200Y-97007371D01*
X167892857Y-118607142D02*
X167964285Y-118392857D01*
X168035714Y-118321428D01*
X168178571Y-118250000D01*
X168392857Y-118250000D01*
X168535714Y-118321428D01*
X168607142Y-118392857D01*
X168678571Y-118535714D01*
X168678571Y-119107142D01*
X167178571Y-119107142D01*
X167178571Y-118607142D01*
X167250000Y-118464285D01*
X167321428Y-118392857D01*
X167464285Y-118321428D01*
X167607142Y-118321428D01*
X167750000Y-118392857D01*
X167821428Y-118464285D01*
X167892857Y-118607142D01*
X167892857Y-119107142D01*
X168678571Y-116892857D02*
X168678571Y-117607142D01*
X167178571Y-117607142D01*
X168678571Y-116392857D02*
X167178571Y-116392857D01*
X167178571Y-116035714D01*
X167250000Y-115821428D01*
X167392857Y-115678571D01*
X167535714Y-115607142D01*
X167821428Y-115535714D01*
X168035714Y-115535714D01*
X168321428Y-115607142D01*
X168464285Y-115678571D01*
X168607142Y-115821428D01*
X168678571Y-116035714D01*
X168678571Y-116392857D01*
X168535714Y-114035714D02*
X168607142Y-114107142D01*
X168678571Y-114321428D01*
X168678571Y-114464285D01*
X168607142Y-114678571D01*
X168464285Y-114821428D01*
X168321428Y-114892857D01*
X168035714Y-114964285D01*
X167821428Y-114964285D01*
X167535714Y-114892857D01*
X167392857Y-114821428D01*
X167250000Y-114678571D01*
X167178571Y-114464285D01*
X167178571Y-114321428D01*
X167250000Y-114107142D01*
X167321428Y-114035714D01*
X168678571Y-112250000D02*
X167178571Y-112250000D01*
X168250000Y-111750000D01*
X167178571Y-111250000D01*
X168678571Y-111250000D01*
X168678571Y-110321428D02*
X168607142Y-110464285D01*
X168535714Y-110535714D01*
X168392857Y-110607142D01*
X167964285Y-110607142D01*
X167821428Y-110535714D01*
X167750000Y-110464285D01*
X167678571Y-110321428D01*
X167678571Y-110107142D01*
X167750000Y-109964285D01*
X167821428Y-109892857D01*
X167964285Y-109821428D01*
X168392857Y-109821428D01*
X168535714Y-109892857D01*
X168607142Y-109964285D01*
X168678571Y-110107142D01*
X168678571Y-110321428D01*
X167678571Y-109392857D02*
X167678571Y-108821428D01*
X167178571Y-109178571D02*
X168464285Y-109178571D01*
X168607142Y-109107142D01*
X168678571Y-108964285D01*
X168678571Y-108821428D01*
X168678571Y-108107142D02*
X168607142Y-108250000D01*
X168535714Y-108321428D01*
X168392857Y-108392857D01*
X167964285Y-108392857D01*
X167821428Y-108321428D01*
X167750000Y-108250000D01*
X167678571Y-108107142D01*
X167678571Y-107892857D01*
X167750000Y-107750000D01*
X167821428Y-107678571D01*
X167964285Y-107607142D01*
X168392857Y-107607142D01*
X168535714Y-107678571D01*
X168607142Y-107750000D01*
X168678571Y-107892857D01*
X168678571Y-108107142D01*
X168678571Y-106964285D02*
X167678571Y-106964285D01*
X167964285Y-106964285D02*
X167821428Y-106892857D01*
X167750000Y-106821428D01*
X167678571Y-106678571D01*
X167678571Y-106535714D01*
X168678571Y-104892857D02*
X167178571Y-104892857D01*
X167178571Y-104535714D01*
X167250000Y-104321428D01*
X167392857Y-104178571D01*
X167535714Y-104107142D01*
X167821428Y-104035714D01*
X168035714Y-104035714D01*
X168321428Y-104107142D01*
X168464285Y-104178571D01*
X168607142Y-104321428D01*
X168678571Y-104535714D01*
X168678571Y-104892857D01*
X168678571Y-103392857D02*
X167678571Y-103392857D01*
X167964285Y-103392857D02*
X167821428Y-103321428D01*
X167750000Y-103250000D01*
X167678571Y-103107142D01*
X167678571Y-102964285D01*
X168678571Y-102464285D02*
X167678571Y-102464285D01*
X167178571Y-102464285D02*
X167250000Y-102535714D01*
X167321428Y-102464285D01*
X167250000Y-102392857D01*
X167178571Y-102464285D01*
X167321428Y-102464285D01*
X167678571Y-101892857D02*
X168678571Y-101535714D01*
X167678571Y-101178571D01*
X168607142Y-100035714D02*
X168678571Y-100178571D01*
X168678571Y-100464285D01*
X168607142Y-100607142D01*
X168464285Y-100678571D01*
X167892857Y-100678571D01*
X167750000Y-100607142D01*
X167678571Y-100464285D01*
X167678571Y-100178571D01*
X167750000Y-100035714D01*
X167892857Y-99964285D01*
X168035714Y-99964285D01*
X168178571Y-100678571D01*
X168678571Y-99321428D02*
X167678571Y-99321428D01*
X167964285Y-99321428D02*
X167821428Y-99250000D01*
X167750000Y-99178571D01*
X167678571Y-99035714D01*
X167678571Y-98892857D01*
X167678571Y-97392857D02*
X168678571Y-97035714D01*
X167678571Y-96678571D01*
X168607142Y-95535714D02*
X168678571Y-95678571D01*
X168678571Y-95964285D01*
X168607142Y-96107142D01*
X168464285Y-96178571D01*
X167892857Y-96178571D01*
X167750000Y-96107142D01*
X167678571Y-95964285D01*
X167678571Y-95678571D01*
X167750000Y-95535714D01*
X167892857Y-95464285D01*
X168035714Y-95464285D01*
X168178571Y-96178571D01*
X168678571Y-94821428D02*
X167678571Y-94821428D01*
X167964285Y-94821428D02*
X167821428Y-94750000D01*
X167750000Y-94678571D01*
X167678571Y-94535714D01*
X167678571Y-94392857D01*
X168678571Y-91964285D02*
X168678571Y-92821428D01*
X168678571Y-92392857D02*
X167178571Y-92392857D01*
X167392857Y-92535714D01*
X167535714Y-92678571D01*
X167607142Y-92821428D01*
X168535714Y-91321428D02*
X168607142Y-91250000D01*
X168678571Y-91321428D01*
X168607142Y-91392857D01*
X168535714Y-91321428D01*
X168678571Y-91321428D01*
X167178571Y-90321428D02*
X167178571Y-90178571D01*
X167250000Y-90035714D01*
X167321428Y-89964285D01*
X167464285Y-89892857D01*
X167750000Y-89821428D01*
X168107142Y-89821428D01*
X168392857Y-89892857D01*
X168535714Y-89964285D01*
X168607142Y-90035714D01*
X168678571Y-90178571D01*
X168678571Y-90321428D01*
X168607142Y-90464285D01*
X168535714Y-90535714D01*
X168392857Y-90607142D01*
X168107142Y-90678571D01*
X167750000Y-90678571D01*
X167464285Y-90607142D01*
X167321428Y-90535714D01*
X167250000Y-90464285D01*
X167178571Y-90321428D01*
X166428571Y-119214285D02*
X164928571Y-119214285D01*
X164928571Y-118642857D01*
X165000000Y-118500000D01*
X165071428Y-118428571D01*
X165214285Y-118357142D01*
X165428571Y-118357142D01*
X165571428Y-118428571D01*
X165642857Y-118500000D01*
X165714285Y-118642857D01*
X165714285Y-119214285D01*
X166428571Y-117714285D02*
X165428571Y-117714285D01*
X165714285Y-117714285D02*
X165571428Y-117642857D01*
X165500000Y-117571428D01*
X165428571Y-117428571D01*
X165428571Y-117285714D01*
X166428571Y-116571428D02*
X166357142Y-116714285D01*
X166285714Y-116785714D01*
X166142857Y-116857142D01*
X165714285Y-116857142D01*
X165571428Y-116785714D01*
X165500000Y-116714285D01*
X165428571Y-116571428D01*
X165428571Y-116357142D01*
X165500000Y-116214285D01*
X165571428Y-116142857D01*
X165714285Y-116071428D01*
X166142857Y-116071428D01*
X166285714Y-116142857D01*
X166357142Y-116214285D01*
X166428571Y-116357142D01*
X166428571Y-116571428D01*
X165428571Y-115428571D02*
X166714285Y-115428571D01*
X166857142Y-115500000D01*
X166928571Y-115642857D01*
X166928571Y-115714285D01*
X164928571Y-115428571D02*
X165000000Y-115500000D01*
X165071428Y-115428571D01*
X165000000Y-115357142D01*
X164928571Y-115428571D01*
X165071428Y-115428571D01*
X166357142Y-114142857D02*
X166428571Y-114285714D01*
X166428571Y-114571428D01*
X166357142Y-114714285D01*
X166214285Y-114785714D01*
X165642857Y-114785714D01*
X165500000Y-114714285D01*
X165428571Y-114571428D01*
X165428571Y-114285714D01*
X165500000Y-114142857D01*
X165642857Y-114071428D01*
X165785714Y-114071428D01*
X165928571Y-114785714D01*
X166357142Y-112785714D02*
X166428571Y-112928571D01*
X166428571Y-113214285D01*
X166357142Y-113357142D01*
X166285714Y-113428571D01*
X166142857Y-113500000D01*
X165714285Y-113500000D01*
X165571428Y-113428571D01*
X165500000Y-113357142D01*
X165428571Y-113214285D01*
X165428571Y-112928571D01*
X165500000Y-112785714D01*
X165428571Y-112357142D02*
X165428571Y-111785714D01*
X164928571Y-112142857D02*
X166214285Y-112142857D01*
X166357142Y-112071428D01*
X166428571Y-111928571D01*
X166428571Y-111785714D01*
X166428571Y-110142857D02*
X164928571Y-110142857D01*
X165642857Y-110142857D02*
X165642857Y-109285714D01*
X166428571Y-109285714D02*
X164928571Y-109285714D01*
X166000000Y-108642857D02*
X166000000Y-107928571D01*
X166428571Y-108785714D02*
X164928571Y-108285714D01*
X166428571Y-107785714D01*
X166428571Y-106428571D02*
X165714285Y-106928571D01*
X166428571Y-107285714D02*
X164928571Y-107285714D01*
X164928571Y-106714285D01*
X165000000Y-106571428D01*
X165071428Y-106500000D01*
X165214285Y-106428571D01*
X165428571Y-106428571D01*
X165571428Y-106500000D01*
X165642857Y-106571428D01*
X165714285Y-106714285D01*
X165714285Y-107285714D01*
X166428571Y-105785714D02*
X164928571Y-105785714D01*
X164928571Y-105214285D01*
X165000000Y-105071428D01*
X165071428Y-105000000D01*
X165214285Y-104928571D01*
X165428571Y-104928571D01*
X165571428Y-105000000D01*
X165642857Y-105071428D01*
X165714285Y-105214285D01*
X165714285Y-105785714D01*
X166285714Y-104285714D02*
X166357142Y-104214285D01*
X166428571Y-104285714D01*
X166357142Y-104357142D01*
X166285714Y-104285714D01*
X166428571Y-104285714D01*
X163112000Y-133600000D02*
X163826285Y-133600000D01*
X162969142Y-134028571D02*
X163469142Y-132528571D01*
X163969142Y-134028571D01*
X164469142Y-133028571D02*
X164469142Y-134028571D01*
X164469142Y-133171428D02*
X164540571Y-133100000D01*
X164683428Y-133028571D01*
X164897714Y-133028571D01*
X165040571Y-133100000D01*
X165112000Y-133242857D01*
X165112000Y-134028571D01*
X166469142Y-133028571D02*
X166469142Y-134242857D01*
X166397714Y-134385714D01*
X166326285Y-134457142D01*
X166183428Y-134528571D01*
X165969142Y-134528571D01*
X165826285Y-134457142D01*
X166469142Y-133957142D02*
X166326285Y-134028571D01*
X166040571Y-134028571D01*
X165897714Y-133957142D01*
X165826285Y-133885714D01*
X165754857Y-133742857D01*
X165754857Y-133314285D01*
X165826285Y-133171428D01*
X165897714Y-133100000D01*
X166040571Y-133028571D01*
X166326285Y-133028571D01*
X166469142Y-133100000D01*
X167397714Y-134028571D02*
X167254857Y-133957142D01*
X167183428Y-133814285D01*
X167183428Y-132528571D01*
X168540571Y-133957142D02*
X168397714Y-134028571D01*
X168112000Y-134028571D01*
X167969142Y-133957142D01*
X167897714Y-133814285D01*
X167897714Y-133242857D01*
X167969142Y-133100000D01*
X168112000Y-133028571D01*
X168397714Y-133028571D01*
X168540571Y-133100000D01*
X168612000Y-133242857D01*
X168612000Y-133385714D01*
X167897714Y-133528571D01*
X158146857Y-134028571D02*
X157289714Y-134028571D01*
X157718285Y-134028571D02*
X157718285Y-132528571D01*
X157575428Y-132742857D01*
X157432571Y-132885714D01*
X157289714Y-132957142D01*
X159075428Y-132528571D02*
X159218285Y-132528571D01*
X159361142Y-132600000D01*
X159432571Y-132671428D01*
X159504000Y-132814285D01*
X159575428Y-133100000D01*
X159575428Y-133457142D01*
X159504000Y-133742857D01*
X159432571Y-133885714D01*
X159361142Y-133957142D01*
X159218285Y-134028571D01*
X159075428Y-134028571D01*
X158932571Y-133957142D01*
X158861142Y-133885714D01*
X158789714Y-133742857D01*
X158718285Y-133457142D01*
X158718285Y-133100000D01*
X158789714Y-132814285D01*
X158861142Y-132671428D01*
X158932571Y-132600000D01*
X159075428Y-132528571D01*
X160432571Y-132528571D02*
X160289714Y-132600000D01*
X160218285Y-132742857D01*
X160289714Y-132885714D01*
X160432571Y-132957142D01*
X160575428Y-132885714D01*
X160646857Y-132742857D01*
X160575428Y-132600000D01*
X160432571Y-132528571D01*
X147613714Y-132528571D02*
X146899428Y-132528571D01*
X146828000Y-133242857D01*
X146899428Y-133171428D01*
X147042285Y-133100000D01*
X147399428Y-133100000D01*
X147542285Y-133171428D01*
X147613714Y-133242857D01*
X147685142Y-133385714D01*
X147685142Y-133742857D01*
X147613714Y-133885714D01*
X147542285Y-133957142D01*
X147399428Y-134028571D01*
X147042285Y-134028571D01*
X146899428Y-133957142D01*
X146828000Y-133885714D01*
X148542285Y-132528571D02*
X148399428Y-132600000D01*
X148328000Y-132742857D01*
X148399428Y-132885714D01*
X148542285Y-132957142D01*
X148685142Y-132885714D01*
X148756571Y-132742857D01*
X148685142Y-132600000D01*
X148542285Y-132528571D01*
X158155142Y-130075714D02*
X158083714Y-130147142D01*
X157869428Y-130218571D01*
X157726571Y-130218571D01*
X157512285Y-130147142D01*
X157369428Y-130004285D01*
X157298000Y-129861428D01*
X157226571Y-129575714D01*
X157226571Y-129361428D01*
X157298000Y-129075714D01*
X157369428Y-128932857D01*
X157512285Y-128790000D01*
X157726571Y-128718571D01*
X157869428Y-128718571D01*
X158083714Y-128790000D01*
X158155142Y-128861428D01*
X159012285Y-130218571D02*
X158869428Y-130147142D01*
X158798000Y-130075714D01*
X158726571Y-129932857D01*
X158726571Y-129504285D01*
X158798000Y-129361428D01*
X158869428Y-129290000D01*
X159012285Y-129218571D01*
X159226571Y-129218571D01*
X159369428Y-129290000D01*
X159440857Y-129361428D01*
X159512285Y-129504285D01*
X159512285Y-129932857D01*
X159440857Y-130075714D01*
X159369428Y-130147142D01*
X159226571Y-130218571D01*
X159012285Y-130218571D01*
X160798000Y-130218571D02*
X160798000Y-129432857D01*
X160726571Y-129290000D01*
X160583714Y-129218571D01*
X160298000Y-129218571D01*
X160155142Y-129290000D01*
X160798000Y-130147142D02*
X160655142Y-130218571D01*
X160298000Y-130218571D01*
X160155142Y-130147142D01*
X160083714Y-130004285D01*
X160083714Y-129861428D01*
X160155142Y-129718571D01*
X160298000Y-129647142D01*
X160655142Y-129647142D01*
X160798000Y-129575714D01*
X161440857Y-130147142D02*
X161583714Y-130218571D01*
X161869428Y-130218571D01*
X162012285Y-130147142D01*
X162083714Y-130004285D01*
X162083714Y-129932857D01*
X162012285Y-129790000D01*
X161869428Y-129718571D01*
X161655142Y-129718571D01*
X161512285Y-129647142D01*
X161440857Y-129504285D01*
X161440857Y-129432857D01*
X161512285Y-129290000D01*
X161655142Y-129218571D01*
X161869428Y-129218571D01*
X162012285Y-129290000D01*
X162512285Y-129218571D02*
X163083714Y-129218571D01*
X162726571Y-128718571D02*
X162726571Y-130004285D01*
X162798000Y-130147142D01*
X162940857Y-130218571D01*
X163083714Y-130218571D01*
X163583714Y-130218571D02*
X163583714Y-129218571D01*
X163583714Y-128718571D02*
X163512285Y-128790000D01*
X163583714Y-128861428D01*
X163655142Y-128790000D01*
X163583714Y-128718571D01*
X163583714Y-128861428D01*
X164298000Y-129218571D02*
X164298000Y-130218571D01*
X164298000Y-129361428D02*
X164369428Y-129290000D01*
X164512285Y-129218571D01*
X164726571Y-129218571D01*
X164869428Y-129290000D01*
X164940857Y-129432857D01*
X164940857Y-130218571D01*
X166298000Y-129218571D02*
X166298000Y-130432857D01*
X166226571Y-130575714D01*
X166155142Y-130647142D01*
X166012285Y-130718571D01*
X165798000Y-130718571D01*
X165655142Y-130647142D01*
X166298000Y-130147142D02*
X166155142Y-130218571D01*
X165869428Y-130218571D01*
X165726571Y-130147142D01*
X165655142Y-130075714D01*
X165583714Y-129932857D01*
X165583714Y-129504285D01*
X165655142Y-129361428D01*
X165726571Y-129290000D01*
X165869428Y-129218571D01*
X166155142Y-129218571D01*
X166298000Y-129290000D01*
X142827714Y-129432857D02*
X143042000Y-129504285D01*
X143113428Y-129575714D01*
X143184857Y-129718571D01*
X143184857Y-129932857D01*
X143113428Y-130075714D01*
X143042000Y-130147142D01*
X142899142Y-130218571D01*
X142327714Y-130218571D01*
X142327714Y-128718571D01*
X142827714Y-128718571D01*
X142970571Y-128790000D01*
X143042000Y-128861428D01*
X143113428Y-129004285D01*
X143113428Y-129147142D01*
X143042000Y-129290000D01*
X142970571Y-129361428D01*
X142827714Y-129432857D01*
X142327714Y-129432857D01*
X144684857Y-130218571D02*
X144184857Y-129504285D01*
X143827714Y-130218571D02*
X143827714Y-128718571D01*
X144399142Y-128718571D01*
X144542000Y-128790000D01*
X144613428Y-128861428D01*
X144684857Y-129004285D01*
X144684857Y-129218571D01*
X144613428Y-129361428D01*
X144542000Y-129432857D01*
X144399142Y-129504285D01*
X143827714Y-129504285D01*
X145256285Y-129790000D02*
X145970571Y-129790000D01*
X145113428Y-130218571D02*
X145613428Y-128718571D01*
X146113428Y-130218571D01*
X146613428Y-130218571D02*
X146613428Y-128718571D01*
X147470571Y-130218571D02*
X146827714Y-129361428D01*
X147470571Y-128718571D02*
X146613428Y-129575714D01*
X148113428Y-129432857D02*
X148613428Y-129432857D01*
X148827714Y-130218571D02*
X148113428Y-130218571D01*
X148113428Y-128718571D01*
X148827714Y-128718571D01*
X164477142Y-126916571D02*
X164477142Y-125416571D01*
X164477142Y-126130857D02*
X165334285Y-126130857D01*
X165334285Y-126916571D02*
X165334285Y-125416571D01*
X166691428Y-126916571D02*
X166691428Y-126130857D01*
X166620000Y-125988000D01*
X166477142Y-125916571D01*
X166191428Y-125916571D01*
X166048571Y-125988000D01*
X166691428Y-126845142D02*
X166548571Y-126916571D01*
X166191428Y-126916571D01*
X166048571Y-126845142D01*
X165977142Y-126702285D01*
X165977142Y-126559428D01*
X166048571Y-126416571D01*
X166191428Y-126345142D01*
X166548571Y-126345142D01*
X166691428Y-126273714D01*
X167620000Y-126916571D02*
X167477142Y-126845142D01*
X167405714Y-126702285D01*
X167405714Y-125416571D01*
X168405714Y-126916571D02*
X168262857Y-126845142D01*
X168191428Y-126702285D01*
X168191428Y-125416571D01*
X157599142Y-125416571D02*
X157742000Y-125416571D01*
X157884857Y-125488000D01*
X157956285Y-125559428D01*
X158027714Y-125702285D01*
X158099142Y-125988000D01*
X158099142Y-126345142D01*
X158027714Y-126630857D01*
X157956285Y-126773714D01*
X157884857Y-126845142D01*
X157742000Y-126916571D01*
X157599142Y-126916571D01*
X157456285Y-126845142D01*
X157384857Y-126773714D01*
X157313428Y-126630857D01*
X157242000Y-126345142D01*
X157242000Y-125988000D01*
X157313428Y-125702285D01*
X157384857Y-125559428D01*
X157456285Y-125488000D01*
X157599142Y-125416571D01*
X158956285Y-125416571D02*
X158813428Y-125488000D01*
X158742000Y-125630857D01*
X158813428Y-125773714D01*
X158956285Y-125845142D01*
X159099142Y-125773714D01*
X159170571Y-125630857D01*
X159099142Y-125488000D01*
X158956285Y-125416571D01*
X145280285Y-125416571D02*
X146208857Y-125416571D01*
X145708857Y-125988000D01*
X145923142Y-125988000D01*
X146066000Y-126059428D01*
X146137428Y-126130857D01*
X146208857Y-126273714D01*
X146208857Y-126630857D01*
X146137428Y-126773714D01*
X146066000Y-126845142D01*
X145923142Y-126916571D01*
X145494571Y-126916571D01*
X145351714Y-126845142D01*
X145280285Y-126773714D01*
X147137428Y-125416571D02*
X147280285Y-125416571D01*
X147423142Y-125488000D01*
X147494571Y-125559428D01*
X147566000Y-125702285D01*
X147637428Y-125988000D01*
X147637428Y-126345142D01*
X147566000Y-126630857D01*
X147494571Y-126773714D01*
X147423142Y-126845142D01*
X147280285Y-126916571D01*
X147137428Y-126916571D01*
X146994571Y-126845142D01*
X146923142Y-126773714D01*
X146851714Y-126630857D01*
X146780285Y-126345142D01*
X146780285Y-125988000D01*
X146851714Y-125702285D01*
X146923142Y-125559428D01*
X146994571Y-125488000D01*
X147137428Y-125416571D01*
X148494571Y-125416571D02*
X148351714Y-125488000D01*
X148280285Y-125630857D01*
X148351714Y-125773714D01*
X148494571Y-125845142D01*
X148637428Y-125773714D01*
X148708857Y-125630857D01*
X148637428Y-125488000D01*
X148494571Y-125416571D01*
%TO.C,R15*%
G36*
G01*
X158049240Y-98223650D02*
X158049240Y-97661150D01*
G75*
G02*
X158292990Y-97417400I243750J0D01*
G01*
X158780490Y-97417400D01*
G75*
G02*
X159024240Y-97661150I0J-243750D01*
G01*
X159024240Y-98223650D01*
G75*
G02*
X158780490Y-98467400I-243750J0D01*
G01*
X158292990Y-98467400D01*
G75*
G02*
X158049240Y-98223650I0J243750D01*
G01*
G37*
G36*
G01*
X156474240Y-98223650D02*
X156474240Y-97661150D01*
G75*
G02*
X156717990Y-97417400I243750J0D01*
G01*
X157205490Y-97417400D01*
G75*
G02*
X157449240Y-97661150I0J-243750D01*
G01*
X157449240Y-98223650D01*
G75*
G02*
X157205490Y-98467400I-243750J0D01*
G01*
X156717990Y-98467400D01*
G75*
G02*
X156474240Y-98223650I0J243750D01*
G01*
G37*
%TD*%
%TO.C,R14*%
G36*
G01*
X147010400Y-95023250D02*
X147010400Y-94460750D01*
G75*
G02*
X147254150Y-94217000I243750J0D01*
G01*
X147741650Y-94217000D01*
G75*
G02*
X147985400Y-94460750I0J-243750D01*
G01*
X147985400Y-95023250D01*
G75*
G02*
X147741650Y-95267000I-243750J0D01*
G01*
X147254150Y-95267000D01*
G75*
G02*
X147010400Y-95023250I0J243750D01*
G01*
G37*
G36*
G01*
X145435400Y-95023250D02*
X145435400Y-94460750D01*
G75*
G02*
X145679150Y-94217000I243750J0D01*
G01*
X146166650Y-94217000D01*
G75*
G02*
X146410400Y-94460750I0J-243750D01*
G01*
X146410400Y-95023250D01*
G75*
G02*
X146166650Y-95267000I-243750J0D01*
G01*
X145679150Y-95267000D01*
G75*
G02*
X145435400Y-95023250I0J243750D01*
G01*
G37*
%TD*%
%TO.C,R13*%
G36*
G01*
X158049240Y-101271650D02*
X158049240Y-100709150D01*
G75*
G02*
X158292990Y-100465400I243750J0D01*
G01*
X158780490Y-100465400D01*
G75*
G02*
X159024240Y-100709150I0J-243750D01*
G01*
X159024240Y-101271650D01*
G75*
G02*
X158780490Y-101515400I-243750J0D01*
G01*
X158292990Y-101515400D01*
G75*
G02*
X158049240Y-101271650I0J243750D01*
G01*
G37*
G36*
G01*
X156474240Y-101271650D02*
X156474240Y-100709150D01*
G75*
G02*
X156717990Y-100465400I243750J0D01*
G01*
X157205490Y-100465400D01*
G75*
G02*
X157449240Y-100709150I0J-243750D01*
G01*
X157449240Y-101271650D01*
G75*
G02*
X157205490Y-101515400I-243750J0D01*
G01*
X156717990Y-101515400D01*
G75*
G02*
X156474240Y-101271650I0J243750D01*
G01*
G37*
%TD*%
%TO.C,R12*%
G36*
G01*
X154912750Y-118308400D02*
X155475250Y-118308400D01*
G75*
G02*
X155719000Y-118552150I0J-243750D01*
G01*
X155719000Y-119039650D01*
G75*
G02*
X155475250Y-119283400I-243750J0D01*
G01*
X154912750Y-119283400D01*
G75*
G02*
X154669000Y-119039650I0J243750D01*
G01*
X154669000Y-118552150D01*
G75*
G02*
X154912750Y-118308400I243750J0D01*
G01*
G37*
G36*
G01*
X154912750Y-116733400D02*
X155475250Y-116733400D01*
G75*
G02*
X155719000Y-116977150I0J-243750D01*
G01*
X155719000Y-117464650D01*
G75*
G02*
X155475250Y-117708400I-243750J0D01*
G01*
X154912750Y-117708400D01*
G75*
G02*
X154669000Y-117464650I0J243750D01*
G01*
X154669000Y-116977150D01*
G75*
G02*
X154912750Y-116733400I243750J0D01*
G01*
G37*
%TD*%
%TO.C,R11*%
G36*
G01*
X158049240Y-99747650D02*
X158049240Y-99185150D01*
G75*
G02*
X158292990Y-98941400I243750J0D01*
G01*
X158780490Y-98941400D01*
G75*
G02*
X159024240Y-99185150I0J-243750D01*
G01*
X159024240Y-99747650D01*
G75*
G02*
X158780490Y-99991400I-243750J0D01*
G01*
X158292990Y-99991400D01*
G75*
G02*
X158049240Y-99747650I0J243750D01*
G01*
G37*
G36*
G01*
X156474240Y-99747650D02*
X156474240Y-99185150D01*
G75*
G02*
X156717990Y-98941400I243750J0D01*
G01*
X157205490Y-98941400D01*
G75*
G02*
X157449240Y-99185150I0J-243750D01*
G01*
X157449240Y-99747650D01*
G75*
G02*
X157205490Y-99991400I-243750J0D01*
G01*
X156717990Y-99991400D01*
G75*
G02*
X156474240Y-99747650I0J243750D01*
G01*
G37*
%TD*%
%TO.C,R10*%
G36*
G01*
X154912750Y-111145600D02*
X155475250Y-111145600D01*
G75*
G02*
X155719000Y-111389350I0J-243750D01*
G01*
X155719000Y-111876850D01*
G75*
G02*
X155475250Y-112120600I-243750J0D01*
G01*
X154912750Y-112120600D01*
G75*
G02*
X154669000Y-111876850I0J243750D01*
G01*
X154669000Y-111389350D01*
G75*
G02*
X154912750Y-111145600I243750J0D01*
G01*
G37*
G36*
G01*
X154912750Y-109570600D02*
X155475250Y-109570600D01*
G75*
G02*
X155719000Y-109814350I0J-243750D01*
G01*
X155719000Y-110301850D01*
G75*
G02*
X155475250Y-110545600I-243750J0D01*
G01*
X154912750Y-110545600D01*
G75*
G02*
X154669000Y-110301850I0J243750D01*
G01*
X154669000Y-109814350D01*
G75*
G02*
X154912750Y-109570600I243750J0D01*
G01*
G37*
%TD*%
%TO.C,R9*%
G36*
G01*
X154912750Y-121966000D02*
X155475250Y-121966000D01*
G75*
G02*
X155719000Y-122209750I0J-243750D01*
G01*
X155719000Y-122697250D01*
G75*
G02*
X155475250Y-122941000I-243750J0D01*
G01*
X154912750Y-122941000D01*
G75*
G02*
X154669000Y-122697250I0J243750D01*
G01*
X154669000Y-122209750D01*
G75*
G02*
X154912750Y-121966000I243750J0D01*
G01*
G37*
G36*
G01*
X154912750Y-120391000D02*
X155475250Y-120391000D01*
G75*
G02*
X155719000Y-120634750I0J-243750D01*
G01*
X155719000Y-121122250D01*
G75*
G02*
X155475250Y-121366000I-243750J0D01*
G01*
X154912750Y-121366000D01*
G75*
G02*
X154669000Y-121122250I0J243750D01*
G01*
X154669000Y-120634750D01*
G75*
G02*
X154912750Y-120391000I243750J0D01*
G01*
G37*
%TD*%
%TO.C,R8*%
G36*
G01*
X151915550Y-111170900D02*
X152478050Y-111170900D01*
G75*
G02*
X152721800Y-111414650I0J-243750D01*
G01*
X152721800Y-111902150D01*
G75*
G02*
X152478050Y-112145900I-243750J0D01*
G01*
X151915550Y-112145900D01*
G75*
G02*
X151671800Y-111902150I0J243750D01*
G01*
X151671800Y-111414650D01*
G75*
G02*
X151915550Y-111170900I243750J0D01*
G01*
G37*
G36*
G01*
X151915550Y-109595900D02*
X152478050Y-109595900D01*
G75*
G02*
X152721800Y-109839650I0J-243750D01*
G01*
X152721800Y-110327150D01*
G75*
G02*
X152478050Y-110570900I-243750J0D01*
G01*
X151915550Y-110570900D01*
G75*
G02*
X151671800Y-110327150I0J243750D01*
G01*
X151671800Y-109839650D01*
G75*
G02*
X151915550Y-109595900I243750J0D01*
G01*
G37*
%TD*%
%TO.C,R7*%
G36*
G01*
X151915550Y-114701600D02*
X152478050Y-114701600D01*
G75*
G02*
X152721800Y-114945350I0J-243750D01*
G01*
X152721800Y-115432850D01*
G75*
G02*
X152478050Y-115676600I-243750J0D01*
G01*
X151915550Y-115676600D01*
G75*
G02*
X151671800Y-115432850I0J243750D01*
G01*
X151671800Y-114945350D01*
G75*
G02*
X151915550Y-114701600I243750J0D01*
G01*
G37*
G36*
G01*
X151915550Y-113126600D02*
X152478050Y-113126600D01*
G75*
G02*
X152721800Y-113370350I0J-243750D01*
G01*
X152721800Y-113857850D01*
G75*
G02*
X152478050Y-114101600I-243750J0D01*
G01*
X151915550Y-114101600D01*
G75*
G02*
X151671800Y-113857850I0J243750D01*
G01*
X151671800Y-113370350D01*
G75*
G02*
X151915550Y-113126600I243750J0D01*
G01*
G37*
%TD*%
%TO.C,R6*%
G36*
G01*
X151915550Y-118282900D02*
X152478050Y-118282900D01*
G75*
G02*
X152721800Y-118526650I0J-243750D01*
G01*
X152721800Y-119014150D01*
G75*
G02*
X152478050Y-119257900I-243750J0D01*
G01*
X151915550Y-119257900D01*
G75*
G02*
X151671800Y-119014150I0J243750D01*
G01*
X151671800Y-118526650D01*
G75*
G02*
X151915550Y-118282900I243750J0D01*
G01*
G37*
G36*
G01*
X151915550Y-116707900D02*
X152478050Y-116707900D01*
G75*
G02*
X152721800Y-116951650I0J-243750D01*
G01*
X152721800Y-117439150D01*
G75*
G02*
X152478050Y-117682900I-243750J0D01*
G01*
X151915550Y-117682900D01*
G75*
G02*
X151671800Y-117439150I0J243750D01*
G01*
X151671800Y-116951650D01*
G75*
G02*
X151915550Y-116707900I243750J0D01*
G01*
G37*
%TD*%
%TO.C,R5*%
G36*
G01*
X151966350Y-121966000D02*
X152528850Y-121966000D01*
G75*
G02*
X152772600Y-122209750I0J-243750D01*
G01*
X152772600Y-122697250D01*
G75*
G02*
X152528850Y-122941000I-243750J0D01*
G01*
X151966350Y-122941000D01*
G75*
G02*
X151722600Y-122697250I0J243750D01*
G01*
X151722600Y-122209750D01*
G75*
G02*
X151966350Y-121966000I243750J0D01*
G01*
G37*
G36*
G01*
X151966350Y-120391000D02*
X152528850Y-120391000D01*
G75*
G02*
X152772600Y-120634750I0J-243750D01*
G01*
X152772600Y-121122250D01*
G75*
G02*
X152528850Y-121366000I-243750J0D01*
G01*
X151966350Y-121366000D01*
G75*
G02*
X151722600Y-121122250I0J243750D01*
G01*
X151722600Y-120634750D01*
G75*
G02*
X151966350Y-120391000I243750J0D01*
G01*
G37*
%TD*%
%TO.C,R4*%
G36*
G01*
X146378350Y-111120100D02*
X146940850Y-111120100D01*
G75*
G02*
X147184600Y-111363850I0J-243750D01*
G01*
X147184600Y-111851350D01*
G75*
G02*
X146940850Y-112095100I-243750J0D01*
G01*
X146378350Y-112095100D01*
G75*
G02*
X146134600Y-111851350I0J243750D01*
G01*
X146134600Y-111363850D01*
G75*
G02*
X146378350Y-111120100I243750J0D01*
G01*
G37*
G36*
G01*
X146378350Y-109545100D02*
X146940850Y-109545100D01*
G75*
G02*
X147184600Y-109788850I0J-243750D01*
G01*
X147184600Y-110276350D01*
G75*
G02*
X146940850Y-110520100I-243750J0D01*
G01*
X146378350Y-110520100D01*
G75*
G02*
X146134600Y-110276350I0J243750D01*
G01*
X146134600Y-109788850D01*
G75*
G02*
X146378350Y-109545100I243750J0D01*
G01*
G37*
%TD*%
%TO.C,R3*%
G36*
G01*
X146378350Y-114701600D02*
X146940850Y-114701600D01*
G75*
G02*
X147184600Y-114945350I0J-243750D01*
G01*
X147184600Y-115432850D01*
G75*
G02*
X146940850Y-115676600I-243750J0D01*
G01*
X146378350Y-115676600D01*
G75*
G02*
X146134600Y-115432850I0J243750D01*
G01*
X146134600Y-114945350D01*
G75*
G02*
X146378350Y-114701600I243750J0D01*
G01*
G37*
G36*
G01*
X146378350Y-113126600D02*
X146940850Y-113126600D01*
G75*
G02*
X147184600Y-113370350I0J-243750D01*
G01*
X147184600Y-113857850D01*
G75*
G02*
X146940850Y-114101600I-243750J0D01*
G01*
X146378350Y-114101600D01*
G75*
G02*
X146134600Y-113857850I0J243750D01*
G01*
X146134600Y-113370350D01*
G75*
G02*
X146378350Y-113126600I243750J0D01*
G01*
G37*
%TD*%
%TO.C,R2*%
G36*
G01*
X146378350Y-118308400D02*
X146940850Y-118308400D01*
G75*
G02*
X147184600Y-118552150I0J-243750D01*
G01*
X147184600Y-119039650D01*
G75*
G02*
X146940850Y-119283400I-243750J0D01*
G01*
X146378350Y-119283400D01*
G75*
G02*
X146134600Y-119039650I0J243750D01*
G01*
X146134600Y-118552150D01*
G75*
G02*
X146378350Y-118308400I243750J0D01*
G01*
G37*
G36*
G01*
X146378350Y-116733400D02*
X146940850Y-116733400D01*
G75*
G02*
X147184600Y-116977150I0J-243750D01*
G01*
X147184600Y-117464650D01*
G75*
G02*
X146940850Y-117708400I-243750J0D01*
G01*
X146378350Y-117708400D01*
G75*
G02*
X146134600Y-117464650I0J243750D01*
G01*
X146134600Y-116977150D01*
G75*
G02*
X146378350Y-116733400I243750J0D01*
G01*
G37*
%TD*%
%TO.C,R1*%
G36*
G01*
X146378350Y-121915200D02*
X146940850Y-121915200D01*
G75*
G02*
X147184600Y-122158950I0J-243750D01*
G01*
X147184600Y-122646450D01*
G75*
G02*
X146940850Y-122890200I-243750J0D01*
G01*
X146378350Y-122890200D01*
G75*
G02*
X146134600Y-122646450I0J243750D01*
G01*
X146134600Y-122158950D01*
G75*
G02*
X146378350Y-121915200I243750J0D01*
G01*
G37*
G36*
G01*
X146378350Y-120340200D02*
X146940850Y-120340200D01*
G75*
G02*
X147184600Y-120583950I0J-243750D01*
G01*
X147184600Y-121071450D01*
G75*
G02*
X146940850Y-121315200I-243750J0D01*
G01*
X146378350Y-121315200D01*
G75*
G02*
X146134600Y-121071450I0J243750D01*
G01*
X146134600Y-120583950D01*
G75*
G02*
X146378350Y-120340200I243750J0D01*
G01*
G37*
%TD*%
D11*
%TO.C,Q4*%
X150653600Y-110794800D03*
X148253600Y-111744800D03*
X148253600Y-109844800D03*
%TD*%
%TO.C,Q3*%
X150653600Y-114401600D03*
X148253600Y-115351600D03*
X148253600Y-113451600D03*
%TD*%
%TO.C,Q2*%
X150653600Y-118008400D03*
X148253600Y-118958400D03*
X148253600Y-117058400D03*
%TD*%
%TO.C,Q1*%
X150653600Y-121615200D03*
X148253600Y-122565200D03*
X148253600Y-120665200D03*
%TD*%
D12*
%TO.C,JP3*%
G36*
X150909755Y-128740961D02*
G01*
X150919134Y-128743806D01*
X150927779Y-128748427D01*
X150935355Y-128754645D01*
X150941603Y-128762265D01*
X151441603Y-129512265D01*
X151446214Y-129520914D01*
X151449049Y-129530297D01*
X151450000Y-129540052D01*
X151449029Y-129549806D01*
X151446174Y-129559182D01*
X151441603Y-129567735D01*
X150941603Y-130317735D01*
X150935392Y-130325318D01*
X150927822Y-130331544D01*
X150919182Y-130336174D01*
X150909806Y-130339029D01*
X150900000Y-130340000D01*
X149900000Y-130340000D01*
X149890245Y-130339039D01*
X149880866Y-130336194D01*
X149872221Y-130331573D01*
X149864645Y-130325355D01*
X149858427Y-130317779D01*
X149853806Y-130309134D01*
X149850961Y-130299755D01*
X149850000Y-130290000D01*
X149850000Y-128790000D01*
X149850961Y-128780245D01*
X149853806Y-128770866D01*
X149858427Y-128762221D01*
X149864645Y-128754645D01*
X149872221Y-128748427D01*
X149880866Y-128743806D01*
X149890245Y-128740961D01*
X149900000Y-128740000D01*
X150900000Y-128740000D01*
X150909755Y-128740961D01*
G37*
G36*
X153890245Y-130339039D02*
G01*
X153880866Y-130336194D01*
X153872221Y-130331573D01*
X153864645Y-130325355D01*
X153858397Y-130317735D01*
X153358397Y-129567735D01*
X153353786Y-129559086D01*
X153350951Y-129549703D01*
X153350000Y-129539948D01*
X153350971Y-129530194D01*
X153353826Y-129520818D01*
X153358397Y-129512265D01*
X153858397Y-128762265D01*
X153864608Y-128754682D01*
X153872178Y-128748456D01*
X153880818Y-128743826D01*
X153890194Y-128740971D01*
X153900000Y-128740000D01*
X154900000Y-128740000D01*
X154909755Y-128740961D01*
X154919134Y-128743806D01*
X154927779Y-128748427D01*
X154935355Y-128754645D01*
X154941573Y-128762221D01*
X154946194Y-128770866D01*
X154949039Y-128780245D01*
X154950000Y-128790000D01*
X154950000Y-130290000D01*
X154949039Y-130299755D01*
X154946194Y-130309134D01*
X154941573Y-130317779D01*
X154935355Y-130325355D01*
X154927779Y-130331573D01*
X154919134Y-130336194D01*
X154909755Y-130339039D01*
X154900000Y-130340000D01*
X153900000Y-130340000D01*
X153890245Y-130339039D01*
G37*
D13*
X153600000Y-129540000D03*
X151200000Y-129540000D03*
%TD*%
D12*
%TO.C,JP2*%
G36*
X150909755Y-132296961D02*
G01*
X150919134Y-132299806D01*
X150927779Y-132304427D01*
X150935355Y-132310645D01*
X150941603Y-132318265D01*
X151441603Y-133068265D01*
X151446214Y-133076914D01*
X151449049Y-133086297D01*
X151450000Y-133096052D01*
X151449029Y-133105806D01*
X151446174Y-133115182D01*
X151441603Y-133123735D01*
X150941603Y-133873735D01*
X150935392Y-133881318D01*
X150927822Y-133887544D01*
X150919182Y-133892174D01*
X150909806Y-133895029D01*
X150900000Y-133896000D01*
X149900000Y-133896000D01*
X149890245Y-133895039D01*
X149880866Y-133892194D01*
X149872221Y-133887573D01*
X149864645Y-133881355D01*
X149858427Y-133873779D01*
X149853806Y-133865134D01*
X149850961Y-133855755D01*
X149850000Y-133846000D01*
X149850000Y-132346000D01*
X149850961Y-132336245D01*
X149853806Y-132326866D01*
X149858427Y-132318221D01*
X149864645Y-132310645D01*
X149872221Y-132304427D01*
X149880866Y-132299806D01*
X149890245Y-132296961D01*
X149900000Y-132296000D01*
X150900000Y-132296000D01*
X150909755Y-132296961D01*
G37*
G36*
X153890245Y-133895039D02*
G01*
X153880866Y-133892194D01*
X153872221Y-133887573D01*
X153864645Y-133881355D01*
X153858397Y-133873735D01*
X153358397Y-133123735D01*
X153353786Y-133115086D01*
X153350951Y-133105703D01*
X153350000Y-133095948D01*
X153350971Y-133086194D01*
X153353826Y-133076818D01*
X153358397Y-133068265D01*
X153858397Y-132318265D01*
X153864608Y-132310682D01*
X153872178Y-132304456D01*
X153880818Y-132299826D01*
X153890194Y-132296971D01*
X153900000Y-132296000D01*
X154900000Y-132296000D01*
X154909755Y-132296961D01*
X154919134Y-132299806D01*
X154927779Y-132304427D01*
X154935355Y-132310645D01*
X154941573Y-132318221D01*
X154946194Y-132326866D01*
X154949039Y-132336245D01*
X154950000Y-132346000D01*
X154950000Y-133846000D01*
X154949039Y-133855755D01*
X154946194Y-133865134D01*
X154941573Y-133873779D01*
X154935355Y-133881355D01*
X154927779Y-133887573D01*
X154919134Y-133892194D01*
X154909755Y-133895039D01*
X154900000Y-133896000D01*
X153900000Y-133896000D01*
X153890245Y-133895039D01*
G37*
D13*
X153600000Y-133096000D03*
X151200000Y-133096000D03*
%TD*%
D12*
%TO.C,JP1*%
G36*
X150909755Y-125286561D02*
G01*
X150919134Y-125289406D01*
X150927779Y-125294027D01*
X150935355Y-125300245D01*
X150941603Y-125307865D01*
X151441603Y-126057865D01*
X151446214Y-126066514D01*
X151449049Y-126075897D01*
X151450000Y-126085652D01*
X151449029Y-126095406D01*
X151446174Y-126104782D01*
X151441603Y-126113335D01*
X150941603Y-126863335D01*
X150935392Y-126870918D01*
X150927822Y-126877144D01*
X150919182Y-126881774D01*
X150909806Y-126884629D01*
X150900000Y-126885600D01*
X149900000Y-126885600D01*
X149890245Y-126884639D01*
X149880866Y-126881794D01*
X149872221Y-126877173D01*
X149864645Y-126870955D01*
X149858427Y-126863379D01*
X149853806Y-126854734D01*
X149850961Y-126845355D01*
X149850000Y-126835600D01*
X149850000Y-125335600D01*
X149850961Y-125325845D01*
X149853806Y-125316466D01*
X149858427Y-125307821D01*
X149864645Y-125300245D01*
X149872221Y-125294027D01*
X149880866Y-125289406D01*
X149890245Y-125286561D01*
X149900000Y-125285600D01*
X150900000Y-125285600D01*
X150909755Y-125286561D01*
G37*
G36*
X153890245Y-126884639D02*
G01*
X153880866Y-126881794D01*
X153872221Y-126877173D01*
X153864645Y-126870955D01*
X153858397Y-126863335D01*
X153358397Y-126113335D01*
X153353786Y-126104686D01*
X153350951Y-126095303D01*
X153350000Y-126085548D01*
X153350971Y-126075794D01*
X153353826Y-126066418D01*
X153358397Y-126057865D01*
X153858397Y-125307865D01*
X153864608Y-125300282D01*
X153872178Y-125294056D01*
X153880818Y-125289426D01*
X153890194Y-125286571D01*
X153900000Y-125285600D01*
X154900000Y-125285600D01*
X154909755Y-125286561D01*
X154919134Y-125289406D01*
X154927779Y-125294027D01*
X154935355Y-125300245D01*
X154941573Y-125307821D01*
X154946194Y-125316466D01*
X154949039Y-125325845D01*
X154950000Y-125335600D01*
X154950000Y-126835600D01*
X154949039Y-126845355D01*
X154946194Y-126854734D01*
X154941573Y-126863379D01*
X154935355Y-126870955D01*
X154927779Y-126877173D01*
X154919134Y-126881794D01*
X154909755Y-126884639D01*
X154900000Y-126885600D01*
X153900000Y-126885600D01*
X153890245Y-126884639D01*
G37*
D13*
X153600000Y-126085600D03*
X151200000Y-126085600D03*
%TD*%
D14*
%TO.C,J2*%
X136499600Y-113182400D03*
X136499600Y-115722400D03*
X136499600Y-118262400D03*
X136499600Y-120802400D03*
X136499600Y-123342400D03*
X136499600Y-125882400D03*
X136499600Y-128422400D03*
D15*
X136499600Y-130962400D03*
%TD*%
D14*
%TO.C,J1*%
X136499600Y-92252800D03*
X139039600Y-92252800D03*
X136499600Y-94792800D03*
X139039600Y-94792800D03*
X136499600Y-97332800D03*
X139039600Y-97332800D03*
X136499600Y-99872800D03*
X139039600Y-99872800D03*
X136499600Y-102412800D03*
X139039600Y-102412800D03*
X136499600Y-104952800D03*
X139039600Y-104952800D03*
X136499600Y-107492800D03*
D15*
X139039600Y-107492800D03*
%TD*%
D16*
%TO.C,IC1*%
X150000000Y-100000000D03*
D17*
X152950000Y-96425000D03*
X152950000Y-97075000D03*
X152950000Y-97725000D03*
X152950000Y-98375000D03*
X152950000Y-99025000D03*
X152950000Y-99675000D03*
X152950000Y-100325000D03*
X152950000Y-100975000D03*
X152950000Y-101625000D03*
X152950000Y-102275000D03*
X152950000Y-102925000D03*
X152950000Y-103575000D03*
X147050000Y-103575000D03*
X147050000Y-102925000D03*
X147050000Y-102275000D03*
X147050000Y-101625000D03*
X147050000Y-100975000D03*
X147050000Y-100325000D03*
X147050000Y-99675000D03*
X147050000Y-99025000D03*
X147050000Y-98375000D03*
X147050000Y-97725000D03*
X147050000Y-97075000D03*
X147050000Y-96425000D03*
%TD*%
%TO.C,C5*%
G36*
G01*
X157449240Y-102233150D02*
X157449240Y-102795650D01*
G75*
G02*
X157205490Y-103039400I-243750J0D01*
G01*
X156717990Y-103039400D01*
G75*
G02*
X156474240Y-102795650I0J243750D01*
G01*
X156474240Y-102233150D01*
G75*
G02*
X156717990Y-101989400I243750J0D01*
G01*
X157205490Y-101989400D01*
G75*
G02*
X157449240Y-102233150I0J-243750D01*
G01*
G37*
G36*
G01*
X159024240Y-102233150D02*
X159024240Y-102795650D01*
G75*
G02*
X158780490Y-103039400I-243750J0D01*
G01*
X158292990Y-103039400D01*
G75*
G02*
X158049240Y-102795650I0J243750D01*
G01*
X158049240Y-102233150D01*
G75*
G02*
X158292990Y-101989400I243750J0D01*
G01*
X158780490Y-101989400D01*
G75*
G02*
X159024240Y-102233150I0J-243750D01*
G01*
G37*
%TD*%
%TO.C,C4*%
G36*
G01*
X157449240Y-105281150D02*
X157449240Y-105843650D01*
G75*
G02*
X157205490Y-106087400I-243750J0D01*
G01*
X156717990Y-106087400D01*
G75*
G02*
X156474240Y-105843650I0J243750D01*
G01*
X156474240Y-105281150D01*
G75*
G02*
X156717990Y-105037400I243750J0D01*
G01*
X157205490Y-105037400D01*
G75*
G02*
X157449240Y-105281150I0J-243750D01*
G01*
G37*
G36*
G01*
X159024240Y-105281150D02*
X159024240Y-105843650D01*
G75*
G02*
X158780490Y-106087400I-243750J0D01*
G01*
X158292990Y-106087400D01*
G75*
G02*
X158049240Y-105843650I0J243750D01*
G01*
X158049240Y-105281150D01*
G75*
G02*
X158292990Y-105037400I243750J0D01*
G01*
X158780490Y-105037400D01*
G75*
G02*
X159024240Y-105281150I0J-243750D01*
G01*
G37*
%TD*%
%TO.C,C3*%
G36*
G01*
X158049240Y-96699650D02*
X158049240Y-96137150D01*
G75*
G02*
X158292990Y-95893400I243750J0D01*
G01*
X158780490Y-95893400D01*
G75*
G02*
X159024240Y-96137150I0J-243750D01*
G01*
X159024240Y-96699650D01*
G75*
G02*
X158780490Y-96943400I-243750J0D01*
G01*
X158292990Y-96943400D01*
G75*
G02*
X158049240Y-96699650I0J243750D01*
G01*
G37*
G36*
G01*
X156474240Y-96699650D02*
X156474240Y-96137150D01*
G75*
G02*
X156717990Y-95893400I243750J0D01*
G01*
X157205490Y-95893400D01*
G75*
G02*
X157449240Y-96137150I0J-243750D01*
G01*
X157449240Y-96699650D01*
G75*
G02*
X157205490Y-96943400I-243750J0D01*
G01*
X156717990Y-96943400D01*
G75*
G02*
X156474240Y-96699650I0J243750D01*
G01*
G37*
%TD*%
%TO.C,C2*%
G36*
G01*
X157449240Y-103757150D02*
X157449240Y-104319650D01*
G75*
G02*
X157205490Y-104563400I-243750J0D01*
G01*
X156717990Y-104563400D01*
G75*
G02*
X156474240Y-104319650I0J243750D01*
G01*
X156474240Y-103757150D01*
G75*
G02*
X156717990Y-103513400I243750J0D01*
G01*
X157205490Y-103513400D01*
G75*
G02*
X157449240Y-103757150I0J-243750D01*
G01*
G37*
G36*
G01*
X159024240Y-103757150D02*
X159024240Y-104319650D01*
G75*
G02*
X158780490Y-104563400I-243750J0D01*
G01*
X158292990Y-104563400D01*
G75*
G02*
X158049240Y-104319650I0J243750D01*
G01*
X158049240Y-103757150D01*
G75*
G02*
X158292990Y-103513400I243750J0D01*
G01*
X158780490Y-103513400D01*
G75*
G02*
X159024240Y-103757150I0J-243750D01*
G01*
G37*
%TD*%
%TO.C,C1*%
G36*
G01*
X144299250Y-102468400D02*
X143736750Y-102468400D01*
G75*
G02*
X143493000Y-102224650I0J243750D01*
G01*
X143493000Y-101737150D01*
G75*
G02*
X143736750Y-101493400I243750J0D01*
G01*
X144299250Y-101493400D01*
G75*
G02*
X144543000Y-101737150I0J-243750D01*
G01*
X144543000Y-102224650D01*
G75*
G02*
X144299250Y-102468400I-243750J0D01*
G01*
G37*
G36*
G01*
X144299250Y-104043400D02*
X143736750Y-104043400D01*
G75*
G02*
X143493000Y-103799650I0J243750D01*
G01*
X143493000Y-103312150D01*
G75*
G02*
X143736750Y-103068400I243750J0D01*
G01*
X144299250Y-103068400D01*
G75*
G02*
X144543000Y-103312150I0J-243750D01*
G01*
X144543000Y-103799650D01*
G75*
G02*
X144299250Y-104043400I-243750J0D01*
G01*
G37*
%TD*%
M02*
