%TF.GenerationSoftware,KiCad,Pcbnew,(5.1.6)-1*%
%TF.CreationDate,2020-08-11T11:23:43+09:00*%
%TF.ProjectId,BLDC_MD_DRV10970,424c4443-5f4d-4445-9f44-525631303937,rev?*%
%TF.SameCoordinates,Original*%
%TF.FileFunction,Copper,L1,Top*%
%TF.FilePolarity,Positive*%
%FSLAX46Y46*%
G04 Gerber Fmt 4.6, Leading zero omitted, Abs format (unit mm)*
G04 Created by KiCad (PCBNEW (5.1.6)-1) date 2020-08-11 11:23:43*
%MOMM*%
%LPD*%
G01*
G04 APERTURE LIST*
%TA.AperFunction,NonConductor*%
%ADD10C,0.300000*%
%TD*%
%TA.AperFunction,SMDPad,CuDef*%
%ADD11R,1.000000X0.700000*%
%TD*%
%TA.AperFunction,SMDPad,CuDef*%
%ADD12C,0.100000*%
%TD*%
%TA.AperFunction,Conductor*%
%ADD13C,0.100000*%
%TD*%
%TA.AperFunction,ComponentPad*%
%ADD14O,1.700000X1.700000*%
%TD*%
%TA.AperFunction,ComponentPad*%
%ADD15R,1.700000X1.700000*%
%TD*%
%TA.AperFunction,SMDPad,CuDef*%
%ADD16R,2.400000X3.280000*%
%TD*%
%TA.AperFunction,SMDPad,CuDef*%
%ADD17R,1.500000X0.450000*%
%TD*%
%TA.AperFunction,ViaPad*%
%ADD18C,0.800000*%
%TD*%
%TA.AperFunction,ViaPad*%
%ADD19C,0.600000*%
%TD*%
%TA.AperFunction,Conductor*%
%ADD20C,0.406400*%
%TD*%
%TA.AperFunction,Conductor*%
%ADD21C,0.914400*%
%TD*%
%TA.AperFunction,Conductor*%
%ADD22C,1.016000*%
%TD*%
%TA.AperFunction,Conductor*%
%ADD23C,0.304800*%
%TD*%
%TA.AperFunction,Conductor*%
%ADD24C,0.025400*%
%TD*%
G04 APERTURE END LIST*
D10*
X167892857Y-118607142D02*
X167964285Y-118392857D01*
X168035714Y-118321428D01*
X168178571Y-118250000D01*
X168392857Y-118250000D01*
X168535714Y-118321428D01*
X168607142Y-118392857D01*
X168678571Y-118535714D01*
X168678571Y-119107142D01*
X167178571Y-119107142D01*
X167178571Y-118607142D01*
X167250000Y-118464285D01*
X167321428Y-118392857D01*
X167464285Y-118321428D01*
X167607142Y-118321428D01*
X167750000Y-118392857D01*
X167821428Y-118464285D01*
X167892857Y-118607142D01*
X167892857Y-119107142D01*
X168678571Y-116892857D02*
X168678571Y-117607142D01*
X167178571Y-117607142D01*
X168678571Y-116392857D02*
X167178571Y-116392857D01*
X167178571Y-116035714D01*
X167250000Y-115821428D01*
X167392857Y-115678571D01*
X167535714Y-115607142D01*
X167821428Y-115535714D01*
X168035714Y-115535714D01*
X168321428Y-115607142D01*
X168464285Y-115678571D01*
X168607142Y-115821428D01*
X168678571Y-116035714D01*
X168678571Y-116392857D01*
X168535714Y-114035714D02*
X168607142Y-114107142D01*
X168678571Y-114321428D01*
X168678571Y-114464285D01*
X168607142Y-114678571D01*
X168464285Y-114821428D01*
X168321428Y-114892857D01*
X168035714Y-114964285D01*
X167821428Y-114964285D01*
X167535714Y-114892857D01*
X167392857Y-114821428D01*
X167250000Y-114678571D01*
X167178571Y-114464285D01*
X167178571Y-114321428D01*
X167250000Y-114107142D01*
X167321428Y-114035714D01*
X168678571Y-112250000D02*
X167178571Y-112250000D01*
X168250000Y-111750000D01*
X167178571Y-111250000D01*
X168678571Y-111250000D01*
X168678571Y-110321428D02*
X168607142Y-110464285D01*
X168535714Y-110535714D01*
X168392857Y-110607142D01*
X167964285Y-110607142D01*
X167821428Y-110535714D01*
X167750000Y-110464285D01*
X167678571Y-110321428D01*
X167678571Y-110107142D01*
X167750000Y-109964285D01*
X167821428Y-109892857D01*
X167964285Y-109821428D01*
X168392857Y-109821428D01*
X168535714Y-109892857D01*
X168607142Y-109964285D01*
X168678571Y-110107142D01*
X168678571Y-110321428D01*
X167678571Y-109392857D02*
X167678571Y-108821428D01*
X167178571Y-109178571D02*
X168464285Y-109178571D01*
X168607142Y-109107142D01*
X168678571Y-108964285D01*
X168678571Y-108821428D01*
X168678571Y-108107142D02*
X168607142Y-108250000D01*
X168535714Y-108321428D01*
X168392857Y-108392857D01*
X167964285Y-108392857D01*
X167821428Y-108321428D01*
X167750000Y-108250000D01*
X167678571Y-108107142D01*
X167678571Y-107892857D01*
X167750000Y-107750000D01*
X167821428Y-107678571D01*
X167964285Y-107607142D01*
X168392857Y-107607142D01*
X168535714Y-107678571D01*
X168607142Y-107750000D01*
X168678571Y-107892857D01*
X168678571Y-108107142D01*
X168678571Y-106964285D02*
X167678571Y-106964285D01*
X167964285Y-106964285D02*
X167821428Y-106892857D01*
X167750000Y-106821428D01*
X167678571Y-106678571D01*
X167678571Y-106535714D01*
X168678571Y-104892857D02*
X167178571Y-104892857D01*
X167178571Y-104535714D01*
X167250000Y-104321428D01*
X167392857Y-104178571D01*
X167535714Y-104107142D01*
X167821428Y-104035714D01*
X168035714Y-104035714D01*
X168321428Y-104107142D01*
X168464285Y-104178571D01*
X168607142Y-104321428D01*
X168678571Y-104535714D01*
X168678571Y-104892857D01*
X168678571Y-103392857D02*
X167678571Y-103392857D01*
X167964285Y-103392857D02*
X167821428Y-103321428D01*
X167750000Y-103250000D01*
X167678571Y-103107142D01*
X167678571Y-102964285D01*
X168678571Y-102464285D02*
X167678571Y-102464285D01*
X167178571Y-102464285D02*
X167250000Y-102535714D01*
X167321428Y-102464285D01*
X167250000Y-102392857D01*
X167178571Y-102464285D01*
X167321428Y-102464285D01*
X167678571Y-101892857D02*
X168678571Y-101535714D01*
X167678571Y-101178571D01*
X168607142Y-100035714D02*
X168678571Y-100178571D01*
X168678571Y-100464285D01*
X168607142Y-100607142D01*
X168464285Y-100678571D01*
X167892857Y-100678571D01*
X167750000Y-100607142D01*
X167678571Y-100464285D01*
X167678571Y-100178571D01*
X167750000Y-100035714D01*
X167892857Y-99964285D01*
X168035714Y-99964285D01*
X168178571Y-100678571D01*
X168678571Y-99321428D02*
X167678571Y-99321428D01*
X167964285Y-99321428D02*
X167821428Y-99250000D01*
X167750000Y-99178571D01*
X167678571Y-99035714D01*
X167678571Y-98892857D01*
X167678571Y-97392857D02*
X168678571Y-97035714D01*
X167678571Y-96678571D01*
X168607142Y-95535714D02*
X168678571Y-95678571D01*
X168678571Y-95964285D01*
X168607142Y-96107142D01*
X168464285Y-96178571D01*
X167892857Y-96178571D01*
X167750000Y-96107142D01*
X167678571Y-95964285D01*
X167678571Y-95678571D01*
X167750000Y-95535714D01*
X167892857Y-95464285D01*
X168035714Y-95464285D01*
X168178571Y-96178571D01*
X168678571Y-94821428D02*
X167678571Y-94821428D01*
X167964285Y-94821428D02*
X167821428Y-94750000D01*
X167750000Y-94678571D01*
X167678571Y-94535714D01*
X167678571Y-94392857D01*
X168678571Y-91964285D02*
X168678571Y-92821428D01*
X168678571Y-92392857D02*
X167178571Y-92392857D01*
X167392857Y-92535714D01*
X167535714Y-92678571D01*
X167607142Y-92821428D01*
X168535714Y-91321428D02*
X168607142Y-91250000D01*
X168678571Y-91321428D01*
X168607142Y-91392857D01*
X168535714Y-91321428D01*
X168678571Y-91321428D01*
X167178571Y-90321428D02*
X167178571Y-90178571D01*
X167250000Y-90035714D01*
X167321428Y-89964285D01*
X167464285Y-89892857D01*
X167750000Y-89821428D01*
X168107142Y-89821428D01*
X168392857Y-89892857D01*
X168535714Y-89964285D01*
X168607142Y-90035714D01*
X168678571Y-90178571D01*
X168678571Y-90321428D01*
X168607142Y-90464285D01*
X168535714Y-90535714D01*
X168392857Y-90607142D01*
X168107142Y-90678571D01*
X167750000Y-90678571D01*
X167464285Y-90607142D01*
X167321428Y-90535714D01*
X167250000Y-90464285D01*
X167178571Y-90321428D01*
X170877771Y-119078800D02*
X169377771Y-119078800D01*
X169377771Y-118721657D01*
X169449200Y-118507371D01*
X169592057Y-118364514D01*
X169734914Y-118293085D01*
X170020628Y-118221657D01*
X170234914Y-118221657D01*
X170520628Y-118293085D01*
X170663485Y-118364514D01*
X170806342Y-118507371D01*
X170877771Y-118721657D01*
X170877771Y-119078800D01*
X170806342Y-117007371D02*
X170877771Y-117150228D01*
X170877771Y-117435942D01*
X170806342Y-117578800D01*
X170663485Y-117650228D01*
X170092057Y-117650228D01*
X169949200Y-117578800D01*
X169877771Y-117435942D01*
X169877771Y-117150228D01*
X169949200Y-117007371D01*
X170092057Y-116935942D01*
X170234914Y-116935942D01*
X170377771Y-117650228D01*
X170806342Y-116364514D02*
X170877771Y-116221657D01*
X170877771Y-115935942D01*
X170806342Y-115793085D01*
X170663485Y-115721657D01*
X170592057Y-115721657D01*
X170449200Y-115793085D01*
X170377771Y-115935942D01*
X170377771Y-116150228D01*
X170306342Y-116293085D01*
X170163485Y-116364514D01*
X170092057Y-116364514D01*
X169949200Y-116293085D01*
X169877771Y-116150228D01*
X169877771Y-115935942D01*
X169949200Y-115793085D01*
X170877771Y-115078800D02*
X169877771Y-115078800D01*
X169377771Y-115078800D02*
X169449200Y-115150228D01*
X169520628Y-115078800D01*
X169449200Y-115007371D01*
X169377771Y-115078800D01*
X169520628Y-115078800D01*
X169877771Y-113721657D02*
X171092057Y-113721657D01*
X171234914Y-113793085D01*
X171306342Y-113864514D01*
X171377771Y-114007371D01*
X171377771Y-114221657D01*
X171306342Y-114364514D01*
X170806342Y-113721657D02*
X170877771Y-113864514D01*
X170877771Y-114150228D01*
X170806342Y-114293085D01*
X170734914Y-114364514D01*
X170592057Y-114435942D01*
X170163485Y-114435942D01*
X170020628Y-114364514D01*
X169949200Y-114293085D01*
X169877771Y-114150228D01*
X169877771Y-113864514D01*
X169949200Y-113721657D01*
X169877771Y-113007371D02*
X170877771Y-113007371D01*
X170020628Y-113007371D02*
X169949200Y-112935942D01*
X169877771Y-112793085D01*
X169877771Y-112578800D01*
X169949200Y-112435942D01*
X170092057Y-112364514D01*
X170877771Y-112364514D01*
X170806342Y-111078800D02*
X170877771Y-111221657D01*
X170877771Y-111507371D01*
X170806342Y-111650228D01*
X170663485Y-111721657D01*
X170092057Y-111721657D01*
X169949200Y-111650228D01*
X169877771Y-111507371D01*
X169877771Y-111221657D01*
X169949200Y-111078800D01*
X170092057Y-111007371D01*
X170234914Y-111007371D01*
X170377771Y-111721657D01*
X170877771Y-109721657D02*
X169377771Y-109721657D01*
X170806342Y-109721657D02*
X170877771Y-109864514D01*
X170877771Y-110150228D01*
X170806342Y-110293085D01*
X170734914Y-110364514D01*
X170592057Y-110435942D01*
X170163485Y-110435942D01*
X170020628Y-110364514D01*
X169949200Y-110293085D01*
X169877771Y-110150228D01*
X169877771Y-109864514D01*
X169949200Y-109721657D01*
X170092057Y-107364514D02*
X170163485Y-107150228D01*
X170234914Y-107078800D01*
X170377771Y-107007371D01*
X170592057Y-107007371D01*
X170734914Y-107078800D01*
X170806342Y-107150228D01*
X170877771Y-107293085D01*
X170877771Y-107864514D01*
X169377771Y-107864514D01*
X169377771Y-107364514D01*
X169449200Y-107221657D01*
X169520628Y-107150228D01*
X169663485Y-107078800D01*
X169806342Y-107078800D01*
X169949200Y-107150228D01*
X170020628Y-107221657D01*
X170092057Y-107364514D01*
X170092057Y-107864514D01*
X169877771Y-106507371D02*
X170877771Y-106150228D01*
X169877771Y-105793085D02*
X170877771Y-106150228D01*
X171234914Y-106293085D01*
X171306342Y-106364514D01*
X171377771Y-106507371D01*
X170806342Y-104150228D02*
X170877771Y-103935942D01*
X170877771Y-103578800D01*
X170806342Y-103435942D01*
X170734914Y-103364514D01*
X170592057Y-103293085D01*
X170449200Y-103293085D01*
X170306342Y-103364514D01*
X170234914Y-103435942D01*
X170163485Y-103578800D01*
X170092057Y-103864514D01*
X170020628Y-104007371D01*
X169949200Y-104078800D01*
X169806342Y-104150228D01*
X169663485Y-104150228D01*
X169520628Y-104078800D01*
X169449200Y-104007371D01*
X169377771Y-103864514D01*
X169377771Y-103507371D01*
X169449200Y-103293085D01*
X170877771Y-102435942D02*
X170806342Y-102578800D01*
X170734914Y-102650228D01*
X170592057Y-102721657D01*
X170163485Y-102721657D01*
X170020628Y-102650228D01*
X169949200Y-102578800D01*
X169877771Y-102435942D01*
X169877771Y-102221657D01*
X169949200Y-102078800D01*
X170020628Y-102007371D01*
X170163485Y-101935942D01*
X170592057Y-101935942D01*
X170734914Y-102007371D01*
X170806342Y-102078800D01*
X170877771Y-102221657D01*
X170877771Y-102435942D01*
X169877771Y-100650228D02*
X170877771Y-100650228D01*
X169877771Y-101293085D02*
X170663485Y-101293085D01*
X170806342Y-101221657D01*
X170877771Y-101078800D01*
X170877771Y-100864514D01*
X170806342Y-100721657D01*
X170734914Y-100650228D01*
X170877771Y-99721657D02*
X170806342Y-99864514D01*
X170663485Y-99935942D01*
X169377771Y-99935942D01*
X170877771Y-98507371D02*
X170092057Y-98507371D01*
X169949200Y-98578800D01*
X169877771Y-98721657D01*
X169877771Y-99007371D01*
X169949200Y-99150228D01*
X170806342Y-98507371D02*
X170877771Y-98650228D01*
X170877771Y-99007371D01*
X170806342Y-99150228D01*
X170663485Y-99221657D01*
X170520628Y-99221657D01*
X170377771Y-99150228D01*
X170306342Y-99007371D01*
X170306342Y-98650228D01*
X170234914Y-98507371D01*
X170806342Y-97864514D02*
X170877771Y-97650228D01*
X170877771Y-97293085D01*
X170806342Y-97150228D01*
X170734914Y-97078800D01*
X170592057Y-97007371D01*
X170449200Y-97007371D01*
X170306342Y-97078800D01*
X170234914Y-97150228D01*
X170163485Y-97293085D01*
X170092057Y-97578800D01*
X170020628Y-97721657D01*
X169949200Y-97793085D01*
X169806342Y-97864514D01*
X169663485Y-97864514D01*
X169520628Y-97793085D01*
X169449200Y-97721657D01*
X169377771Y-97578800D01*
X169377771Y-97221657D01*
X169449200Y-97007371D01*
X166428571Y-119214285D02*
X164928571Y-119214285D01*
X164928571Y-118642857D01*
X165000000Y-118500000D01*
X165071428Y-118428571D01*
X165214285Y-118357142D01*
X165428571Y-118357142D01*
X165571428Y-118428571D01*
X165642857Y-118500000D01*
X165714285Y-118642857D01*
X165714285Y-119214285D01*
X166428571Y-117714285D02*
X165428571Y-117714285D01*
X165714285Y-117714285D02*
X165571428Y-117642857D01*
X165500000Y-117571428D01*
X165428571Y-117428571D01*
X165428571Y-117285714D01*
X166428571Y-116571428D02*
X166357142Y-116714285D01*
X166285714Y-116785714D01*
X166142857Y-116857142D01*
X165714285Y-116857142D01*
X165571428Y-116785714D01*
X165500000Y-116714285D01*
X165428571Y-116571428D01*
X165428571Y-116357142D01*
X165500000Y-116214285D01*
X165571428Y-116142857D01*
X165714285Y-116071428D01*
X166142857Y-116071428D01*
X166285714Y-116142857D01*
X166357142Y-116214285D01*
X166428571Y-116357142D01*
X166428571Y-116571428D01*
X165428571Y-115428571D02*
X166714285Y-115428571D01*
X166857142Y-115500000D01*
X166928571Y-115642857D01*
X166928571Y-115714285D01*
X164928571Y-115428571D02*
X165000000Y-115500000D01*
X165071428Y-115428571D01*
X165000000Y-115357142D01*
X164928571Y-115428571D01*
X165071428Y-115428571D01*
X166357142Y-114142857D02*
X166428571Y-114285714D01*
X166428571Y-114571428D01*
X166357142Y-114714285D01*
X166214285Y-114785714D01*
X165642857Y-114785714D01*
X165500000Y-114714285D01*
X165428571Y-114571428D01*
X165428571Y-114285714D01*
X165500000Y-114142857D01*
X165642857Y-114071428D01*
X165785714Y-114071428D01*
X165928571Y-114785714D01*
X166357142Y-112785714D02*
X166428571Y-112928571D01*
X166428571Y-113214285D01*
X166357142Y-113357142D01*
X166285714Y-113428571D01*
X166142857Y-113500000D01*
X165714285Y-113500000D01*
X165571428Y-113428571D01*
X165500000Y-113357142D01*
X165428571Y-113214285D01*
X165428571Y-112928571D01*
X165500000Y-112785714D01*
X165428571Y-112357142D02*
X165428571Y-111785714D01*
X164928571Y-112142857D02*
X166214285Y-112142857D01*
X166357142Y-112071428D01*
X166428571Y-111928571D01*
X166428571Y-111785714D01*
X166428571Y-110142857D02*
X164928571Y-110142857D01*
X165642857Y-110142857D02*
X165642857Y-109285714D01*
X166428571Y-109285714D02*
X164928571Y-109285714D01*
X166000000Y-108642857D02*
X166000000Y-107928571D01*
X166428571Y-108785714D02*
X164928571Y-108285714D01*
X166428571Y-107785714D01*
X166428571Y-106428571D02*
X165714285Y-106928571D01*
X166428571Y-107285714D02*
X164928571Y-107285714D01*
X164928571Y-106714285D01*
X165000000Y-106571428D01*
X165071428Y-106500000D01*
X165214285Y-106428571D01*
X165428571Y-106428571D01*
X165571428Y-106500000D01*
X165642857Y-106571428D01*
X165714285Y-106714285D01*
X165714285Y-107285714D01*
X166428571Y-105785714D02*
X164928571Y-105785714D01*
X164928571Y-105214285D01*
X165000000Y-105071428D01*
X165071428Y-105000000D01*
X165214285Y-104928571D01*
X165428571Y-104928571D01*
X165571428Y-105000000D01*
X165642857Y-105071428D01*
X165714285Y-105214285D01*
X165714285Y-105785714D01*
X166285714Y-104285714D02*
X166357142Y-104214285D01*
X166428571Y-104285714D01*
X166357142Y-104357142D01*
X166285714Y-104285714D01*
X166428571Y-104285714D01*
X163112000Y-133600000D02*
X163826285Y-133600000D01*
X162969142Y-134028571D02*
X163469142Y-132528571D01*
X163969142Y-134028571D01*
X164469142Y-133028571D02*
X164469142Y-134028571D01*
X164469142Y-133171428D02*
X164540571Y-133100000D01*
X164683428Y-133028571D01*
X164897714Y-133028571D01*
X165040571Y-133100000D01*
X165112000Y-133242857D01*
X165112000Y-134028571D01*
X166469142Y-133028571D02*
X166469142Y-134242857D01*
X166397714Y-134385714D01*
X166326285Y-134457142D01*
X166183428Y-134528571D01*
X165969142Y-134528571D01*
X165826285Y-134457142D01*
X166469142Y-133957142D02*
X166326285Y-134028571D01*
X166040571Y-134028571D01*
X165897714Y-133957142D01*
X165826285Y-133885714D01*
X165754857Y-133742857D01*
X165754857Y-133314285D01*
X165826285Y-133171428D01*
X165897714Y-133100000D01*
X166040571Y-133028571D01*
X166326285Y-133028571D01*
X166469142Y-133100000D01*
X167397714Y-134028571D02*
X167254857Y-133957142D01*
X167183428Y-133814285D01*
X167183428Y-132528571D01*
X168540571Y-133957142D02*
X168397714Y-134028571D01*
X168112000Y-134028571D01*
X167969142Y-133957142D01*
X167897714Y-133814285D01*
X167897714Y-133242857D01*
X167969142Y-133100000D01*
X168112000Y-133028571D01*
X168397714Y-133028571D01*
X168540571Y-133100000D01*
X168612000Y-133242857D01*
X168612000Y-133385714D01*
X167897714Y-133528571D01*
X164477142Y-126916571D02*
X164477142Y-125416571D01*
X164477142Y-126130857D02*
X165334285Y-126130857D01*
X165334285Y-126916571D02*
X165334285Y-125416571D01*
X166691428Y-126916571D02*
X166691428Y-126130857D01*
X166620000Y-125988000D01*
X166477142Y-125916571D01*
X166191428Y-125916571D01*
X166048571Y-125988000D01*
X166691428Y-126845142D02*
X166548571Y-126916571D01*
X166191428Y-126916571D01*
X166048571Y-126845142D01*
X165977142Y-126702285D01*
X165977142Y-126559428D01*
X166048571Y-126416571D01*
X166191428Y-126345142D01*
X166548571Y-126345142D01*
X166691428Y-126273714D01*
X167620000Y-126916571D02*
X167477142Y-126845142D01*
X167405714Y-126702285D01*
X167405714Y-125416571D01*
X168405714Y-126916571D02*
X168262857Y-126845142D01*
X168191428Y-126702285D01*
X168191428Y-125416571D01*
X147613714Y-132528571D02*
X146899428Y-132528571D01*
X146828000Y-133242857D01*
X146899428Y-133171428D01*
X147042285Y-133100000D01*
X147399428Y-133100000D01*
X147542285Y-133171428D01*
X147613714Y-133242857D01*
X147685142Y-133385714D01*
X147685142Y-133742857D01*
X147613714Y-133885714D01*
X147542285Y-133957142D01*
X147399428Y-134028571D01*
X147042285Y-134028571D01*
X146899428Y-133957142D01*
X146828000Y-133885714D01*
X148542285Y-132528571D02*
X148399428Y-132600000D01*
X148328000Y-132742857D01*
X148399428Y-132885714D01*
X148542285Y-132957142D01*
X148685142Y-132885714D01*
X148756571Y-132742857D01*
X148685142Y-132600000D01*
X148542285Y-132528571D01*
X158146857Y-134028571D02*
X157289714Y-134028571D01*
X157718285Y-134028571D02*
X157718285Y-132528571D01*
X157575428Y-132742857D01*
X157432571Y-132885714D01*
X157289714Y-132957142D01*
X159075428Y-132528571D02*
X159218285Y-132528571D01*
X159361142Y-132600000D01*
X159432571Y-132671428D01*
X159504000Y-132814285D01*
X159575428Y-133100000D01*
X159575428Y-133457142D01*
X159504000Y-133742857D01*
X159432571Y-133885714D01*
X159361142Y-133957142D01*
X159218285Y-134028571D01*
X159075428Y-134028571D01*
X158932571Y-133957142D01*
X158861142Y-133885714D01*
X158789714Y-133742857D01*
X158718285Y-133457142D01*
X158718285Y-133100000D01*
X158789714Y-132814285D01*
X158861142Y-132671428D01*
X158932571Y-132600000D01*
X159075428Y-132528571D01*
X160432571Y-132528571D02*
X160289714Y-132600000D01*
X160218285Y-132742857D01*
X160289714Y-132885714D01*
X160432571Y-132957142D01*
X160575428Y-132885714D01*
X160646857Y-132742857D01*
X160575428Y-132600000D01*
X160432571Y-132528571D01*
X158155142Y-130075714D02*
X158083714Y-130147142D01*
X157869428Y-130218571D01*
X157726571Y-130218571D01*
X157512285Y-130147142D01*
X157369428Y-130004285D01*
X157298000Y-129861428D01*
X157226571Y-129575714D01*
X157226571Y-129361428D01*
X157298000Y-129075714D01*
X157369428Y-128932857D01*
X157512285Y-128790000D01*
X157726571Y-128718571D01*
X157869428Y-128718571D01*
X158083714Y-128790000D01*
X158155142Y-128861428D01*
X159012285Y-130218571D02*
X158869428Y-130147142D01*
X158798000Y-130075714D01*
X158726571Y-129932857D01*
X158726571Y-129504285D01*
X158798000Y-129361428D01*
X158869428Y-129290000D01*
X159012285Y-129218571D01*
X159226571Y-129218571D01*
X159369428Y-129290000D01*
X159440857Y-129361428D01*
X159512285Y-129504285D01*
X159512285Y-129932857D01*
X159440857Y-130075714D01*
X159369428Y-130147142D01*
X159226571Y-130218571D01*
X159012285Y-130218571D01*
X160798000Y-130218571D02*
X160798000Y-129432857D01*
X160726571Y-129290000D01*
X160583714Y-129218571D01*
X160298000Y-129218571D01*
X160155142Y-129290000D01*
X160798000Y-130147142D02*
X160655142Y-130218571D01*
X160298000Y-130218571D01*
X160155142Y-130147142D01*
X160083714Y-130004285D01*
X160083714Y-129861428D01*
X160155142Y-129718571D01*
X160298000Y-129647142D01*
X160655142Y-129647142D01*
X160798000Y-129575714D01*
X161440857Y-130147142D02*
X161583714Y-130218571D01*
X161869428Y-130218571D01*
X162012285Y-130147142D01*
X162083714Y-130004285D01*
X162083714Y-129932857D01*
X162012285Y-129790000D01*
X161869428Y-129718571D01*
X161655142Y-129718571D01*
X161512285Y-129647142D01*
X161440857Y-129504285D01*
X161440857Y-129432857D01*
X161512285Y-129290000D01*
X161655142Y-129218571D01*
X161869428Y-129218571D01*
X162012285Y-129290000D01*
X162512285Y-129218571D02*
X163083714Y-129218571D01*
X162726571Y-128718571D02*
X162726571Y-130004285D01*
X162798000Y-130147142D01*
X162940857Y-130218571D01*
X163083714Y-130218571D01*
X163583714Y-130218571D02*
X163583714Y-129218571D01*
X163583714Y-128718571D02*
X163512285Y-128790000D01*
X163583714Y-128861428D01*
X163655142Y-128790000D01*
X163583714Y-128718571D01*
X163583714Y-128861428D01*
X164298000Y-129218571D02*
X164298000Y-130218571D01*
X164298000Y-129361428D02*
X164369428Y-129290000D01*
X164512285Y-129218571D01*
X164726571Y-129218571D01*
X164869428Y-129290000D01*
X164940857Y-129432857D01*
X164940857Y-130218571D01*
X166298000Y-129218571D02*
X166298000Y-130432857D01*
X166226571Y-130575714D01*
X166155142Y-130647142D01*
X166012285Y-130718571D01*
X165798000Y-130718571D01*
X165655142Y-130647142D01*
X166298000Y-130147142D02*
X166155142Y-130218571D01*
X165869428Y-130218571D01*
X165726571Y-130147142D01*
X165655142Y-130075714D01*
X165583714Y-129932857D01*
X165583714Y-129504285D01*
X165655142Y-129361428D01*
X165726571Y-129290000D01*
X165869428Y-129218571D01*
X166155142Y-129218571D01*
X166298000Y-129290000D01*
X142827714Y-129432857D02*
X143042000Y-129504285D01*
X143113428Y-129575714D01*
X143184857Y-129718571D01*
X143184857Y-129932857D01*
X143113428Y-130075714D01*
X143042000Y-130147142D01*
X142899142Y-130218571D01*
X142327714Y-130218571D01*
X142327714Y-128718571D01*
X142827714Y-128718571D01*
X142970571Y-128790000D01*
X143042000Y-128861428D01*
X143113428Y-129004285D01*
X143113428Y-129147142D01*
X143042000Y-129290000D01*
X142970571Y-129361428D01*
X142827714Y-129432857D01*
X142327714Y-129432857D01*
X144684857Y-130218571D02*
X144184857Y-129504285D01*
X143827714Y-130218571D02*
X143827714Y-128718571D01*
X144399142Y-128718571D01*
X144542000Y-128790000D01*
X144613428Y-128861428D01*
X144684857Y-129004285D01*
X144684857Y-129218571D01*
X144613428Y-129361428D01*
X144542000Y-129432857D01*
X144399142Y-129504285D01*
X143827714Y-129504285D01*
X145256285Y-129790000D02*
X145970571Y-129790000D01*
X145113428Y-130218571D02*
X145613428Y-128718571D01*
X146113428Y-130218571D01*
X146613428Y-130218571D02*
X146613428Y-128718571D01*
X147470571Y-130218571D02*
X146827714Y-129361428D01*
X147470571Y-128718571D02*
X146613428Y-129575714D01*
X148113428Y-129432857D02*
X148613428Y-129432857D01*
X148827714Y-130218571D02*
X148113428Y-130218571D01*
X148113428Y-128718571D01*
X148827714Y-128718571D01*
X145280285Y-125416571D02*
X146208857Y-125416571D01*
X145708857Y-125988000D01*
X145923142Y-125988000D01*
X146066000Y-126059428D01*
X146137428Y-126130857D01*
X146208857Y-126273714D01*
X146208857Y-126630857D01*
X146137428Y-126773714D01*
X146066000Y-126845142D01*
X145923142Y-126916571D01*
X145494571Y-126916571D01*
X145351714Y-126845142D01*
X145280285Y-126773714D01*
X147137428Y-125416571D02*
X147280285Y-125416571D01*
X147423142Y-125488000D01*
X147494571Y-125559428D01*
X147566000Y-125702285D01*
X147637428Y-125988000D01*
X147637428Y-126345142D01*
X147566000Y-126630857D01*
X147494571Y-126773714D01*
X147423142Y-126845142D01*
X147280285Y-126916571D01*
X147137428Y-126916571D01*
X146994571Y-126845142D01*
X146923142Y-126773714D01*
X146851714Y-126630857D01*
X146780285Y-126345142D01*
X146780285Y-125988000D01*
X146851714Y-125702285D01*
X146923142Y-125559428D01*
X146994571Y-125488000D01*
X147137428Y-125416571D01*
X148494571Y-125416571D02*
X148351714Y-125488000D01*
X148280285Y-125630857D01*
X148351714Y-125773714D01*
X148494571Y-125845142D01*
X148637428Y-125773714D01*
X148708857Y-125630857D01*
X148637428Y-125488000D01*
X148494571Y-125416571D01*
X157599142Y-125416571D02*
X157742000Y-125416571D01*
X157884857Y-125488000D01*
X157956285Y-125559428D01*
X158027714Y-125702285D01*
X158099142Y-125988000D01*
X158099142Y-126345142D01*
X158027714Y-126630857D01*
X157956285Y-126773714D01*
X157884857Y-126845142D01*
X157742000Y-126916571D01*
X157599142Y-126916571D01*
X157456285Y-126845142D01*
X157384857Y-126773714D01*
X157313428Y-126630857D01*
X157242000Y-126345142D01*
X157242000Y-125988000D01*
X157313428Y-125702285D01*
X157384857Y-125559428D01*
X157456285Y-125488000D01*
X157599142Y-125416571D01*
X158956285Y-125416571D02*
X158813428Y-125488000D01*
X158742000Y-125630857D01*
X158813428Y-125773714D01*
X158956285Y-125845142D01*
X159099142Y-125773714D01*
X159170571Y-125630857D01*
X159099142Y-125488000D01*
X158956285Y-125416571D01*
%TO.P,R15,2*%
%TO.N,Net-(JP3-Pad2)*%
%TA.AperFunction,SMDPad,CuDef*%
G36*
G01*
X158099240Y-98198650D02*
X158099240Y-97686150D01*
G75*
G02*
X158317990Y-97467400I218750J0D01*
G01*
X158755490Y-97467400D01*
G75*
G02*
X158974240Y-97686150I0J-218750D01*
G01*
X158974240Y-98198650D01*
G75*
G02*
X158755490Y-98417400I-218750J0D01*
G01*
X158317990Y-98417400D01*
G75*
G02*
X158099240Y-98198650I0J218750D01*
G01*
G37*
%TD.AperFunction*%
%TO.P,R15,1*%
%TO.N,/BRKMOD*%
%TA.AperFunction,SMDPad,CuDef*%
G36*
G01*
X156524240Y-98198650D02*
X156524240Y-97686150D01*
G75*
G02*
X156742990Y-97467400I218750J0D01*
G01*
X157180490Y-97467400D01*
G75*
G02*
X157399240Y-97686150I0J-218750D01*
G01*
X157399240Y-98198650D01*
G75*
G02*
X157180490Y-98417400I-218750J0D01*
G01*
X156742990Y-98417400D01*
G75*
G02*
X156524240Y-98198650I0J218750D01*
G01*
G37*
%TD.AperFunction*%
%TD*%
%TO.P,R14,2*%
%TO.N,Net-(JP2-Pad2)*%
%TA.AperFunction,SMDPad,CuDef*%
G36*
G01*
X147060400Y-94998250D02*
X147060400Y-94485750D01*
G75*
G02*
X147279150Y-94267000I218750J0D01*
G01*
X147716650Y-94267000D01*
G75*
G02*
X147935400Y-94485750I0J-218750D01*
G01*
X147935400Y-94998250D01*
G75*
G02*
X147716650Y-95217000I-218750J0D01*
G01*
X147279150Y-95217000D01*
G75*
G02*
X147060400Y-94998250I0J218750D01*
G01*
G37*
%TD.AperFunction*%
%TO.P,R14,1*%
%TO.N,/DAA*%
%TA.AperFunction,SMDPad,CuDef*%
G36*
G01*
X145485400Y-94998250D02*
X145485400Y-94485750D01*
G75*
G02*
X145704150Y-94267000I218750J0D01*
G01*
X146141650Y-94267000D01*
G75*
G02*
X146360400Y-94485750I0J-218750D01*
G01*
X146360400Y-94998250D01*
G75*
G02*
X146141650Y-95217000I-218750J0D01*
G01*
X145704150Y-95217000D01*
G75*
G02*
X145485400Y-94998250I0J218750D01*
G01*
G37*
%TD.AperFunction*%
%TD*%
%TO.P,R13,2*%
%TO.N,GND*%
%TA.AperFunction,SMDPad,CuDef*%
G36*
G01*
X158099240Y-101246650D02*
X158099240Y-100734150D01*
G75*
G02*
X158317990Y-100515400I218750J0D01*
G01*
X158755490Y-100515400D01*
G75*
G02*
X158974240Y-100734150I0J-218750D01*
G01*
X158974240Y-101246650D01*
G75*
G02*
X158755490Y-101465400I-218750J0D01*
G01*
X158317990Y-101465400D01*
G75*
G02*
X158099240Y-101246650I0J218750D01*
G01*
G37*
%TD.AperFunction*%
%TO.P,R13,1*%
%TO.N,/CS*%
%TA.AperFunction,SMDPad,CuDef*%
G36*
G01*
X156524240Y-101246650D02*
X156524240Y-100734150D01*
G75*
G02*
X156742990Y-100515400I218750J0D01*
G01*
X157180490Y-100515400D01*
G75*
G02*
X157399240Y-100734150I0J-218750D01*
G01*
X157399240Y-101246650D01*
G75*
G02*
X157180490Y-101465400I-218750J0D01*
G01*
X156742990Y-101465400D01*
G75*
G02*
X156524240Y-101246650I0J218750D01*
G01*
G37*
%TD.AperFunction*%
%TD*%
%TO.P,R12,2*%
%TO.N,/FR*%
%TA.AperFunction,SMDPad,CuDef*%
G36*
G01*
X154937750Y-118358400D02*
X155450250Y-118358400D01*
G75*
G02*
X155669000Y-118577150I0J-218750D01*
G01*
X155669000Y-119014650D01*
G75*
G02*
X155450250Y-119233400I-218750J0D01*
G01*
X154937750Y-119233400D01*
G75*
G02*
X154719000Y-119014650I0J218750D01*
G01*
X154719000Y-118577150D01*
G75*
G02*
X154937750Y-118358400I218750J0D01*
G01*
G37*
%TD.AperFunction*%
%TO.P,R12,1*%
%TO.N,+5V*%
%TA.AperFunction,SMDPad,CuDef*%
G36*
G01*
X154937750Y-116783400D02*
X155450250Y-116783400D01*
G75*
G02*
X155669000Y-117002150I0J-218750D01*
G01*
X155669000Y-117439650D01*
G75*
G02*
X155450250Y-117658400I-218750J0D01*
G01*
X154937750Y-117658400D01*
G75*
G02*
X154719000Y-117439650I0J218750D01*
G01*
X154719000Y-117002150D01*
G75*
G02*
X154937750Y-116783400I218750J0D01*
G01*
G37*
%TD.AperFunction*%
%TD*%
%TO.P,R11,2*%
%TO.N,Net-(JP1-Pad2)*%
%TA.AperFunction,SMDPad,CuDef*%
G36*
G01*
X158099240Y-99722650D02*
X158099240Y-99210150D01*
G75*
G02*
X158317990Y-98991400I218750J0D01*
G01*
X158755490Y-98991400D01*
G75*
G02*
X158974240Y-99210150I0J-218750D01*
G01*
X158974240Y-99722650D01*
G75*
G02*
X158755490Y-99941400I-218750J0D01*
G01*
X158317990Y-99941400D01*
G75*
G02*
X158099240Y-99722650I0J218750D01*
G01*
G37*
%TD.AperFunction*%
%TO.P,R11,1*%
%TO.N,/CMTMOD*%
%TA.AperFunction,SMDPad,CuDef*%
G36*
G01*
X156524240Y-99722650D02*
X156524240Y-99210150D01*
G75*
G02*
X156742990Y-98991400I218750J0D01*
G01*
X157180490Y-98991400D01*
G75*
G02*
X157399240Y-99210150I0J-218750D01*
G01*
X157399240Y-99722650D01*
G75*
G02*
X157180490Y-99941400I-218750J0D01*
G01*
X156742990Y-99941400D01*
G75*
G02*
X156524240Y-99722650I0J218750D01*
G01*
G37*
%TD.AperFunction*%
%TD*%
%TO.P,R10,2*%
%TO.N,/RD*%
%TA.AperFunction,SMDPad,CuDef*%
G36*
G01*
X154937750Y-111195600D02*
X155450250Y-111195600D01*
G75*
G02*
X155669000Y-111414350I0J-218750D01*
G01*
X155669000Y-111851850D01*
G75*
G02*
X155450250Y-112070600I-218750J0D01*
G01*
X154937750Y-112070600D01*
G75*
G02*
X154719000Y-111851850I0J218750D01*
G01*
X154719000Y-111414350D01*
G75*
G02*
X154937750Y-111195600I218750J0D01*
G01*
G37*
%TD.AperFunction*%
%TO.P,R10,1*%
%TO.N,+5V*%
%TA.AperFunction,SMDPad,CuDef*%
G36*
G01*
X154937750Y-109620600D02*
X155450250Y-109620600D01*
G75*
G02*
X155669000Y-109839350I0J-218750D01*
G01*
X155669000Y-110276850D01*
G75*
G02*
X155450250Y-110495600I-218750J0D01*
G01*
X154937750Y-110495600D01*
G75*
G02*
X154719000Y-110276850I0J218750D01*
G01*
X154719000Y-109839350D01*
G75*
G02*
X154937750Y-109620600I218750J0D01*
G01*
G37*
%TD.AperFunction*%
%TD*%
%TO.P,R9,2*%
%TO.N,/FG*%
%TA.AperFunction,SMDPad,CuDef*%
G36*
G01*
X154937750Y-122016000D02*
X155450250Y-122016000D01*
G75*
G02*
X155669000Y-122234750I0J-218750D01*
G01*
X155669000Y-122672250D01*
G75*
G02*
X155450250Y-122891000I-218750J0D01*
G01*
X154937750Y-122891000D01*
G75*
G02*
X154719000Y-122672250I0J218750D01*
G01*
X154719000Y-122234750D01*
G75*
G02*
X154937750Y-122016000I218750J0D01*
G01*
G37*
%TD.AperFunction*%
%TO.P,R9,1*%
%TO.N,+5V*%
%TA.AperFunction,SMDPad,CuDef*%
G36*
G01*
X154937750Y-120441000D02*
X155450250Y-120441000D01*
G75*
G02*
X155669000Y-120659750I0J-218750D01*
G01*
X155669000Y-121097250D01*
G75*
G02*
X155450250Y-121316000I-218750J0D01*
G01*
X154937750Y-121316000D01*
G75*
G02*
X154719000Y-121097250I0J218750D01*
G01*
X154719000Y-120659750D01*
G75*
G02*
X154937750Y-120441000I218750J0D01*
G01*
G37*
%TD.AperFunction*%
%TD*%
%TO.P,R8,2*%
%TO.N,/RD*%
%TA.AperFunction,SMDPad,CuDef*%
G36*
G01*
X151940550Y-111220900D02*
X152453050Y-111220900D01*
G75*
G02*
X152671800Y-111439650I0J-218750D01*
G01*
X152671800Y-111877150D01*
G75*
G02*
X152453050Y-112095900I-218750J0D01*
G01*
X151940550Y-112095900D01*
G75*
G02*
X151721800Y-111877150I0J218750D01*
G01*
X151721800Y-111439650D01*
G75*
G02*
X151940550Y-111220900I218750J0D01*
G01*
G37*
%TD.AperFunction*%
%TO.P,R8,1*%
%TO.N,+5V*%
%TA.AperFunction,SMDPad,CuDef*%
G36*
G01*
X151940550Y-109645900D02*
X152453050Y-109645900D01*
G75*
G02*
X152671800Y-109864650I0J-218750D01*
G01*
X152671800Y-110302150D01*
G75*
G02*
X152453050Y-110520900I-218750J0D01*
G01*
X151940550Y-110520900D01*
G75*
G02*
X151721800Y-110302150I0J218750D01*
G01*
X151721800Y-109864650D01*
G75*
G02*
X151940550Y-109645900I218750J0D01*
G01*
G37*
%TD.AperFunction*%
%TD*%
%TO.P,R7,2*%
%TO.N,/PWM*%
%TA.AperFunction,SMDPad,CuDef*%
G36*
G01*
X151940550Y-114751600D02*
X152453050Y-114751600D01*
G75*
G02*
X152671800Y-114970350I0J-218750D01*
G01*
X152671800Y-115407850D01*
G75*
G02*
X152453050Y-115626600I-218750J0D01*
G01*
X151940550Y-115626600D01*
G75*
G02*
X151721800Y-115407850I0J218750D01*
G01*
X151721800Y-114970350D01*
G75*
G02*
X151940550Y-114751600I218750J0D01*
G01*
G37*
%TD.AperFunction*%
%TO.P,R7,1*%
%TO.N,+5V*%
%TA.AperFunction,SMDPad,CuDef*%
G36*
G01*
X151940550Y-113176600D02*
X152453050Y-113176600D01*
G75*
G02*
X152671800Y-113395350I0J-218750D01*
G01*
X152671800Y-113832850D01*
G75*
G02*
X152453050Y-114051600I-218750J0D01*
G01*
X151940550Y-114051600D01*
G75*
G02*
X151721800Y-113832850I0J218750D01*
G01*
X151721800Y-113395350D01*
G75*
G02*
X151940550Y-113176600I218750J0D01*
G01*
G37*
%TD.AperFunction*%
%TD*%
%TO.P,R6,2*%
%TO.N,/FR*%
%TA.AperFunction,SMDPad,CuDef*%
G36*
G01*
X151940550Y-118332900D02*
X152453050Y-118332900D01*
G75*
G02*
X152671800Y-118551650I0J-218750D01*
G01*
X152671800Y-118989150D01*
G75*
G02*
X152453050Y-119207900I-218750J0D01*
G01*
X151940550Y-119207900D01*
G75*
G02*
X151721800Y-118989150I0J218750D01*
G01*
X151721800Y-118551650D01*
G75*
G02*
X151940550Y-118332900I218750J0D01*
G01*
G37*
%TD.AperFunction*%
%TO.P,R6,1*%
%TO.N,+5V*%
%TA.AperFunction,SMDPad,CuDef*%
G36*
G01*
X151940550Y-116757900D02*
X152453050Y-116757900D01*
G75*
G02*
X152671800Y-116976650I0J-218750D01*
G01*
X152671800Y-117414150D01*
G75*
G02*
X152453050Y-117632900I-218750J0D01*
G01*
X151940550Y-117632900D01*
G75*
G02*
X151721800Y-117414150I0J218750D01*
G01*
X151721800Y-116976650D01*
G75*
G02*
X151940550Y-116757900I218750J0D01*
G01*
G37*
%TD.AperFunction*%
%TD*%
%TO.P,R5,2*%
%TO.N,/FG*%
%TA.AperFunction,SMDPad,CuDef*%
G36*
G01*
X151991350Y-122016000D02*
X152503850Y-122016000D01*
G75*
G02*
X152722600Y-122234750I0J-218750D01*
G01*
X152722600Y-122672250D01*
G75*
G02*
X152503850Y-122891000I-218750J0D01*
G01*
X151991350Y-122891000D01*
G75*
G02*
X151772600Y-122672250I0J218750D01*
G01*
X151772600Y-122234750D01*
G75*
G02*
X151991350Y-122016000I218750J0D01*
G01*
G37*
%TD.AperFunction*%
%TO.P,R5,1*%
%TO.N,+5V*%
%TA.AperFunction,SMDPad,CuDef*%
G36*
G01*
X151991350Y-120441000D02*
X152503850Y-120441000D01*
G75*
G02*
X152722600Y-120659750I0J-218750D01*
G01*
X152722600Y-121097250D01*
G75*
G02*
X152503850Y-121316000I-218750J0D01*
G01*
X151991350Y-121316000D01*
G75*
G02*
X151772600Y-121097250I0J218750D01*
G01*
X151772600Y-120659750D01*
G75*
G02*
X151991350Y-120441000I218750J0D01*
G01*
G37*
%TD.AperFunction*%
%TD*%
%TO.P,R4,2*%
%TO.N,/RD3V3*%
%TA.AperFunction,SMDPad,CuDef*%
G36*
G01*
X146403350Y-111170100D02*
X146915850Y-111170100D01*
G75*
G02*
X147134600Y-111388850I0J-218750D01*
G01*
X147134600Y-111826350D01*
G75*
G02*
X146915850Y-112045100I-218750J0D01*
G01*
X146403350Y-112045100D01*
G75*
G02*
X146184600Y-111826350I0J218750D01*
G01*
X146184600Y-111388850D01*
G75*
G02*
X146403350Y-111170100I218750J0D01*
G01*
G37*
%TD.AperFunction*%
%TO.P,R4,1*%
%TO.N,+3V3*%
%TA.AperFunction,SMDPad,CuDef*%
G36*
G01*
X146403350Y-109595100D02*
X146915850Y-109595100D01*
G75*
G02*
X147134600Y-109813850I0J-218750D01*
G01*
X147134600Y-110251350D01*
G75*
G02*
X146915850Y-110470100I-218750J0D01*
G01*
X146403350Y-110470100D01*
G75*
G02*
X146184600Y-110251350I0J218750D01*
G01*
X146184600Y-109813850D01*
G75*
G02*
X146403350Y-109595100I218750J0D01*
G01*
G37*
%TD.AperFunction*%
%TD*%
%TO.P,R3,2*%
%TO.N,/PWM3V3*%
%TA.AperFunction,SMDPad,CuDef*%
G36*
G01*
X146403350Y-114751600D02*
X146915850Y-114751600D01*
G75*
G02*
X147134600Y-114970350I0J-218750D01*
G01*
X147134600Y-115407850D01*
G75*
G02*
X146915850Y-115626600I-218750J0D01*
G01*
X146403350Y-115626600D01*
G75*
G02*
X146184600Y-115407850I0J218750D01*
G01*
X146184600Y-114970350D01*
G75*
G02*
X146403350Y-114751600I218750J0D01*
G01*
G37*
%TD.AperFunction*%
%TO.P,R3,1*%
%TO.N,+3V3*%
%TA.AperFunction,SMDPad,CuDef*%
G36*
G01*
X146403350Y-113176600D02*
X146915850Y-113176600D01*
G75*
G02*
X147134600Y-113395350I0J-218750D01*
G01*
X147134600Y-113832850D01*
G75*
G02*
X146915850Y-114051600I-218750J0D01*
G01*
X146403350Y-114051600D01*
G75*
G02*
X146184600Y-113832850I0J218750D01*
G01*
X146184600Y-113395350D01*
G75*
G02*
X146403350Y-113176600I218750J0D01*
G01*
G37*
%TD.AperFunction*%
%TD*%
%TO.P,R2,2*%
%TO.N,/FR3V3*%
%TA.AperFunction,SMDPad,CuDef*%
G36*
G01*
X146403350Y-118358400D02*
X146915850Y-118358400D01*
G75*
G02*
X147134600Y-118577150I0J-218750D01*
G01*
X147134600Y-119014650D01*
G75*
G02*
X146915850Y-119233400I-218750J0D01*
G01*
X146403350Y-119233400D01*
G75*
G02*
X146184600Y-119014650I0J218750D01*
G01*
X146184600Y-118577150D01*
G75*
G02*
X146403350Y-118358400I218750J0D01*
G01*
G37*
%TD.AperFunction*%
%TO.P,R2,1*%
%TO.N,+3V3*%
%TA.AperFunction,SMDPad,CuDef*%
G36*
G01*
X146403350Y-116783400D02*
X146915850Y-116783400D01*
G75*
G02*
X147134600Y-117002150I0J-218750D01*
G01*
X147134600Y-117439650D01*
G75*
G02*
X146915850Y-117658400I-218750J0D01*
G01*
X146403350Y-117658400D01*
G75*
G02*
X146184600Y-117439650I0J218750D01*
G01*
X146184600Y-117002150D01*
G75*
G02*
X146403350Y-116783400I218750J0D01*
G01*
G37*
%TD.AperFunction*%
%TD*%
%TO.P,R1,2*%
%TO.N,/FG3V3*%
%TA.AperFunction,SMDPad,CuDef*%
G36*
G01*
X146403350Y-121965200D02*
X146915850Y-121965200D01*
G75*
G02*
X147134600Y-122183950I0J-218750D01*
G01*
X147134600Y-122621450D01*
G75*
G02*
X146915850Y-122840200I-218750J0D01*
G01*
X146403350Y-122840200D01*
G75*
G02*
X146184600Y-122621450I0J218750D01*
G01*
X146184600Y-122183950D01*
G75*
G02*
X146403350Y-121965200I218750J0D01*
G01*
G37*
%TD.AperFunction*%
%TO.P,R1,1*%
%TO.N,+3V3*%
%TA.AperFunction,SMDPad,CuDef*%
G36*
G01*
X146403350Y-120390200D02*
X146915850Y-120390200D01*
G75*
G02*
X147134600Y-120608950I0J-218750D01*
G01*
X147134600Y-121046450D01*
G75*
G02*
X146915850Y-121265200I-218750J0D01*
G01*
X146403350Y-121265200D01*
G75*
G02*
X146184600Y-121046450I0J218750D01*
G01*
X146184600Y-120608950D01*
G75*
G02*
X146403350Y-120390200I218750J0D01*
G01*
G37*
%TD.AperFunction*%
%TD*%
D11*
%TO.P,Q4,3*%
%TO.N,/RD*%
X150653600Y-110794800D03*
%TO.P,Q4,2*%
%TO.N,/RD3V3*%
X148253600Y-111744800D03*
%TO.P,Q4,1*%
%TO.N,+3V3*%
X148253600Y-109844800D03*
%TD*%
%TO.P,Q3,3*%
%TO.N,/PWM*%
X150653600Y-114401600D03*
%TO.P,Q3,2*%
%TO.N,/PWM3V3*%
X148253600Y-115351600D03*
%TO.P,Q3,1*%
%TO.N,+3V3*%
X148253600Y-113451600D03*
%TD*%
%TO.P,Q2,3*%
%TO.N,/FR*%
X150653600Y-118008400D03*
%TO.P,Q2,2*%
%TO.N,/FR3V3*%
X148253600Y-118958400D03*
%TO.P,Q2,1*%
%TO.N,+3V3*%
X148253600Y-117058400D03*
%TD*%
%TO.P,Q1,3*%
%TO.N,/FG*%
X150653600Y-121615200D03*
%TO.P,Q1,2*%
%TO.N,/FG3V3*%
X148253600Y-122565200D03*
%TO.P,Q1,1*%
%TO.N,+3V3*%
X148253600Y-120665200D03*
%TD*%
%TA.AperFunction,SMDPad,CuDef*%
D12*
%TO.P,JP3,3*%
%TO.N,+5V*%
G36*
X151400000Y-129540000D02*
G01*
X150900000Y-130290000D01*
X149900000Y-130290000D01*
X149900000Y-128790000D01*
X150900000Y-128790000D01*
X151400000Y-129540000D01*
G37*
%TD.AperFunction*%
%TA.AperFunction,Conductor*%
D13*
%TD*%
%TO.N,Net-(JP3-Pad2)*%
%TO.C,JP3*%
G36*
X151700000Y-129540000D02*
G01*
X151200000Y-128790000D01*
X153600000Y-128790000D01*
X153100000Y-129540000D01*
X153600000Y-130290000D01*
X151200000Y-130290000D01*
X151700000Y-129540000D01*
G37*
%TD.AperFunction*%
%TA.AperFunction,SMDPad,CuDef*%
D12*
%TO.P,JP3,1*%
%TO.N,GND*%
G36*
X153400000Y-129540000D02*
G01*
X153900000Y-128790000D01*
X154900000Y-128790000D01*
X154900000Y-130290000D01*
X153900000Y-130290000D01*
X153400000Y-129540000D01*
G37*
%TD.AperFunction*%
%TD*%
%TA.AperFunction,SMDPad,CuDef*%
%TO.P,JP2,3*%
%TO.N,+5V*%
G36*
X151400000Y-133096000D02*
G01*
X150900000Y-133846000D01*
X149900000Y-133846000D01*
X149900000Y-132346000D01*
X150900000Y-132346000D01*
X151400000Y-133096000D01*
G37*
%TD.AperFunction*%
%TA.AperFunction,Conductor*%
D13*
%TD*%
%TO.N,Net-(JP2-Pad2)*%
%TO.C,JP2*%
G36*
X151700000Y-133096000D02*
G01*
X151200000Y-132346000D01*
X153600000Y-132346000D01*
X153100000Y-133096000D01*
X153600000Y-133846000D01*
X151200000Y-133846000D01*
X151700000Y-133096000D01*
G37*
%TD.AperFunction*%
%TA.AperFunction,SMDPad,CuDef*%
D12*
%TO.P,JP2,1*%
%TO.N,GND*%
G36*
X153400000Y-133096000D02*
G01*
X153900000Y-132346000D01*
X154900000Y-132346000D01*
X154900000Y-133846000D01*
X153900000Y-133846000D01*
X153400000Y-133096000D01*
G37*
%TD.AperFunction*%
%TD*%
%TA.AperFunction,SMDPad,CuDef*%
%TO.P,JP1,3*%
%TO.N,+5V*%
G36*
X151400000Y-126085600D02*
G01*
X150900000Y-126835600D01*
X149900000Y-126835600D01*
X149900000Y-125335600D01*
X150900000Y-125335600D01*
X151400000Y-126085600D01*
G37*
%TD.AperFunction*%
%TA.AperFunction,Conductor*%
D13*
%TD*%
%TO.N,Net-(JP1-Pad2)*%
%TO.C,JP1*%
G36*
X151700000Y-126085600D02*
G01*
X151200000Y-125335600D01*
X153600000Y-125335600D01*
X153100000Y-126085600D01*
X153600000Y-126835600D01*
X151200000Y-126835600D01*
X151700000Y-126085600D01*
G37*
%TD.AperFunction*%
%TA.AperFunction,SMDPad,CuDef*%
D12*
%TO.P,JP1,1*%
%TO.N,GND*%
G36*
X153400000Y-126085600D02*
G01*
X153900000Y-125335600D01*
X154900000Y-125335600D01*
X154900000Y-126835600D01*
X153900000Y-126835600D01*
X153400000Y-126085600D01*
G37*
%TD.AperFunction*%
%TD*%
D14*
%TO.P,J2,8*%
%TO.N,GND*%
X136499600Y-113182400D03*
%TO.P,J2,7*%
%TO.N,VCC*%
X136499600Y-115722400D03*
%TO.P,J2,6*%
%TO.N,+5V*%
X136499600Y-118262400D03*
%TO.P,J2,5*%
%TO.N,+3V3*%
X136499600Y-120802400D03*
%TO.P,J2,4*%
%TO.N,/RD3V3*%
X136499600Y-123342400D03*
%TO.P,J2,3*%
%TO.N,/PWM3V3*%
X136499600Y-125882400D03*
%TO.P,J2,2*%
%TO.N,/FR3V3*%
X136499600Y-128422400D03*
D15*
%TO.P,J2,1*%
%TO.N,/FG3V3*%
X136499600Y-130962400D03*
%TD*%
D14*
%TO.P,J1,14*%
%TO.N,Net-(J1-Pad14)*%
X136499600Y-92252800D03*
%TO.P,J1,13*%
%TO.N,Net-(J1-Pad13)*%
X139039600Y-92252800D03*
%TO.P,J1,12*%
%TO.N,/HALL_A_P*%
X136499600Y-94792800D03*
%TO.P,J1,11*%
%TO.N,/HALL_A_N*%
X139039600Y-94792800D03*
%TO.P,J1,10*%
%TO.N,/COIL_A*%
X136499600Y-97332800D03*
%TO.P,J1,9*%
%TO.N,/HALL_B_N*%
X139039600Y-97332800D03*
%TO.P,J1,8*%
%TO.N,/COIL_C*%
X136499600Y-99872800D03*
%TO.P,J1,7*%
%TO.N,GND*%
X139039600Y-99872800D03*
%TO.P,J1,6*%
%TO.N,/COIL_B*%
X136499600Y-102412800D03*
%TO.P,J1,5*%
%TO.N,+5V*%
X139039600Y-102412800D03*
%TO.P,J1,4*%
%TO.N,Net-(J1-Pad4)*%
X136499600Y-104952800D03*
%TO.P,J1,3*%
%TO.N,/HALL_B_P*%
X139039600Y-104952800D03*
%TO.P,J1,2*%
%TO.N,/HALL_C_N*%
X136499600Y-107492800D03*
D15*
%TO.P,J1,1*%
%TO.N,/HALL_C_P*%
X139039600Y-107492800D03*
%TD*%
D16*
%TO.P,IC1,25*%
%TO.N,GND*%
X150000000Y-100000000D03*
D17*
%TO.P,IC1,24*%
%TO.N,/FG*%
X152950000Y-96425000D03*
%TO.P,IC1,23*%
%TO.N,/FR*%
X152950000Y-97075000D03*
%TO.P,IC1,22*%
%TO.N,Net-(C3-Pad1)*%
X152950000Y-97725000D03*
%TO.P,IC1,21*%
%TO.N,/BRKMOD*%
X152950000Y-98375000D03*
%TO.P,IC1,20*%
%TO.N,/CMTMOD*%
X152950000Y-99025000D03*
%TO.P,IC1,19*%
%TO.N,/PWM*%
X152950000Y-99675000D03*
%TO.P,IC1,18*%
%TO.N,/RD*%
X152950000Y-100325000D03*
%TO.P,IC1,17*%
%TO.N,/CS*%
X152950000Y-100975000D03*
%TO.P,IC1,16*%
%TO.N,Net-(C5-Pad2)*%
X152950000Y-101625000D03*
%TO.P,IC1,15*%
%TO.N,VCC*%
X152950000Y-102275000D03*
%TO.P,IC1,14*%
%TO.N,/COIL_A*%
X152950000Y-102925000D03*
%TO.P,IC1,13*%
%TO.N,/COIL_B*%
X152950000Y-103575000D03*
%TO.P,IC1,12*%
%TO.N,GND*%
X147050000Y-103575000D03*
%TO.P,IC1,11*%
%TO.N,/COIL_C*%
X147050000Y-102925000D03*
%TO.P,IC1,10*%
%TO.N,Net-(C1-Pad1)*%
X147050000Y-102275000D03*
%TO.P,IC1,9*%
%TO.N,Net-(C1-Pad2)*%
X147050000Y-101625000D03*
%TO.P,IC1,8*%
%TO.N,/VCP*%
X147050000Y-100975000D03*
%TO.P,IC1,7*%
%TO.N,/HALL_C_N*%
X147050000Y-100325000D03*
%TO.P,IC1,6*%
%TO.N,/HALL_C_P*%
X147050000Y-99675000D03*
%TO.P,IC1,5*%
%TO.N,/HALL_B_N*%
X147050000Y-99025000D03*
%TO.P,IC1,4*%
%TO.N,/HALL_B_P*%
X147050000Y-98375000D03*
%TO.P,IC1,3*%
%TO.N,/HALL_A_N*%
X147050000Y-97725000D03*
%TO.P,IC1,2*%
%TO.N,/HALL_A_P*%
X147050000Y-97075000D03*
%TO.P,IC1,1*%
%TO.N,/DAA*%
X147050000Y-96425000D03*
%TD*%
%TO.P,C5,2*%
%TO.N,Net-(C5-Pad2)*%
%TA.AperFunction,SMDPad,CuDef*%
G36*
G01*
X157399240Y-102258150D02*
X157399240Y-102770650D01*
G75*
G02*
X157180490Y-102989400I-218750J0D01*
G01*
X156742990Y-102989400D01*
G75*
G02*
X156524240Y-102770650I0J218750D01*
G01*
X156524240Y-102258150D01*
G75*
G02*
X156742990Y-102039400I218750J0D01*
G01*
X157180490Y-102039400D01*
G75*
G02*
X157399240Y-102258150I0J-218750D01*
G01*
G37*
%TD.AperFunction*%
%TO.P,C5,1*%
%TO.N,GND*%
%TA.AperFunction,SMDPad,CuDef*%
G36*
G01*
X158974240Y-102258150D02*
X158974240Y-102770650D01*
G75*
G02*
X158755490Y-102989400I-218750J0D01*
G01*
X158317990Y-102989400D01*
G75*
G02*
X158099240Y-102770650I0J218750D01*
G01*
X158099240Y-102258150D01*
G75*
G02*
X158317990Y-102039400I218750J0D01*
G01*
X158755490Y-102039400D01*
G75*
G02*
X158974240Y-102258150I0J-218750D01*
G01*
G37*
%TD.AperFunction*%
%TD*%
%TO.P,C4,2*%
%TO.N,VCC*%
%TA.AperFunction,SMDPad,CuDef*%
G36*
G01*
X157399240Y-105306150D02*
X157399240Y-105818650D01*
G75*
G02*
X157180490Y-106037400I-218750J0D01*
G01*
X156742990Y-106037400D01*
G75*
G02*
X156524240Y-105818650I0J218750D01*
G01*
X156524240Y-105306150D01*
G75*
G02*
X156742990Y-105087400I218750J0D01*
G01*
X157180490Y-105087400D01*
G75*
G02*
X157399240Y-105306150I0J-218750D01*
G01*
G37*
%TD.AperFunction*%
%TO.P,C4,1*%
%TO.N,/VCP*%
%TA.AperFunction,SMDPad,CuDef*%
G36*
G01*
X158974240Y-105306150D02*
X158974240Y-105818650D01*
G75*
G02*
X158755490Y-106037400I-218750J0D01*
G01*
X158317990Y-106037400D01*
G75*
G02*
X158099240Y-105818650I0J218750D01*
G01*
X158099240Y-105306150D01*
G75*
G02*
X158317990Y-105087400I218750J0D01*
G01*
X158755490Y-105087400D01*
G75*
G02*
X158974240Y-105306150I0J-218750D01*
G01*
G37*
%TD.AperFunction*%
%TD*%
%TO.P,C3,2*%
%TO.N,GND*%
%TA.AperFunction,SMDPad,CuDef*%
G36*
G01*
X158099240Y-96674650D02*
X158099240Y-96162150D01*
G75*
G02*
X158317990Y-95943400I218750J0D01*
G01*
X158755490Y-95943400D01*
G75*
G02*
X158974240Y-96162150I0J-218750D01*
G01*
X158974240Y-96674650D01*
G75*
G02*
X158755490Y-96893400I-218750J0D01*
G01*
X158317990Y-96893400D01*
G75*
G02*
X158099240Y-96674650I0J218750D01*
G01*
G37*
%TD.AperFunction*%
%TO.P,C3,1*%
%TO.N,Net-(C3-Pad1)*%
%TA.AperFunction,SMDPad,CuDef*%
G36*
G01*
X156524240Y-96674650D02*
X156524240Y-96162150D01*
G75*
G02*
X156742990Y-95943400I218750J0D01*
G01*
X157180490Y-95943400D01*
G75*
G02*
X157399240Y-96162150I0J-218750D01*
G01*
X157399240Y-96674650D01*
G75*
G02*
X157180490Y-96893400I-218750J0D01*
G01*
X156742990Y-96893400D01*
G75*
G02*
X156524240Y-96674650I0J218750D01*
G01*
G37*
%TD.AperFunction*%
%TD*%
%TO.P,C2,2*%
%TO.N,VCC*%
%TA.AperFunction,SMDPad,CuDef*%
G36*
G01*
X157399240Y-103782150D02*
X157399240Y-104294650D01*
G75*
G02*
X157180490Y-104513400I-218750J0D01*
G01*
X156742990Y-104513400D01*
G75*
G02*
X156524240Y-104294650I0J218750D01*
G01*
X156524240Y-103782150D01*
G75*
G02*
X156742990Y-103563400I218750J0D01*
G01*
X157180490Y-103563400D01*
G75*
G02*
X157399240Y-103782150I0J-218750D01*
G01*
G37*
%TD.AperFunction*%
%TO.P,C2,1*%
%TO.N,GND*%
%TA.AperFunction,SMDPad,CuDef*%
G36*
G01*
X158974240Y-103782150D02*
X158974240Y-104294650D01*
G75*
G02*
X158755490Y-104513400I-218750J0D01*
G01*
X158317990Y-104513400D01*
G75*
G02*
X158099240Y-104294650I0J218750D01*
G01*
X158099240Y-103782150D01*
G75*
G02*
X158317990Y-103563400I218750J0D01*
G01*
X158755490Y-103563400D01*
G75*
G02*
X158974240Y-103782150I0J-218750D01*
G01*
G37*
%TD.AperFunction*%
%TD*%
%TO.P,C1,2*%
%TO.N,Net-(C1-Pad2)*%
%TA.AperFunction,SMDPad,CuDef*%
G36*
G01*
X144274250Y-102418400D02*
X143761750Y-102418400D01*
G75*
G02*
X143543000Y-102199650I0J218750D01*
G01*
X143543000Y-101762150D01*
G75*
G02*
X143761750Y-101543400I218750J0D01*
G01*
X144274250Y-101543400D01*
G75*
G02*
X144493000Y-101762150I0J-218750D01*
G01*
X144493000Y-102199650D01*
G75*
G02*
X144274250Y-102418400I-218750J0D01*
G01*
G37*
%TD.AperFunction*%
%TO.P,C1,1*%
%TO.N,Net-(C1-Pad1)*%
%TA.AperFunction,SMDPad,CuDef*%
G36*
G01*
X144274250Y-103993400D02*
X143761750Y-103993400D01*
G75*
G02*
X143543000Y-103774650I0J218750D01*
G01*
X143543000Y-103337150D01*
G75*
G02*
X143761750Y-103118400I218750J0D01*
G01*
X144274250Y-103118400D01*
G75*
G02*
X144493000Y-103337150I0J-218750D01*
G01*
X144493000Y-103774650D01*
G75*
G02*
X144274250Y-103993400I-218750J0D01*
G01*
G37*
%TD.AperFunction*%
%TD*%
D18*
%TO.N,VCC*%
X155702000Y-105410000D03*
X153924000Y-107276810D03*
D19*
%TO.N,GND*%
X150000000Y-100700000D03*
X151100000Y-100700000D03*
X151100000Y-99400000D03*
X150000000Y-99400000D03*
X148900000Y-102000000D03*
X148900000Y-100700000D03*
X148900000Y-99400000D03*
D18*
X159708323Y-96909418D03*
X154432000Y-124460000D03*
X154432000Y-128270000D03*
X154432000Y-131826000D03*
X159170581Y-106750000D03*
D19*
X148900000Y-96800000D03*
X151100000Y-96800000D03*
X150000000Y-96800000D03*
X148900000Y-98100000D03*
X150000000Y-98100000D03*
X151100000Y-98100000D03*
X148900000Y-103300000D03*
X151100000Y-102000000D03*
X151100000Y-103300000D03*
X150000000Y-102000000D03*
X150000000Y-103300000D03*
D18*
%TO.N,/VCP*%
X143035590Y-105918000D03*
X147066000Y-106680000D03*
%TO.N,/PWM*%
X155600400Y-99532440D03*
X159969903Y-99581537D03*
%TO.N,/RD*%
X155549331Y-100531137D03*
X159973781Y-101005240D03*
%TO.N,/COIL_B*%
X140853160Y-108107480D03*
X143747758Y-107537518D03*
%TO.N,/HALL_C_P*%
X140579851Y-105273851D03*
%TO.N,/HALL_B_N*%
X144001094Y-98871790D03*
%TO.N,+5V*%
X150600000Y-119725000D03*
X150600000Y-116150000D03*
X150600000Y-112525000D03*
X150600000Y-108950000D03*
X149606000Y-122428000D03*
%TO.N,+3V3*%
X149418810Y-119826152D03*
%TO.N,Net-(JP1-Pad2)*%
X160580192Y-98709376D03*
X162793001Y-99314000D03*
%TO.N,Net-(JP3-Pad2)*%
X160145720Y-97808689D03*
X162793001Y-98044000D03*
%TD*%
D20*
%TO.N,Net-(C1-Pad2)*%
X144373900Y-101625000D02*
X147050000Y-101625000D01*
X144018000Y-101980900D02*
X144373900Y-101625000D01*
%TO.N,Net-(C1-Pad1)*%
X147050000Y-102275000D02*
X145078488Y-102275000D01*
X144018000Y-103335488D02*
X144018000Y-103555900D01*
X145078488Y-102275000D02*
X144018000Y-103335488D01*
%TO.N,VCC*%
X152950000Y-102275000D02*
X154405960Y-102275000D01*
X156169360Y-104038400D02*
X156961740Y-104038400D01*
X154405960Y-102275000D02*
X156169360Y-104038400D01*
D21*
X156961740Y-104891740D02*
X156220260Y-104891740D01*
X156220260Y-104891740D02*
X155702000Y-105410000D01*
D22*
X156961740Y-104891740D02*
X156961740Y-104038400D01*
X156961740Y-105562400D02*
X156961740Y-104891740D01*
D21*
X136499600Y-115722400D02*
X138809066Y-115722400D01*
X138809066Y-115722400D02*
X146794265Y-107737201D01*
X153866790Y-107334020D02*
X153924000Y-107334020D01*
X146794265Y-107737201D02*
X153463609Y-107737201D01*
X153463609Y-107737201D02*
X153866790Y-107334020D01*
D22*
%TO.N,GND*%
X158536740Y-104038400D02*
X158536740Y-102514400D01*
X158536740Y-102514400D02*
X158536740Y-100990400D01*
D20*
X158536740Y-96418400D02*
X159217305Y-96418400D01*
X159217305Y-96418400D02*
X159708323Y-96909418D01*
D22*
X154400000Y-126085600D02*
X154400000Y-124492000D01*
X154400000Y-124492000D02*
X154432000Y-124460000D01*
X154400000Y-129540000D02*
X154400000Y-128302000D01*
X154400000Y-128302000D02*
X154432000Y-128270000D01*
X154400000Y-133096000D02*
X154400000Y-131858000D01*
X154400000Y-131858000D02*
X154432000Y-131826000D01*
D23*
X159326650Y-106593931D02*
X159170581Y-106750000D01*
X158536740Y-102514400D02*
X159326650Y-103304310D01*
X159326650Y-103304310D02*
X159326650Y-106593931D01*
X148625000Y-103575000D02*
X148900000Y-103300000D01*
X147050000Y-103575000D02*
X148625000Y-103575000D01*
D20*
%TO.N,Net-(C3-Pad1)*%
X155864560Y-96418400D02*
X156961740Y-96418400D01*
X152950000Y-97725000D02*
X154557960Y-97725000D01*
X154557960Y-97725000D02*
X155864560Y-96418400D01*
%TO.N,/VCP*%
X143669312Y-100975000D02*
X143035590Y-101608722D01*
X143035590Y-101608722D02*
X143035590Y-105918000D01*
X147050000Y-100975000D02*
X143669312Y-100975000D01*
X158536740Y-105562400D02*
X157625530Y-106473610D01*
X147272390Y-106473610D02*
X147066000Y-106680000D01*
X157625530Y-106473610D02*
X147272390Y-106473610D01*
%TO.N,Net-(C5-Pad2)*%
X155526091Y-102531531D02*
X156944609Y-102531531D01*
X156944609Y-102531531D02*
X156961740Y-102514400D01*
X152950000Y-101625000D02*
X154619560Y-101625000D01*
X154619560Y-101625000D02*
X155526091Y-102531531D01*
D22*
%TO.N,/FG*%
X151491900Y-122453500D02*
X152247600Y-122453500D01*
X150653600Y-121615200D02*
X151491900Y-122453500D01*
X155194000Y-122453500D02*
X152247600Y-122453500D01*
D20*
X161987820Y-118682180D02*
X158216500Y-122453500D01*
X161987820Y-112537180D02*
X161987820Y-118682180D01*
X161989801Y-112535199D02*
X161987820Y-112537180D01*
X154142776Y-96425000D02*
X155633995Y-94933780D01*
X158216500Y-122453500D02*
X155194000Y-122453500D01*
X152950000Y-96425000D02*
X154142776Y-96425000D01*
X161989801Y-96965801D02*
X161989801Y-112535199D01*
X155633995Y-94933780D02*
X159957780Y-94933780D01*
X159957780Y-94933780D02*
X161989801Y-96965801D01*
D22*
%TO.N,/FR*%
X151415600Y-118770400D02*
X152196800Y-118770400D01*
X150653600Y-118008400D02*
X151415600Y-118770400D01*
X155168500Y-118770400D02*
X155194000Y-118795900D01*
X152196800Y-118770400D02*
X155168500Y-118770400D01*
D20*
X161381410Y-101701183D02*
X161381410Y-115732590D01*
X161383392Y-101699201D02*
X161381410Y-101701183D01*
X154350368Y-97075000D02*
X155885178Y-95540190D01*
X152950000Y-97075000D02*
X154350368Y-97075000D01*
X155885178Y-95540190D02*
X159548190Y-95540190D01*
X158318100Y-118795900D02*
X155194000Y-118795900D01*
X159548190Y-95540190D02*
X161383392Y-97375392D01*
X161381410Y-115732590D02*
X158318100Y-118795900D01*
X161383392Y-97375392D02*
X161383392Y-101699201D01*
%TO.N,/BRKMOD*%
X156692500Y-97673160D02*
X156961740Y-97942400D01*
X155198154Y-97942400D02*
X156961740Y-97942400D01*
X154765554Y-98375000D02*
X155198154Y-97942400D01*
X152950000Y-98375000D02*
X154765554Y-98375000D01*
%TO.N,/CMTMOD*%
X154969920Y-99025000D02*
X155057100Y-98937820D01*
X155057100Y-98937820D02*
X155060328Y-98937820D01*
X155060328Y-98937820D02*
X155288668Y-98709480D01*
X156204820Y-98709480D02*
X156961740Y-99466400D01*
X155288668Y-98709480D02*
X156204820Y-98709480D01*
X152950000Y-99025000D02*
X154969920Y-99025000D01*
%TO.N,/PWM*%
X152950000Y-99675000D02*
X155457840Y-99675000D01*
X155457840Y-99675000D02*
X155600400Y-99532440D01*
D22*
X151441100Y-115189100D02*
X152196800Y-115189100D01*
X150653600Y-114401600D02*
X151441100Y-115189100D01*
D20*
X159969903Y-99581537D02*
X160776982Y-100388616D01*
X160776982Y-100388616D02*
X160776982Y-101448018D01*
X160776982Y-101448018D02*
X160775000Y-101450000D01*
X152196800Y-115189100D02*
X158368900Y-115189100D01*
X160775000Y-112783000D02*
X160775000Y-112261000D01*
X160775000Y-101450000D02*
X160775000Y-112261000D01*
X158368900Y-115189100D02*
X160775000Y-112783000D01*
X160775000Y-112261000D02*
X160775000Y-112600000D01*
%TO.N,/RD*%
X152950000Y-100325000D02*
X155343194Y-100325000D01*
X155343194Y-100325000D02*
X155549331Y-100531137D01*
D22*
X155168700Y-111658400D02*
X155194000Y-111633100D01*
X152196800Y-111658400D02*
X155168700Y-111658400D01*
X151517200Y-111658400D02*
X152196800Y-111658400D01*
X150653600Y-110794800D02*
X151517200Y-111658400D01*
D20*
X158276462Y-111633100D02*
X159973781Y-109935781D01*
X155194000Y-111633100D02*
X158276462Y-111633100D01*
X159973781Y-101005240D02*
X159973781Y-109935781D01*
%TO.N,/CS*%
X156946340Y-100975000D02*
X156961740Y-100990400D01*
X156616300Y-101335840D02*
X156961740Y-100990400D01*
X155194000Y-101335840D02*
X156616300Y-101335840D01*
X152950000Y-100975000D02*
X154833160Y-100975000D01*
X154833160Y-100975000D02*
X155194000Y-101335840D01*
%TO.N,/COIL_A*%
X154614880Y-103433480D02*
X154106400Y-102925000D01*
X147671469Y-104809611D02*
X154331349Y-104809611D01*
X154614880Y-104526080D02*
X154614880Y-103433480D01*
X134025640Y-99806760D02*
X134025640Y-108640880D01*
X154106400Y-102925000D02*
X152950000Y-102925000D01*
X154331349Y-104809611D02*
X154614880Y-104526080D01*
X136499600Y-97332800D02*
X134025640Y-99806760D01*
X142494000Y-109987080D02*
X147671469Y-104809611D01*
X134025640Y-108640880D02*
X135371840Y-109987080D01*
X135371840Y-109987080D02*
X142494000Y-109987080D01*
%TO.N,/COIL_B*%
X152950000Y-103575000D02*
X152321799Y-104203201D01*
X152321799Y-104203201D02*
X147500639Y-104203201D01*
X147500639Y-104203201D02*
X147190759Y-104203201D01*
X136499600Y-102412800D02*
X135246399Y-103666001D01*
X135246399Y-103666001D02*
X135246399Y-104351263D01*
X135246399Y-104351263D02*
X135246399Y-105013760D01*
X135246399Y-105013760D02*
X135246399Y-108094337D01*
X135898063Y-108746001D02*
X137867039Y-108746001D01*
X135246399Y-108094337D02*
X135898063Y-108746001D01*
X140850682Y-108107480D02*
X140853160Y-108107480D01*
X137867039Y-108746001D02*
X140212161Y-108746001D01*
X140212161Y-108746001D02*
X140850682Y-108107480D01*
X147082074Y-104203202D02*
X147500639Y-104203202D01*
X143747758Y-107537518D02*
X147082074Y-104203202D01*
%TO.N,/COIL_C*%
X147050000Y-102946799D02*
X147050000Y-102925000D01*
X145034000Y-105115378D02*
X145034000Y-105034080D01*
X145959440Y-102925000D02*
X147050000Y-102925000D01*
X145034000Y-105115378D02*
X145034000Y-103850440D01*
X145034000Y-103850440D02*
X145959440Y-102925000D01*
X135620760Y-109377480D02*
X140771898Y-109377480D01*
X134635240Y-108391960D02*
X135620760Y-109377480D01*
X136499600Y-99872800D02*
X134635240Y-101737160D01*
X134635240Y-101737160D02*
X134635240Y-108391960D01*
X140771898Y-109377480D02*
X145034000Y-105115378D01*
%TO.N,/HALL_C_N*%
X140750001Y-106239599D02*
X142232380Y-104757220D01*
X136499600Y-107492800D02*
X137752801Y-106239599D01*
X137752801Y-106239599D02*
X140750001Y-106239599D01*
X143454040Y-100325000D02*
X147050000Y-100325000D01*
X142232380Y-104757220D02*
X142232380Y-101546660D01*
X142232380Y-101546660D02*
X143454040Y-100325000D01*
%TO.N,/HALL_C_P*%
X141565009Y-104288693D02*
X140579851Y-105273851D01*
X141565009Y-101335191D02*
X141565009Y-104288693D01*
X147050000Y-99675000D02*
X143225200Y-99675000D01*
X143225200Y-99675000D02*
X141565009Y-101335191D01*
%TO.N,/HALL_B_N*%
X144154304Y-99025000D02*
X144001094Y-98871790D01*
X147050000Y-99025000D02*
X144154304Y-99025000D01*
%TO.N,/HALL_B_P*%
X140958598Y-103033802D02*
X139039600Y-104952800D01*
X144386631Y-98068589D02*
X143663211Y-98068589D01*
X147050000Y-98375000D02*
X144693042Y-98375000D01*
X144693042Y-98375000D02*
X144386631Y-98068589D01*
X143663211Y-98068589D02*
X140958598Y-100773202D01*
X140958598Y-100773202D02*
X140958598Y-103033802D01*
%TO.N,/HALL_A_N*%
X139039600Y-94792800D02*
X141968436Y-94792800D01*
X144900636Y-97725000D02*
X147050000Y-97725000D01*
X141968436Y-94792800D02*
X144900636Y-97725000D01*
%TO.N,/HALL_A_P*%
X142358199Y-93539599D02*
X145893600Y-97075000D01*
X136499600Y-94792800D02*
X137752801Y-93539599D01*
X137752801Y-93539599D02*
X142358199Y-93539599D01*
X145893600Y-97075000D02*
X147050000Y-97075000D01*
%TO.N,/DAA*%
X147050000Y-96425000D02*
X146107400Y-96425000D01*
X146107400Y-96425000D02*
X145922900Y-96240500D01*
X145922900Y-96240500D02*
X145922900Y-94742000D01*
D22*
%TO.N,+5V*%
X155168700Y-110083400D02*
X155194000Y-110058100D01*
X152196800Y-110083400D02*
X155168700Y-110083400D01*
X152247600Y-120878500D02*
X155194000Y-120878500D01*
X155168500Y-117195400D02*
X155194000Y-117220900D01*
X152196800Y-117195400D02*
X155168500Y-117195400D01*
D21*
X152247600Y-120878500D02*
X151753500Y-120878500D01*
X151753500Y-120878500D02*
X150600000Y-119725000D01*
X152196800Y-117195400D02*
X151645400Y-117195400D01*
X151645400Y-117195400D02*
X150600000Y-116150000D01*
X152196800Y-113614100D02*
X151689100Y-113614100D01*
X151689100Y-113614100D02*
X150600000Y-112525000D01*
X152196800Y-110083400D02*
X151733400Y-110083400D01*
X151733400Y-110083400D02*
X150600000Y-108950000D01*
D22*
X150400000Y-133096000D02*
X150400000Y-129540000D01*
X150400000Y-129540000D02*
X150400000Y-126085600D01*
X150400000Y-126085600D02*
X150400000Y-123222000D01*
X150400000Y-123222000D02*
X149606000Y-122428000D01*
%TO.N,+3V3*%
X146847400Y-109844800D02*
X146659600Y-110032600D01*
X148253600Y-109844800D02*
X146847400Y-109844800D01*
X146822100Y-113451600D02*
X146659600Y-113614100D01*
X148253600Y-113451600D02*
X146822100Y-113451600D01*
X146822100Y-117058400D02*
X146659600Y-117220900D01*
X148253600Y-117058400D02*
X146822100Y-117058400D01*
X146822100Y-120665200D02*
X146659600Y-120827700D01*
X148253600Y-120665200D02*
X146822100Y-120665200D01*
D21*
X148253600Y-113451600D02*
X149418810Y-114616810D01*
X148386562Y-117058400D02*
X149410801Y-118082639D01*
X148253600Y-117058400D02*
X148386562Y-117058400D01*
X149410801Y-118082639D02*
X149410801Y-118597680D01*
X149418810Y-118589671D02*
X149418810Y-114616810D01*
X149410801Y-118597680D02*
X149418810Y-118589671D01*
X149418810Y-119826152D02*
X149418810Y-118597680D01*
X148253600Y-120665200D02*
X148579762Y-120665200D01*
X148579762Y-120665200D02*
X149418810Y-119826152D01*
X149418810Y-110877048D02*
X149418810Y-114616810D01*
X148386562Y-109844800D02*
X149418810Y-110877048D01*
X148253600Y-109844800D02*
X148386562Y-109844800D01*
D22*
%TO.N,/RD3V3*%
X146796800Y-111744800D02*
X146659600Y-111607600D01*
X148253600Y-111744800D02*
X146796800Y-111744800D01*
X140944600Y-115234720D02*
X144571720Y-111607600D01*
X140944600Y-122458480D02*
X140944600Y-115234720D01*
X144571720Y-111607600D02*
X146659600Y-111607600D01*
X136499600Y-123342400D02*
X140060680Y-123342400D01*
X140060680Y-123342400D02*
X140944600Y-122458480D01*
%TO.N,/PWM3V3*%
X146822100Y-115351600D02*
X146659600Y-115189100D01*
X148253600Y-115351600D02*
X146822100Y-115351600D01*
X142234920Y-122936000D02*
X142234920Y-119613780D01*
X142234920Y-119613780D02*
X146659600Y-115189100D01*
X136499600Y-125882400D02*
X139288520Y-125882400D01*
X139288520Y-125882400D02*
X142234920Y-122936000D01*
%TO.N,/FR3V3*%
X146822100Y-118958400D02*
X146659600Y-118795900D01*
X148253600Y-118958400D02*
X146822100Y-118958400D01*
X143510000Y-123413520D02*
X143510000Y-121945500D01*
X143510000Y-121945500D02*
X146659600Y-118795900D01*
X136499600Y-128422400D02*
X138501120Y-128422400D01*
X138501120Y-128422400D02*
X143510000Y-123413520D01*
%TO.N,/FG3V3*%
X146822100Y-122565200D02*
X146659600Y-122402700D01*
X148253600Y-122565200D02*
X146822100Y-122565200D01*
X146334380Y-122402700D02*
X146659600Y-122402700D01*
X136499600Y-130962400D02*
X137774680Y-130962400D01*
X137774680Y-130962400D02*
X146334380Y-122402700D01*
D20*
%TO.N,Net-(JP1-Pad2)*%
X158536740Y-99466400D02*
X159293764Y-98709376D01*
X159293764Y-98709376D02*
X160580192Y-98709376D01*
X162793001Y-118130999D02*
X162793001Y-99314000D01*
X152400000Y-126085600D02*
X152400000Y-123952000D01*
X152987290Y-123364710D02*
X158162882Y-123364710D01*
X152400000Y-123952000D02*
X152987290Y-123364710D01*
X162793001Y-118734591D02*
X162793001Y-118130999D01*
X158162882Y-123364710D02*
X162793001Y-118734591D01*
%TO.N,Net-(JP2-Pad2)*%
X152400000Y-131318000D02*
X152400000Y-133096000D01*
X152908000Y-130810000D02*
X152400000Y-131318000D01*
X160208963Y-94327370D02*
X162596211Y-96714618D01*
X156308411Y-130711589D02*
X156210000Y-130810000D01*
X147497900Y-94742000D02*
X147912530Y-94327370D01*
X162596211Y-96714618D02*
X162652357Y-96714618D01*
X156210000Y-130810000D02*
X152908000Y-130810000D01*
X163211389Y-120031388D02*
X158665247Y-124577531D01*
X158665247Y-124577531D02*
X157172469Y-124577531D01*
X162652357Y-96714618D02*
X164202611Y-98264872D01*
X147912530Y-94327370D02*
X160208963Y-94327370D01*
X164202611Y-98264872D02*
X164202612Y-119040166D01*
X164202612Y-119040166D02*
X163211389Y-120031388D01*
X157172469Y-124577531D02*
X156308411Y-125441589D01*
X156308411Y-125441589D02*
X156308411Y-130711589D01*
%TO.N,Net-(JP3-Pad2)*%
X158536740Y-97942400D02*
X160012009Y-97942400D01*
X160012009Y-97942400D02*
X160145720Y-97808689D01*
X162052000Y-120333185D02*
X159353592Y-123031592D01*
X163596202Y-118788983D02*
X162052000Y-120333185D01*
X163596202Y-100055798D02*
X163596202Y-118788983D01*
X162793001Y-98044000D02*
X163596202Y-98847201D01*
X163596202Y-98847201D02*
X163596202Y-100055798D01*
X158845592Y-123539592D02*
X158750000Y-123635184D01*
X159353592Y-123031592D02*
X158845592Y-123539592D01*
X158414064Y-123971120D02*
X158845592Y-123539592D01*
X155448000Y-127254000D02*
X155702000Y-127000000D01*
X156778880Y-123971120D02*
X158414064Y-123971120D01*
X155702000Y-125048000D02*
X156778880Y-123971120D01*
X152400000Y-127762000D02*
X152908000Y-127254000D01*
X155702000Y-127000000D02*
X155702000Y-125048000D01*
X152400000Y-129540000D02*
X152400000Y-127762000D01*
X152908000Y-127254000D02*
X155448000Y-127254000D01*
%TD*%
D24*
%TO.N,GND*%
G36*
X151687300Y-103787301D02*
G01*
X148312700Y-103787301D01*
X148312700Y-96112700D01*
X151687300Y-96112700D01*
X151687300Y-103787301D01*
G37*
X151687300Y-103787301D02*
X148312700Y-103787301D01*
X148312700Y-96112700D01*
X151687300Y-96112700D01*
X151687300Y-103787301D01*
%TD*%
M02*
