%TF.GenerationSoftware,KiCad,Pcbnew,(5.1.6)-1*%
%TF.CreationDate,2020-08-11T11:23:43+09:00*%
%TF.ProjectId,BLDC_MD_DRV10970,424c4443-5f4d-4445-9f44-525631303937,rev?*%
%TF.SameCoordinates,Original*%
%TF.FileFunction,Paste,Top*%
%TF.FilePolarity,Positive*%
%FSLAX46Y46*%
G04 Gerber Fmt 4.6, Leading zero omitted, Abs format (unit mm)*
G04 Created by KiCad (PCBNEW (5.1.6)-1) date 2020-08-11 11:23:43*
%MOMM*%
%LPD*%
G01*
G04 APERTURE LIST*
%ADD10R,1.000000X0.700000*%
%ADD11R,2.400000X3.280000*%
%ADD12R,1.500000X0.450000*%
G04 APERTURE END LIST*
%TO.C,R15*%
G36*
G01*
X158099240Y-98198650D02*
X158099240Y-97686150D01*
G75*
G02*
X158317990Y-97467400I218750J0D01*
G01*
X158755490Y-97467400D01*
G75*
G02*
X158974240Y-97686150I0J-218750D01*
G01*
X158974240Y-98198650D01*
G75*
G02*
X158755490Y-98417400I-218750J0D01*
G01*
X158317990Y-98417400D01*
G75*
G02*
X158099240Y-98198650I0J218750D01*
G01*
G37*
G36*
G01*
X156524240Y-98198650D02*
X156524240Y-97686150D01*
G75*
G02*
X156742990Y-97467400I218750J0D01*
G01*
X157180490Y-97467400D01*
G75*
G02*
X157399240Y-97686150I0J-218750D01*
G01*
X157399240Y-98198650D01*
G75*
G02*
X157180490Y-98417400I-218750J0D01*
G01*
X156742990Y-98417400D01*
G75*
G02*
X156524240Y-98198650I0J218750D01*
G01*
G37*
%TD*%
%TO.C,R14*%
G36*
G01*
X147060400Y-94998250D02*
X147060400Y-94485750D01*
G75*
G02*
X147279150Y-94267000I218750J0D01*
G01*
X147716650Y-94267000D01*
G75*
G02*
X147935400Y-94485750I0J-218750D01*
G01*
X147935400Y-94998250D01*
G75*
G02*
X147716650Y-95217000I-218750J0D01*
G01*
X147279150Y-95217000D01*
G75*
G02*
X147060400Y-94998250I0J218750D01*
G01*
G37*
G36*
G01*
X145485400Y-94998250D02*
X145485400Y-94485750D01*
G75*
G02*
X145704150Y-94267000I218750J0D01*
G01*
X146141650Y-94267000D01*
G75*
G02*
X146360400Y-94485750I0J-218750D01*
G01*
X146360400Y-94998250D01*
G75*
G02*
X146141650Y-95217000I-218750J0D01*
G01*
X145704150Y-95217000D01*
G75*
G02*
X145485400Y-94998250I0J218750D01*
G01*
G37*
%TD*%
%TO.C,R13*%
G36*
G01*
X158099240Y-101246650D02*
X158099240Y-100734150D01*
G75*
G02*
X158317990Y-100515400I218750J0D01*
G01*
X158755490Y-100515400D01*
G75*
G02*
X158974240Y-100734150I0J-218750D01*
G01*
X158974240Y-101246650D01*
G75*
G02*
X158755490Y-101465400I-218750J0D01*
G01*
X158317990Y-101465400D01*
G75*
G02*
X158099240Y-101246650I0J218750D01*
G01*
G37*
G36*
G01*
X156524240Y-101246650D02*
X156524240Y-100734150D01*
G75*
G02*
X156742990Y-100515400I218750J0D01*
G01*
X157180490Y-100515400D01*
G75*
G02*
X157399240Y-100734150I0J-218750D01*
G01*
X157399240Y-101246650D01*
G75*
G02*
X157180490Y-101465400I-218750J0D01*
G01*
X156742990Y-101465400D01*
G75*
G02*
X156524240Y-101246650I0J218750D01*
G01*
G37*
%TD*%
%TO.C,R12*%
G36*
G01*
X154937750Y-118358400D02*
X155450250Y-118358400D01*
G75*
G02*
X155669000Y-118577150I0J-218750D01*
G01*
X155669000Y-119014650D01*
G75*
G02*
X155450250Y-119233400I-218750J0D01*
G01*
X154937750Y-119233400D01*
G75*
G02*
X154719000Y-119014650I0J218750D01*
G01*
X154719000Y-118577150D01*
G75*
G02*
X154937750Y-118358400I218750J0D01*
G01*
G37*
G36*
G01*
X154937750Y-116783400D02*
X155450250Y-116783400D01*
G75*
G02*
X155669000Y-117002150I0J-218750D01*
G01*
X155669000Y-117439650D01*
G75*
G02*
X155450250Y-117658400I-218750J0D01*
G01*
X154937750Y-117658400D01*
G75*
G02*
X154719000Y-117439650I0J218750D01*
G01*
X154719000Y-117002150D01*
G75*
G02*
X154937750Y-116783400I218750J0D01*
G01*
G37*
%TD*%
%TO.C,R11*%
G36*
G01*
X158099240Y-99722650D02*
X158099240Y-99210150D01*
G75*
G02*
X158317990Y-98991400I218750J0D01*
G01*
X158755490Y-98991400D01*
G75*
G02*
X158974240Y-99210150I0J-218750D01*
G01*
X158974240Y-99722650D01*
G75*
G02*
X158755490Y-99941400I-218750J0D01*
G01*
X158317990Y-99941400D01*
G75*
G02*
X158099240Y-99722650I0J218750D01*
G01*
G37*
G36*
G01*
X156524240Y-99722650D02*
X156524240Y-99210150D01*
G75*
G02*
X156742990Y-98991400I218750J0D01*
G01*
X157180490Y-98991400D01*
G75*
G02*
X157399240Y-99210150I0J-218750D01*
G01*
X157399240Y-99722650D01*
G75*
G02*
X157180490Y-99941400I-218750J0D01*
G01*
X156742990Y-99941400D01*
G75*
G02*
X156524240Y-99722650I0J218750D01*
G01*
G37*
%TD*%
%TO.C,R10*%
G36*
G01*
X154937750Y-111195600D02*
X155450250Y-111195600D01*
G75*
G02*
X155669000Y-111414350I0J-218750D01*
G01*
X155669000Y-111851850D01*
G75*
G02*
X155450250Y-112070600I-218750J0D01*
G01*
X154937750Y-112070600D01*
G75*
G02*
X154719000Y-111851850I0J218750D01*
G01*
X154719000Y-111414350D01*
G75*
G02*
X154937750Y-111195600I218750J0D01*
G01*
G37*
G36*
G01*
X154937750Y-109620600D02*
X155450250Y-109620600D01*
G75*
G02*
X155669000Y-109839350I0J-218750D01*
G01*
X155669000Y-110276850D01*
G75*
G02*
X155450250Y-110495600I-218750J0D01*
G01*
X154937750Y-110495600D01*
G75*
G02*
X154719000Y-110276850I0J218750D01*
G01*
X154719000Y-109839350D01*
G75*
G02*
X154937750Y-109620600I218750J0D01*
G01*
G37*
%TD*%
%TO.C,R9*%
G36*
G01*
X154937750Y-122016000D02*
X155450250Y-122016000D01*
G75*
G02*
X155669000Y-122234750I0J-218750D01*
G01*
X155669000Y-122672250D01*
G75*
G02*
X155450250Y-122891000I-218750J0D01*
G01*
X154937750Y-122891000D01*
G75*
G02*
X154719000Y-122672250I0J218750D01*
G01*
X154719000Y-122234750D01*
G75*
G02*
X154937750Y-122016000I218750J0D01*
G01*
G37*
G36*
G01*
X154937750Y-120441000D02*
X155450250Y-120441000D01*
G75*
G02*
X155669000Y-120659750I0J-218750D01*
G01*
X155669000Y-121097250D01*
G75*
G02*
X155450250Y-121316000I-218750J0D01*
G01*
X154937750Y-121316000D01*
G75*
G02*
X154719000Y-121097250I0J218750D01*
G01*
X154719000Y-120659750D01*
G75*
G02*
X154937750Y-120441000I218750J0D01*
G01*
G37*
%TD*%
%TO.C,R8*%
G36*
G01*
X151940550Y-111220900D02*
X152453050Y-111220900D01*
G75*
G02*
X152671800Y-111439650I0J-218750D01*
G01*
X152671800Y-111877150D01*
G75*
G02*
X152453050Y-112095900I-218750J0D01*
G01*
X151940550Y-112095900D01*
G75*
G02*
X151721800Y-111877150I0J218750D01*
G01*
X151721800Y-111439650D01*
G75*
G02*
X151940550Y-111220900I218750J0D01*
G01*
G37*
G36*
G01*
X151940550Y-109645900D02*
X152453050Y-109645900D01*
G75*
G02*
X152671800Y-109864650I0J-218750D01*
G01*
X152671800Y-110302150D01*
G75*
G02*
X152453050Y-110520900I-218750J0D01*
G01*
X151940550Y-110520900D01*
G75*
G02*
X151721800Y-110302150I0J218750D01*
G01*
X151721800Y-109864650D01*
G75*
G02*
X151940550Y-109645900I218750J0D01*
G01*
G37*
%TD*%
%TO.C,R7*%
G36*
G01*
X151940550Y-114751600D02*
X152453050Y-114751600D01*
G75*
G02*
X152671800Y-114970350I0J-218750D01*
G01*
X152671800Y-115407850D01*
G75*
G02*
X152453050Y-115626600I-218750J0D01*
G01*
X151940550Y-115626600D01*
G75*
G02*
X151721800Y-115407850I0J218750D01*
G01*
X151721800Y-114970350D01*
G75*
G02*
X151940550Y-114751600I218750J0D01*
G01*
G37*
G36*
G01*
X151940550Y-113176600D02*
X152453050Y-113176600D01*
G75*
G02*
X152671800Y-113395350I0J-218750D01*
G01*
X152671800Y-113832850D01*
G75*
G02*
X152453050Y-114051600I-218750J0D01*
G01*
X151940550Y-114051600D01*
G75*
G02*
X151721800Y-113832850I0J218750D01*
G01*
X151721800Y-113395350D01*
G75*
G02*
X151940550Y-113176600I218750J0D01*
G01*
G37*
%TD*%
%TO.C,R6*%
G36*
G01*
X151940550Y-118332900D02*
X152453050Y-118332900D01*
G75*
G02*
X152671800Y-118551650I0J-218750D01*
G01*
X152671800Y-118989150D01*
G75*
G02*
X152453050Y-119207900I-218750J0D01*
G01*
X151940550Y-119207900D01*
G75*
G02*
X151721800Y-118989150I0J218750D01*
G01*
X151721800Y-118551650D01*
G75*
G02*
X151940550Y-118332900I218750J0D01*
G01*
G37*
G36*
G01*
X151940550Y-116757900D02*
X152453050Y-116757900D01*
G75*
G02*
X152671800Y-116976650I0J-218750D01*
G01*
X152671800Y-117414150D01*
G75*
G02*
X152453050Y-117632900I-218750J0D01*
G01*
X151940550Y-117632900D01*
G75*
G02*
X151721800Y-117414150I0J218750D01*
G01*
X151721800Y-116976650D01*
G75*
G02*
X151940550Y-116757900I218750J0D01*
G01*
G37*
%TD*%
%TO.C,R5*%
G36*
G01*
X151991350Y-122016000D02*
X152503850Y-122016000D01*
G75*
G02*
X152722600Y-122234750I0J-218750D01*
G01*
X152722600Y-122672250D01*
G75*
G02*
X152503850Y-122891000I-218750J0D01*
G01*
X151991350Y-122891000D01*
G75*
G02*
X151772600Y-122672250I0J218750D01*
G01*
X151772600Y-122234750D01*
G75*
G02*
X151991350Y-122016000I218750J0D01*
G01*
G37*
G36*
G01*
X151991350Y-120441000D02*
X152503850Y-120441000D01*
G75*
G02*
X152722600Y-120659750I0J-218750D01*
G01*
X152722600Y-121097250D01*
G75*
G02*
X152503850Y-121316000I-218750J0D01*
G01*
X151991350Y-121316000D01*
G75*
G02*
X151772600Y-121097250I0J218750D01*
G01*
X151772600Y-120659750D01*
G75*
G02*
X151991350Y-120441000I218750J0D01*
G01*
G37*
%TD*%
%TO.C,R4*%
G36*
G01*
X146403350Y-111170100D02*
X146915850Y-111170100D01*
G75*
G02*
X147134600Y-111388850I0J-218750D01*
G01*
X147134600Y-111826350D01*
G75*
G02*
X146915850Y-112045100I-218750J0D01*
G01*
X146403350Y-112045100D01*
G75*
G02*
X146184600Y-111826350I0J218750D01*
G01*
X146184600Y-111388850D01*
G75*
G02*
X146403350Y-111170100I218750J0D01*
G01*
G37*
G36*
G01*
X146403350Y-109595100D02*
X146915850Y-109595100D01*
G75*
G02*
X147134600Y-109813850I0J-218750D01*
G01*
X147134600Y-110251350D01*
G75*
G02*
X146915850Y-110470100I-218750J0D01*
G01*
X146403350Y-110470100D01*
G75*
G02*
X146184600Y-110251350I0J218750D01*
G01*
X146184600Y-109813850D01*
G75*
G02*
X146403350Y-109595100I218750J0D01*
G01*
G37*
%TD*%
%TO.C,R3*%
G36*
G01*
X146403350Y-114751600D02*
X146915850Y-114751600D01*
G75*
G02*
X147134600Y-114970350I0J-218750D01*
G01*
X147134600Y-115407850D01*
G75*
G02*
X146915850Y-115626600I-218750J0D01*
G01*
X146403350Y-115626600D01*
G75*
G02*
X146184600Y-115407850I0J218750D01*
G01*
X146184600Y-114970350D01*
G75*
G02*
X146403350Y-114751600I218750J0D01*
G01*
G37*
G36*
G01*
X146403350Y-113176600D02*
X146915850Y-113176600D01*
G75*
G02*
X147134600Y-113395350I0J-218750D01*
G01*
X147134600Y-113832850D01*
G75*
G02*
X146915850Y-114051600I-218750J0D01*
G01*
X146403350Y-114051600D01*
G75*
G02*
X146184600Y-113832850I0J218750D01*
G01*
X146184600Y-113395350D01*
G75*
G02*
X146403350Y-113176600I218750J0D01*
G01*
G37*
%TD*%
%TO.C,R2*%
G36*
G01*
X146403350Y-118358400D02*
X146915850Y-118358400D01*
G75*
G02*
X147134600Y-118577150I0J-218750D01*
G01*
X147134600Y-119014650D01*
G75*
G02*
X146915850Y-119233400I-218750J0D01*
G01*
X146403350Y-119233400D01*
G75*
G02*
X146184600Y-119014650I0J218750D01*
G01*
X146184600Y-118577150D01*
G75*
G02*
X146403350Y-118358400I218750J0D01*
G01*
G37*
G36*
G01*
X146403350Y-116783400D02*
X146915850Y-116783400D01*
G75*
G02*
X147134600Y-117002150I0J-218750D01*
G01*
X147134600Y-117439650D01*
G75*
G02*
X146915850Y-117658400I-218750J0D01*
G01*
X146403350Y-117658400D01*
G75*
G02*
X146184600Y-117439650I0J218750D01*
G01*
X146184600Y-117002150D01*
G75*
G02*
X146403350Y-116783400I218750J0D01*
G01*
G37*
%TD*%
%TO.C,R1*%
G36*
G01*
X146403350Y-121965200D02*
X146915850Y-121965200D01*
G75*
G02*
X147134600Y-122183950I0J-218750D01*
G01*
X147134600Y-122621450D01*
G75*
G02*
X146915850Y-122840200I-218750J0D01*
G01*
X146403350Y-122840200D01*
G75*
G02*
X146184600Y-122621450I0J218750D01*
G01*
X146184600Y-122183950D01*
G75*
G02*
X146403350Y-121965200I218750J0D01*
G01*
G37*
G36*
G01*
X146403350Y-120390200D02*
X146915850Y-120390200D01*
G75*
G02*
X147134600Y-120608950I0J-218750D01*
G01*
X147134600Y-121046450D01*
G75*
G02*
X146915850Y-121265200I-218750J0D01*
G01*
X146403350Y-121265200D01*
G75*
G02*
X146184600Y-121046450I0J218750D01*
G01*
X146184600Y-120608950D01*
G75*
G02*
X146403350Y-120390200I218750J0D01*
G01*
G37*
%TD*%
D10*
%TO.C,Q4*%
X150653600Y-110794800D03*
X148253600Y-111744800D03*
X148253600Y-109844800D03*
%TD*%
%TO.C,Q3*%
X150653600Y-114401600D03*
X148253600Y-115351600D03*
X148253600Y-113451600D03*
%TD*%
%TO.C,Q2*%
X150653600Y-118008400D03*
X148253600Y-118958400D03*
X148253600Y-117058400D03*
%TD*%
%TO.C,Q1*%
X150653600Y-121615200D03*
X148253600Y-122565200D03*
X148253600Y-120665200D03*
%TD*%
D11*
%TO.C,IC1*%
X150000000Y-100000000D03*
D12*
X152950000Y-96425000D03*
X152950000Y-97075000D03*
X152950000Y-97725000D03*
X152950000Y-98375000D03*
X152950000Y-99025000D03*
X152950000Y-99675000D03*
X152950000Y-100325000D03*
X152950000Y-100975000D03*
X152950000Y-101625000D03*
X152950000Y-102275000D03*
X152950000Y-102925000D03*
X152950000Y-103575000D03*
X147050000Y-103575000D03*
X147050000Y-102925000D03*
X147050000Y-102275000D03*
X147050000Y-101625000D03*
X147050000Y-100975000D03*
X147050000Y-100325000D03*
X147050000Y-99675000D03*
X147050000Y-99025000D03*
X147050000Y-98375000D03*
X147050000Y-97725000D03*
X147050000Y-97075000D03*
X147050000Y-96425000D03*
%TD*%
%TO.C,C5*%
G36*
G01*
X157399240Y-102258150D02*
X157399240Y-102770650D01*
G75*
G02*
X157180490Y-102989400I-218750J0D01*
G01*
X156742990Y-102989400D01*
G75*
G02*
X156524240Y-102770650I0J218750D01*
G01*
X156524240Y-102258150D01*
G75*
G02*
X156742990Y-102039400I218750J0D01*
G01*
X157180490Y-102039400D01*
G75*
G02*
X157399240Y-102258150I0J-218750D01*
G01*
G37*
G36*
G01*
X158974240Y-102258150D02*
X158974240Y-102770650D01*
G75*
G02*
X158755490Y-102989400I-218750J0D01*
G01*
X158317990Y-102989400D01*
G75*
G02*
X158099240Y-102770650I0J218750D01*
G01*
X158099240Y-102258150D01*
G75*
G02*
X158317990Y-102039400I218750J0D01*
G01*
X158755490Y-102039400D01*
G75*
G02*
X158974240Y-102258150I0J-218750D01*
G01*
G37*
%TD*%
%TO.C,C4*%
G36*
G01*
X157399240Y-105306150D02*
X157399240Y-105818650D01*
G75*
G02*
X157180490Y-106037400I-218750J0D01*
G01*
X156742990Y-106037400D01*
G75*
G02*
X156524240Y-105818650I0J218750D01*
G01*
X156524240Y-105306150D01*
G75*
G02*
X156742990Y-105087400I218750J0D01*
G01*
X157180490Y-105087400D01*
G75*
G02*
X157399240Y-105306150I0J-218750D01*
G01*
G37*
G36*
G01*
X158974240Y-105306150D02*
X158974240Y-105818650D01*
G75*
G02*
X158755490Y-106037400I-218750J0D01*
G01*
X158317990Y-106037400D01*
G75*
G02*
X158099240Y-105818650I0J218750D01*
G01*
X158099240Y-105306150D01*
G75*
G02*
X158317990Y-105087400I218750J0D01*
G01*
X158755490Y-105087400D01*
G75*
G02*
X158974240Y-105306150I0J-218750D01*
G01*
G37*
%TD*%
%TO.C,C3*%
G36*
G01*
X158099240Y-96674650D02*
X158099240Y-96162150D01*
G75*
G02*
X158317990Y-95943400I218750J0D01*
G01*
X158755490Y-95943400D01*
G75*
G02*
X158974240Y-96162150I0J-218750D01*
G01*
X158974240Y-96674650D01*
G75*
G02*
X158755490Y-96893400I-218750J0D01*
G01*
X158317990Y-96893400D01*
G75*
G02*
X158099240Y-96674650I0J218750D01*
G01*
G37*
G36*
G01*
X156524240Y-96674650D02*
X156524240Y-96162150D01*
G75*
G02*
X156742990Y-95943400I218750J0D01*
G01*
X157180490Y-95943400D01*
G75*
G02*
X157399240Y-96162150I0J-218750D01*
G01*
X157399240Y-96674650D01*
G75*
G02*
X157180490Y-96893400I-218750J0D01*
G01*
X156742990Y-96893400D01*
G75*
G02*
X156524240Y-96674650I0J218750D01*
G01*
G37*
%TD*%
%TO.C,C2*%
G36*
G01*
X157399240Y-103782150D02*
X157399240Y-104294650D01*
G75*
G02*
X157180490Y-104513400I-218750J0D01*
G01*
X156742990Y-104513400D01*
G75*
G02*
X156524240Y-104294650I0J218750D01*
G01*
X156524240Y-103782150D01*
G75*
G02*
X156742990Y-103563400I218750J0D01*
G01*
X157180490Y-103563400D01*
G75*
G02*
X157399240Y-103782150I0J-218750D01*
G01*
G37*
G36*
G01*
X158974240Y-103782150D02*
X158974240Y-104294650D01*
G75*
G02*
X158755490Y-104513400I-218750J0D01*
G01*
X158317990Y-104513400D01*
G75*
G02*
X158099240Y-104294650I0J218750D01*
G01*
X158099240Y-103782150D01*
G75*
G02*
X158317990Y-103563400I218750J0D01*
G01*
X158755490Y-103563400D01*
G75*
G02*
X158974240Y-103782150I0J-218750D01*
G01*
G37*
%TD*%
%TO.C,C1*%
G36*
G01*
X144274250Y-102418400D02*
X143761750Y-102418400D01*
G75*
G02*
X143543000Y-102199650I0J218750D01*
G01*
X143543000Y-101762150D01*
G75*
G02*
X143761750Y-101543400I218750J0D01*
G01*
X144274250Y-101543400D01*
G75*
G02*
X144493000Y-101762150I0J-218750D01*
G01*
X144493000Y-102199650D01*
G75*
G02*
X144274250Y-102418400I-218750J0D01*
G01*
G37*
G36*
G01*
X144274250Y-103993400D02*
X143761750Y-103993400D01*
G75*
G02*
X143543000Y-103774650I0J218750D01*
G01*
X143543000Y-103337150D01*
G75*
G02*
X143761750Y-103118400I218750J0D01*
G01*
X144274250Y-103118400D01*
G75*
G02*
X144493000Y-103337150I0J-218750D01*
G01*
X144493000Y-103774650D01*
G75*
G02*
X144274250Y-103993400I-218750J0D01*
G01*
G37*
%TD*%
M02*
