M48
; DRILL file {KiCad (5.1.6)-1} date 08/11/20 11:24:00
; FORMAT={-:-/ absolute / metric / decimal}
; #@! TF.CreationDate,2020-08-11T11:24:00+09:00
; #@! TF.GenerationSoftware,Kicad,Pcbnew,(5.1.6)-1
FMAT,2
METRIC
T1C0.300
T2C0.400
T3C1.000
%
G90
G05
T1
X148.9Y-96.8
X148.9Y-98.1
X148.9Y-99.4
X148.9Y-100.7
X148.9Y-102.0
X148.9Y-103.3
X150.0Y-96.8
X150.0Y-98.1
X150.0Y-99.4
X150.0Y-100.7
X150.0Y-102.0
X150.0Y-103.3
X151.1Y-96.8
X151.1Y-98.1
X151.1Y-99.4
X151.1Y-100.7
X151.1Y-102.0
X151.1Y-103.3
T2
X140.58Y-105.274
X140.853Y-108.107
X143.036Y-105.918
X143.748Y-107.538
X144.001Y-98.872
X147.066Y-106.68
X149.419Y-119.826
X149.606Y-122.428
X150.6Y-108.95
X150.6Y-112.525
X150.6Y-116.15
X150.6Y-119.725
X153.924Y-107.277
X154.432Y-124.46
X154.432Y-128.27
X154.432Y-131.826
X155.549Y-100.531
X155.6Y-99.532
X155.702Y-105.41
X159.171Y-106.75
X159.708Y-96.909
X159.97Y-99.582
X159.974Y-101.005
X160.146Y-97.809
X160.58Y-98.709
X162.793Y-98.044
X162.793Y-99.314
T3
X136.5Y-92.253
X136.5Y-94.793
X136.5Y-97.333
X136.5Y-99.873
X136.5Y-102.413
X136.5Y-104.953
X136.5Y-107.493
X139.04Y-92.253
X139.04Y-94.793
X139.04Y-97.333
X139.04Y-99.873
X139.04Y-102.413
X139.04Y-104.953
X139.04Y-107.493
X136.5Y-113.182
X136.5Y-115.722
X136.5Y-118.262
X136.5Y-120.802
X136.5Y-123.342
X136.5Y-125.882
X136.5Y-128.422
X136.5Y-130.962
T0
M30
